<svg xmlns="http://www.w3.org/2000/svg" width="361" height="95" viewBox="0 0 361 95">
  <g id="Layer_2" data-name="Layer 2" transform="translate(0.067)">
    <g id="Layer_1" data-name="Layer 1" transform="translate(-0.067)">
      <rect id="Rectangle_3" data-name="Rectangle 3" width="361" height="95" fill="#f7b359"/>
      <circle id="Ellipse_5" data-name="Ellipse 5" cx="6.877" cy="6.877" r="6.877" transform="translate(310.189 43.507)" fill="#efdcda"/>
      <circle id="Ellipse_6" data-name="Ellipse 6" cx="6.877" cy="6.877" r="6.877" transform="translate(39.874 42.993)" fill="#efdcda"/>
      <path id="Path_492" data-name="Path 492" d="M25.341,2718.888H16.617c-3.9,2.336-7.451,3.562-14.274,4.611v7.355h11.12v29.936H0v9.577H36.665v-9.577H25.341Z" transform="translate(91.809 -2696.587)" fill="#ec4247"/>
      <path id="Path_493" data-name="Path 493" d="M156.528,2716c-9.646,0-18.067,6.458-18.067,17.191,0,10.886,6.8,15.822,15.526,15.822,3.676,0,8.461-2.027,12.048-5.505-.5,12.167-5.785,16.289-11.82,16.289a13.808,13.808,0,0,1-8.78-3.591l-6.264,7.1a23.249,23.249,0,0,0,16.1,6.071c11.084,0,21.635-8.716,21.635-27.806,0-18.185-10.109-25.566-20.375-25.566m.038,24.647c-4.324,0-7.28-2.217-7.28-7.456,0-5.859,3.586-8.291,7.5-8.291,3.8,0,7.681,2.524,8.9,10.78-3.008,3.611-6.218,4.967-9.119,4.967" transform="translate(-1.254 -2694.643)" fill="#ec4247"/>
      <path id="Path_494" data-name="Path 494" d="M301.126,2716c-9.646,0-18.067,6.458-18.067,17.191,0,10.886,6.8,15.822,15.526,15.822,3.676,0,8.46-2.027,12.048-5.506-.5,12.168-5.785,16.29-11.82,16.29a13.807,13.807,0,0,1-8.78-3.591l-6.264,7.1a23.249,23.249,0,0,0,16.1,6.071c11.084,0,21.635-8.716,21.635-27.806,0-18.185-10.109-25.566-20.375-25.566m.038,24.647c-4.324,0-7.28-2.217-7.28-7.456,0-5.859,3.586-8.291,7.5-8.291,3.8,0,7.681,2.524,8.9,10.78-3.008,3.611-6.218,4.967-9.119,4.967" transform="translate(-98.442 -2694.643)" fill="#ec4247"/>
      <path id="Path_495" data-name="Path 495" d="M443.348,2725.293c5.157,0,8.155,2.931,8.155,8.334,0,7.3-9.623,16.009-23.942,27.994v6.8h37.809v-9.973H453.7c-2.584,0-6.261.276-9.1.574,9.606-8.361,18.192-17.545,18.192-26.072,0-10.257-7.217-16.955-17.81-16.955-7.709,0-12.747,2.643-17.987,7.963l6.362,6.4c2.821-2.621,6.033-5.07,10-5.07" transform="translate(-195.179 -2694.643)" fill="#ec4247"/>
    </g>
  </g>
</svg>
