<svg xmlns="http://www.w3.org/2000/svg" width="363" height="95" viewBox="0 0 363 95">
  <g id="Layer_2" data-name="Layer 2" transform="translate(0.307)">
    <g id="Layer_1" data-name="Layer 1" transform="translate(-0.307)">
      <rect id="Rectangle_6" data-name="Rectangle 6" width="363" height="95" fill="#0e4435"/>
      <circle id="Ellipse_9" data-name="Ellipse 9" cx="6.877" cy="6.877" r="6.877" transform="translate(307.026 42.568)" fill="#f7b359"/>
      <circle id="Ellipse_10" data-name="Ellipse 10" cx="6.877" cy="6.877" r="6.877" transform="translate(36.712 42.055)" fill="#f7b359"/>
      <path id="Path_480" data-name="Path 480" d="M25.341,1554.887H16.617c-3.9,2.337-7.451,3.562-14.274,4.611v7.355h11.12v29.935H0v9.577H36.665v-9.577H25.341Z" transform="translate(93.928 -1532.234)" fill="#1c7c62"/>
      <path id="Path_481" data-name="Path 481" d="M156.528,1552c-9.646,0-18.067,6.458-18.067,17.191,0,10.888,6.8,15.823,15.526,15.823,3.676,0,8.461-2.028,12.048-5.506-.5,12.166-5.785,16.288-11.82,16.288a13.81,13.81,0,0,1-8.78-3.592l-6.264,7.1a23.256,23.256,0,0,0,16.1,6.071c11.084,0,21.635-8.718,21.635-27.806,0-18.186-10.109-25.567-20.375-25.567m.038,24.648c-4.324,0-7.28-2.218-7.28-7.457,0-5.858,3.586-8.29,7.5-8.29,3.8,0,7.681,2.523,8.9,10.781-3.008,3.611-6.218,4.966-9.119,4.966" transform="translate(0.865 -1530.291)" fill="#1c7c62"/>
      <path id="Path_482" data-name="Path 482" d="M301.126,1552c-9.646,0-18.067,6.458-18.067,17.191,0,10.888,6.8,15.823,15.526,15.823,3.676,0,8.46-2.028,12.048-5.506-.5,12.166-5.785,16.288-11.82,16.288a13.809,13.809,0,0,1-8.78-3.592l-6.264,7.1a23.256,23.256,0,0,0,16.1,6.071c11.084,0,21.635-8.718,21.635-27.806,0-18.186-10.109-25.567-20.375-25.567m.038,24.648c-4.324,0-7.28-2.218-7.28-7.457,0-5.858,3.586-8.29,7.5-8.29,3.8,0,7.681,2.523,8.9,10.781-3.008,3.611-6.218,4.966-9.119,4.966" transform="translate(-96.322 -1530.291)" fill="#1c7c62"/>
      <path id="Path_483" data-name="Path 483" d="M464.414,1589.412c0-10.884-8.023-15.861-17.245-15.861a17.994,17.994,0,0,0-6.455,1.1l.806-9.789h20.605v-9.973H431.268l-1.361,26.046,5.27,3.407c3.377-1.916,5.068-2.543,8.36-2.543,5.157,0,8.98,2.773,8.98,7.911,0,5.3-3.9,8.028-9.554,8.028-4.625,0-8.315-2.625-11.713-5.528l-5.331,8.05c4.17,3.955,10.062,7.054,18.771,7.054,10.357,0,19.724-6.5,19.724-17.9" transform="translate(-192.342 -1532.234)" fill="#1c7c62"/>
    </g>
  </g>
</svg>
