<svg xmlns="http://www.w3.org/2000/svg" width="361" height="95" viewBox="0 0 361 95">
  <g id="Layer_2" data-name="Layer 2" transform="translate(0.455)">
    <g id="Layer_1" data-name="Layer 1" transform="translate(-0.455)">
      <rect id="Rectangle_10" data-name="Rectangle 10" width="361" height="95" transform="translate(0)" fill="#ec4247"/>
      <path id="Path_54" data-name="Path 54" d="M971.589,177.642a12.449,12.449,0,0,0-4.818-13.635,12.427,12.427,0,0,0,10.892-9.379,12.411,12.411,0,0,0-6.424-.125,12.46,12.46,0,0,0-.125-6.424,12.433,12.433,0,0,0-9.379,10.859,12.433,12.433,0,0,0-13.538-4.693,12.435,12.435,0,0,0,3.1,5.621,12.415,12.415,0,0,0-5.5,3.321,12.424,12.424,0,0,0,14.21,2.637,12.436,12.436,0,0,0,2.637,14.209,12.421,12.421,0,0,0,3.321-5.5A12.439,12.439,0,0,0,971.589,177.642Z" transform="translate(-641.558 -115.958)" fill="#0e4435"/>
      <path id="Path_56" data-name="Path 56" d="M102.874,177.642a12.449,12.449,0,0,1,4.818-13.635A12.427,12.427,0,0,1,96.8,154.629a12.411,12.411,0,0,1,6.424-.125,12.459,12.459,0,0,1,.125-6.424,12.433,12.433,0,0,1,9.379,10.859,12.433,12.433,0,0,1,13.538-4.693,12.436,12.436,0,0,1-3.1,5.621,12.414,12.414,0,0,1,5.5,3.321,12.424,12.424,0,0,1-14.209,2.637,12.436,12.436,0,0,1-2.637,14.209,12.42,12.42,0,0,1-3.321-5.5A12.439,12.439,0,0,1,102.874,177.642Z" transform="translate(-65.249 -115.958)" fill="#0e4435"/>
    </g>
    <path id="Path_468" data-name="Path 468" d="M25.341,2.887H16.617C12.72,5.223,9.166,6.449,2.343,7.5v7.355h11.12V44.788H0v9.576H36.665V44.788H25.341Z" transform="translate(91.245 19.874)" fill="#fff"/>
    <path id="Path_469" data-name="Path 469" d="M156.528,0c-9.646,0-18.067,6.458-18.067,17.191,0,10.887,6.8,15.823,15.526,15.823,3.676,0,8.461-2.027,12.048-5.505-.5,12.166-5.785,16.288-11.82,16.288a13.809,13.809,0,0,1-8.78-3.592l-6.264,7.1a23.257,23.257,0,0,0,16.1,6.071c11.084,0,21.635-8.717,21.635-27.806C176.9,7.377,166.794,0,156.528,0m.038,24.648c-4.324,0-7.28-2.218-7.28-7.457,0-5.858,3.586-8.29,7.5-8.29,3.8,0,7.681,2.523,8.9,10.781-3.008,3.611-6.218,4.967-9.119,4.967" transform="translate(-1.818 21.817)" fill="#fff"/>
    <path id="Path_470" data-name="Path 470" d="M301.126,0c-9.646,0-18.067,6.458-18.067,17.191,0,10.887,6.8,15.823,15.526,15.823,3.676,0,8.46-2.027,12.048-5.505-.5,12.166-5.785,16.289-11.82,16.289a13.808,13.808,0,0,1-8.78-3.592l-6.264,7.1a23.257,23.257,0,0,0,16.1,6.071c11.084,0,21.635-8.717,21.635-27.806C321.5,7.377,311.392,0,301.126,0m.038,24.648c-4.324,0-7.28-2.218-7.28-7.457,0-5.858,3.586-8.29,7.5-8.29,3.8,0,7.681,2.523,8.9,10.781-3.008,3.611-6.218,4.967-9.119,4.967" transform="translate(-99.005 21.817)" fill="#fff"/>
    <path id="Path_471" data-name="Path 471" d="M443.182,33.01c3.676,0,8.461-2.027,12.048-5.505-.5,12.166-5.785,16.289-11.82,16.289a13.81,13.81,0,0,1-8.78-3.592l-6.264,7.1a23.257,23.257,0,0,0,16.1,6.072c11.084,0,21.635-8.718,21.635-27.807C466.1,7.377,455.989,0,445.723,0c-9.646,0-18.067,6.458-18.067,17.191,0,10.887,6.8,15.823,15.526,15.823m2.8-24.113c3.8,0,7.681,2.523,8.9,10.781-3.008,3.611-6.218,4.967-9.119,4.967-4.324,0-7.28-2.217-7.28-7.457,0-5.858,3.586-8.29,7.5-8.29" transform="translate(-196.192 21.817)" fill="#fff"/>
  </g>
</svg>
