<svg xmlns="http://www.w3.org/2000/svg" width="361.66" height="95.374" viewBox="0 0 361.66 95.374">
  <g id="Layer_2" data-name="Layer 2" transform="translate(0.755 0.187)">
    <g id="Layer_1" data-name="Layer 1" transform="translate(-0.755 -0.187)">
      <path id="Path_530" data-name="Path 530" d="M0,0H361.66V95.373H0Z" transform="translate(0)" fill="#ec4247"/>
      <path id="Path_54" data-name="Path 54" d="M971.589,177.642a12.449,12.449,0,0,0-4.818-13.635,12.427,12.427,0,0,0,10.892-9.379,12.411,12.411,0,0,0-6.424-.125,12.46,12.46,0,0,0-.125-6.424,12.433,12.433,0,0,0-9.379,10.859,12.433,12.433,0,0,0-13.538-4.693,12.435,12.435,0,0,0,3.1,5.621,12.415,12.415,0,0,0-5.5,3.321,12.424,12.424,0,0,0,14.21,2.637,12.436,12.436,0,0,0,2.637,14.209,12.421,12.421,0,0,0,3.321-5.5A12.439,12.439,0,0,0,971.589,177.642Z" transform="translate(-640.898 -115.768)" fill="#0e4435"/>
      <path id="Path_56" data-name="Path 56" d="M102.874,177.642a12.449,12.449,0,0,1,4.818-13.635A12.427,12.427,0,0,1,96.8,154.629a12.411,12.411,0,0,1,6.424-.125,12.459,12.459,0,0,1,.125-6.424,12.433,12.433,0,0,1,9.379,10.859,12.433,12.433,0,0,1,13.538-4.693,12.436,12.436,0,0,1-3.1,5.621,12.414,12.414,0,0,1,5.5,3.321,12.424,12.424,0,0,1-14.209,2.637,12.436,12.436,0,0,1-2.637,14.209,12.42,12.42,0,0,1-3.321-5.5A12.439,12.439,0,0,1,102.874,177.642Z" transform="translate(-65.249 -115.768)" fill="#0e4435"/>
      <path id="Path_541" data-name="Path 541" d="M25.341,2718.888H16.617c-3.9,2.336-7.451,3.562-14.274,4.611v7.355h11.12v29.936H0v9.577H36.665v-9.577H25.341Z" transform="translate(92.109 -2696.213)" fill="#fff"/>
      <path id="Path_544" data-name="Path 544" d="M25.341,2718.888H16.617c-3.9,2.336-7.451,3.562-14.274,4.611v7.355h11.12v29.936H0v9.577H36.665v-9.577H25.341Z" transform="translate(232.092 -2696.213)" fill="#fff"/>
      <path id="Path_542" data-name="Path 542" d="M156.528,2716c-9.646,0-18.067,6.458-18.067,17.191,0,10.886,6.8,15.822,15.526,15.822,3.676,0,8.461-2.027,12.048-5.505-.5,12.167-5.785,16.289-11.82,16.289a13.808,13.808,0,0,1-8.78-3.591l-6.264,7.1a23.249,23.249,0,0,0,16.1,6.071c11.084,0,21.635-8.716,21.635-27.806,0-18.185-10.109-25.566-20.375-25.566m.038,24.647c-4.324,0-7.28-2.217-7.28-7.456,0-5.859,3.586-8.291,7.5-8.291,3.8,0,7.681,2.524,8.9,10.78-3.008,3.611-6.218,4.967-9.119,4.967" transform="translate(-0.954 -2694.27)" fill="#fff"/>
      <path id="Path_543" data-name="Path 543" d="M301.126,2716c-9.646,0-18.067,6.458-18.067,17.191,0,10.886,6.8,15.822,15.526,15.822,3.676,0,8.46-2.027,12.048-5.506-.5,12.168-5.785,16.29-11.82,16.29a13.807,13.807,0,0,1-8.78-3.591l-6.264,7.1a23.249,23.249,0,0,0,16.1,6.071c11.084,0,21.635-8.716,21.635-27.806,0-18.185-10.109-25.566-20.375-25.566m.038,24.647c-4.324,0-7.28-2.217-7.28-7.456,0-5.859,3.586-8.291,7.5-8.291,3.8,0,7.681,2.524,8.9,10.78-3.008,3.611-6.218,4.967-9.119,4.967" transform="translate(-98.142 -2694.27)" fill="#fff"/>
    </g>
  </g>
</svg>
