<svg xmlns="http://www.w3.org/2000/svg" width="360" height="95" viewBox="0 0 360 95">
  <g id="Layer_2" data-name="Layer 2" transform="translate(-0.359)">
    <g id="Layer_1" data-name="Layer 1" transform="translate(0.359)">
      <rect id="Rectangle_5" data-name="Rectangle 5" width="360" height="95" fill="#ec4247"/>
      <path id="Path_26" data-name="Path 26" d="M971.589,183.642a12.449,12.449,0,0,0-4.818-13.635,12.427,12.427,0,0,0,10.892-9.379,12.411,12.411,0,0,0-6.424-.125,12.46,12.46,0,0,0-.125-6.424,12.433,12.433,0,0,0-9.379,10.859,12.433,12.433,0,0,0-13.538-4.693,12.435,12.435,0,0,0,3.1,5.621,12.415,12.415,0,0,0-5.5,3.321,12.424,12.424,0,0,0,14.21,2.637,12.436,12.436,0,0,0,2.637,14.209,12.422,12.422,0,0,0,3.321-5.5A12.438,12.438,0,0,0,971.589,183.642Z" transform="translate(-643.317 -120.547)" fill="#0e4435"/>
      <path id="Path_28" data-name="Path 28" d="M102.874,183.642a12.449,12.449,0,0,1,4.818-13.635A12.427,12.427,0,0,1,96.8,160.629a12.411,12.411,0,0,1,6.424-.125,12.459,12.459,0,0,1,.125-6.424,12.433,12.433,0,0,1,9.379,10.859,12.433,12.433,0,0,1,13.538-4.693,12.436,12.436,0,0,1-3.1,5.621,12.415,12.415,0,0,1,5.5,3.321,12.424,12.424,0,0,1-14.209,2.637,12.436,12.436,0,0,1-2.637,14.209,12.42,12.42,0,0,1-3.321-5.5A12.44,12.44,0,0,1,102.874,183.642Z" transform="translate(-67.008 -120.547)" fill="#0e4435"/>
      <path id="Path_484" data-name="Path 484" d="M25.341,1942.887H16.617c-3.9,2.336-7.451,3.562-14.274,4.611v7.355h11.12v29.936H0v9.576H36.665v-9.576H25.341Z" transform="translate(91.9 -1921.017)" fill="#f7b359"/>
      <path id="Path_485" data-name="Path 485" d="M156.528,1940c-9.646,0-18.067,6.458-18.067,17.191,0,10.887,6.8,15.823,15.526,15.823,3.676,0,8.461-2.026,12.048-5.5-.5,12.166-5.785,16.288-11.82,16.288a13.809,13.809,0,0,1-8.78-3.592l-6.264,7.1a23.255,23.255,0,0,0,16.1,6.071c11.084,0,21.635-8.717,21.635-27.806,0-18.186-10.109-25.567-20.375-25.567m.038,24.648c-4.324,0-7.28-2.217-7.28-7.457,0-5.858,3.586-8.29,7.5-8.29,3.8,0,7.681,2.522,8.9,10.78-3.008,3.611-6.218,4.966-9.119,4.966" transform="translate(-1.163 -1919.263)" fill="#f7b359"/>
      <path id="Path_487" data-name="Path 487" d="M458.427,1972.775v-29.887H444.043l-20.765,30.7v8.231h24.085v12.55h11.064v-12.55H464.7v-9.04Zm-23.734,0,7.295-11.084c1.8-2.887,3.874-5.834,5.533-8.8h.277c-.158,3.323-.416,7.994-.435,11.336v8.548Z" transform="translate(-192.595 -1921.017)" fill="#f7b359"/>
      <path id="Path_510" data-name="Path 510" d="M458.1,413.63v-.316c3.908-2.445,7.186-6.431,7.186-11.23,0-8.519-6.485-14.088-16.482-14.088-10.024,0-17.18,5.474-17.18,14.212,0,5.412,3.118,9.262,7.306,12.168v.316c-5.153,2.529-9.391,6.3-9.391,12.554,0,8.356,7.231,14.123,18.848,14.123,12.254,0,19.111-6.144,19.111-14.265,0-6.93-4.107-10.828-9.4-13.474m-9.573-17.408c4.467,0,7.006,2.615,7.006,6.675,0,2.657-1.158,5.2-3.673,7.581-5.833-2.012-9.809-4.12-9.809-8.271,0-4.022,2.856-5.985,6.475-5.985m.139,36.9c-4.995,0-8.837-2.634-8.837-7.207a10.073,10.073,0,0,1,4.669-8.132c7.1,2.644,11.919,4.3,11.919,8.922,0,4.376-3.191,6.417-7.75,6.417" transform="translate(-244.539 -367.263)" fill="#f7b359"/>
    </g>
  </g>
</svg>
