<svg xmlns="http://www.w3.org/2000/svg" xmlns:xlink="http://www.w3.org/1999/xlink" width="361.66" height="95.374" viewBox="0 0 361.66 95.374">
  <defs>
    <clipPath id="clip-path">
      <rect id="Rectangle_20" data-name="Rectangle 20" width="200.537" height="41.274" fill="none"/>
    </clipPath>
  </defs>
  <g id="Layer_2" data-name="Layer 2" transform="translate(0.755 0.187)">
    <g id="Layer_1" data-name="Layer 1" transform="translate(-0.755 -0.187)">
      <path id="Path_530" data-name="Path 530" d="M0,0H361.66V95.373H0Z" transform="translate(0)" fill="#1c7c62"/>
      <g id="Group_11" data-name="Group 11" transform="translate(89.483 27.135)">
        <g id="Group_10" data-name="Group 10" transform="translate(0 0)" clip-path="url(#clip-path)">
          <g id="Group_12" data-name="Group 12" transform="translate(118.122)">
            <path id="Path_545" data-name="Path 545" d="M0,8.586H19.329C11.071,18.967,8.664,27.392,7.9,40.681h9.244C17.894,25.1,19.2,17.491,29.2,6.531V.873H0Z" transform="translate(0 -0.141)" fill="#fff"/>
            <path id="Path_546" data-name="Path 546" d="M53.8,0c-9,0-14.963,6.871-14.963,20.454,0,13.52,5.963,20.82,14.963,20.82s14.963-7.3,14.963-20.82C68.759,6.871,62.8,0,53.8,0m0,34.176C50.021,34.176,47,30.862,47,20.454S50.021,7.1,53.8,7.1s6.793,2.962,6.793,13.356S57.57,34.176,53.8,34.176" transform="translate(-6.236 0)" fill="#fff"/>
            <path id="Path_548" data-name="Path 548" d="M88.641,9.641c-2.179-.626-4.085-1.074-4.085-2.093,0-.8.746-1.2,2.551-1.2a9.364,9.364,0,0,1,4.851,1.485l2.583-3.363a13.8,13.8,0,0,0-7.516-2.4c-5.046,0-8.225,2.345-8.225,5.729,0,2.985,3.27,4.446,6.116,5.33,2.234.668,4.274,1.17,4.274,2.241,0,.828-.84,1.341-2.933,1.341A11.023,11.023,0,0,1,80.279,14.8l-2.584,3.513a15.767,15.767,0,0,0,8.454,2.59c5.689,0,8.744-2.576,8.744-5.878,0-3.243-3.3-4.525-6.252-5.383" transform="translate(-12.477 -0.332)" fill="#fff"/>
          </g>
          <rect id="Rectangle_19" data-name="Rectangle 19" width="14.231" height="6.469" transform="translate(96.463 19.142)" fill="#fff"/>
          <path id="Path_549" data-name="Path 549" d="M152.452,15.744a14.473,14.473,0,0,0-9.3,4.242c.392-9.409,4.461-12.58,9.14-12.58a10.665,10.665,0,0,1,6.789,2.778l4.845-5.488A17.984,17.984,0,0,0,151.476,0c-8.586,0-16.731,6.665-16.731,21.5,0,14.048,7.8,19.772,15.742,19.772,7.475,0,13.986-5.009,13.986-13.295,0-8.4-5.273-12.235-12.021-12.235M150.3,34.391c-2.955,0-5.944-1.983-6.882-8.353,2.321-2.781,4.8-3.825,7.052-3.825,3.344,0,5.616,1.7,5.616,5.767,0,4.531-2.773,6.411-5.785,6.411" transform="translate(-134.745 0)" fill="#fff"/>
          <path id="Path_550" data-name="Path 550" d="M193.058,0c-9,0-14.963,6.871-14.963,20.454,0,13.52,5.963,20.82,14.963,20.82s14.963-7.3,14.963-20.82C208.022,6.871,202.059,0,193.058,0m0,34.176c-3.775,0-6.793-3.314-6.793-13.722S189.284,7.1,193.058,7.1s6.793,2.962,6.793,13.356-3.018,13.722-6.793,13.722" transform="translate(-141.706 0)" fill="#fff"/>
          <path id="Path_552" data-name="Path 552" d="M229.361,9.641c-2.179-.626-4.085-1.074-4.085-2.093,0-.8.746-1.2,2.551-1.2a9.364,9.364,0,0,1,4.851,1.485l2.583-3.363a13.8,13.8,0,0,0-7.516-2.4c-5.046,0-8.225,2.345-8.225,5.729,0,2.985,3.27,4.446,6.116,5.33,2.234.668,4.274,1.17,4.274,2.241,0,.828-.84,1.341-2.933,1.341A11.023,11.023,0,0,1,221,14.8l-2.584,3.513a15.767,15.767,0,0,0,8.454,2.59c5.689,0,8.744-2.576,8.744-5.878,0-3.243-3.3-4.525-6.252-5.383" transform="translate(-148.181 -0.332)" fill="#fff"/>
        </g>
      </g>
      <path id="Path_553" data-name="Path 553" d="M109.427,155h-.5A17.075,17.075,0,0,1,95,168.924v.5a17.075,17.075,0,0,1,13.924,13.924h.5a17.075,17.075,0,0,1,13.924-13.924v-.5A17.075,17.075,0,0,1,109.427,155Z" transform="translate(-65.094 -123.378)" fill="#ec4247"/>
      <path id="Path_554" data-name="Path 554" d="M965.427,155h-.5A17.075,17.075,0,0,1,951,168.924v.5a17.075,17.075,0,0,1,13.924,13.924h.5a17.075,17.075,0,0,1,13.924-13.924v-.5A17.075,17.075,0,0,1,965.427,155Z" transform="translate(-645.321 -123.378)" fill="#ec4247"/>
    </g>
  </g>
</svg>
