<svg xmlns="http://www.w3.org/2000/svg" width="363" height="95" viewBox="0 0 363 95">
  <g id="Layer_2" data-name="Layer 2" transform="translate(0.094)">
    <g id="Layer_1" data-name="Layer 1" transform="translate(-0.094)">
      <rect id="Rectangle_7" data-name="Rectangle 7" width="363" height="95" fill="#f7b359"/>
      <path id="Path_38" data-name="Path 38" d="M971.589,196.642a12.449,12.449,0,0,0-4.818-13.635,12.427,12.427,0,0,0,10.892-9.379,12.411,12.411,0,0,0-6.424-.125,12.46,12.46,0,0,0-.125-6.424,12.433,12.433,0,0,0-9.379,10.859,12.433,12.433,0,0,0-13.538-4.693,12.436,12.436,0,0,0,3.1,5.621,12.413,12.413,0,0,0-5.5,3.321,12.424,12.424,0,0,0,14.21,2.637,12.436,12.436,0,0,0,2.637,14.209,12.422,12.422,0,0,0,3.321-5.5A12.439,12.439,0,0,0,971.589,196.642Z" transform="translate(-641.214 -130.718)" fill="#ec4247"/>
      <path id="Path_40" data-name="Path 40" d="M102.874,196.642a12.449,12.449,0,0,1,4.818-13.635A12.427,12.427,0,0,1,96.8,173.629a12.41,12.41,0,0,1,6.424-.125,12.459,12.459,0,0,1,.125-6.424,12.433,12.433,0,0,1,9.379,10.859,12.433,12.433,0,0,1,13.538-4.693,12.436,12.436,0,0,1-3.1,5.621,12.414,12.414,0,0,1,5.5,3.321,12.424,12.424,0,0,1-14.209,2.637,12.436,12.436,0,0,1-2.637,14.209,12.42,12.42,0,0,1-3.321-5.5A12.44,12.44,0,0,1,102.874,196.642Z" transform="translate(-64.905 -130.718)" fill="#ec4247"/>
      <path id="Path_439" data-name="Path 439" d="M25.341,1166.887H16.617c-3.9,2.336-7.451,3.562-14.274,4.611v7.355h11.12v29.936H0v9.576H36.665v-9.576H25.341Z" transform="translate(90.7 -1143.449)" fill="#0e4435"/>
      <path id="Path_440" data-name="Path 440" d="M156.528,1164c-9.646,0-18.067,6.459-18.067,17.192,0,10.887,6.8,15.823,15.526,15.823,3.676,0,8.461-2.026,12.048-5.505-.5,12.166-5.785,16.288-11.82,16.288a13.809,13.809,0,0,1-8.78-3.592l-6.264,7.1a23.256,23.256,0,0,0,16.1,6.071c11.084,0,21.635-8.717,21.635-27.806,0-18.186-10.109-25.568-20.375-25.568m.038,24.649c-4.324,0-7.28-2.218-7.28-7.457,0-5.859,3.586-8.29,7.5-8.29,3.8,0,7.681,2.522,8.9,10.78-3.008,3.611-6.218,4.967-9.119,4.967" transform="translate(-2.461 -1141.263)" fill="#0e4435"/>
      <path id="Path_442" data-name="Path 442" d="M449.694,1217.369c9.665,0,18.085-6.478,18.085-17.192,0-10.868-6.819-15.823-15.545-15.823-3.67,0-8.427,2-12.028,5.485.506-12.167,5.769-16.268,11.819-16.268a13.792,13.792,0,0,1,8.78,3.593l6.265-7.1a23.262,23.262,0,0,0-16.1-6.071c-11.1,0-21.636,8.619-21.636,27.806,0,18.166,10.09,25.567,20.356,25.567m-.02-24.649c4.324,0,7.261,2.2,7.261,7.457,0,5.859-3.586,8.291-7.481,8.291-3.82,0-7.686-2.564-8.9-10.8,3-3.6,6.207-4.946,9.12-4.946" transform="translate(-198.338 -1141.506)" fill="#0e4435"/>
      <path id="Path_508" data-name="Path 508" d="M458.1,413.63v-.316c3.908-2.445,7.186-6.431,7.186-11.23,0-8.519-6.485-14.088-16.482-14.088-10.024,0-17.18,5.474-17.18,14.212,0,5.412,3.118,9.262,7.306,12.168v.316c-5.153,2.529-9.391,6.3-9.391,12.554,0,8.356,7.231,14.123,18.848,14.123,12.254,0,19.111-6.144,19.111-14.265,0-6.93-4.107-10.828-9.4-13.474m-9.573-17.408c4.467,0,7.006,2.615,7.006,6.675,0,2.657-1.158,5.2-3.673,7.581-5.833-2.012-9.809-4.12-9.809-8.271,0-4.022,2.856-5.985,6.475-5.985m.139,36.9c-4.995,0-8.837-2.634-8.837-7.207a10.073,10.073,0,0,1,4.669-8.132c7.1,2.644,11.919,4.3,11.919,8.922,0,4.376-3.191,6.417-7.75,6.417" transform="translate(-245.539 -365.263)" fill="#0e4435"/>
    </g>
  </g>
</svg>
