<svg xmlns="http://www.w3.org/2000/svg" width="361" height="95" viewBox="0 0 361 95">
  <g id="Layer_2" data-name="Layer 2" transform="translate(0.493)">
    <g id="Layer_1" data-name="Layer 1" transform="translate(-0.493)">
      <rect id="Rectangle_1" data-name="Rectangle 1" width="361" height="95" fill="#f1c0ba"/>
      <circle id="Ellipse_1" data-name="Ellipse 1" cx="6.877" cy="6.877" r="6.877" transform="translate(306.267 43.976)" fill="#ec4247"/>
      <circle id="Ellipse_2" data-name="Ellipse 2" cx="6.877" cy="6.877" r="6.877" transform="translate(35.953 43.462)" fill="#ec4247"/>
      <path id="Path_500" data-name="Path 500" d="M25.341,3494.887H16.617c-3.9,2.335-7.451,3.562-14.274,4.61v7.356h11.12v29.936H0v9.575H36.665v-9.575H25.341Z" transform="translate(91.442 -3471.149)" fill="#0e4435"/>
      <path id="Path_501" data-name="Path 501" d="M156.528,3492c-9.646,0-18.067,6.46-18.067,17.192,0,10.886,6.8,15.822,15.526,15.822,3.676,0,8.461-2.027,12.048-5.5-.5,12.167-5.785,16.289-11.82,16.289a13.809,13.809,0,0,1-8.78-3.593l-6.264,7.1a23.256,23.256,0,0,0,16.1,6.071c11.084,0,21.635-8.718,21.635-27.806,0-18.185-10.109-25.567-20.375-25.567m.038,24.649c-4.324,0-7.28-2.217-7.28-7.457,0-5.858,3.586-8.292,7.5-8.292,3.8,0,7.681,2.524,8.9,10.781-3.008,3.612-6.218,4.968-9.119,4.968" transform="translate(-1.621 -3469.209)" fill="#0e4435"/>
      <path id="Path_502" data-name="Path 502" d="M301.126,3492c-9.646,0-18.067,6.46-18.067,17.192,0,10.886,6.8,15.822,15.526,15.822,3.676,0,8.46-2.027,12.048-5.5-.5,12.167-5.785,16.289-11.82,16.289a13.808,13.808,0,0,1-8.78-3.593l-6.264,7.1a23.256,23.256,0,0,0,16.1,6.071c11.084,0,21.635-8.718,21.635-27.806,0-18.185-10.109-25.567-20.375-25.567m.038,24.649c-4.324,0-7.28-2.217-7.28-7.457,0-5.858,3.586-8.292,7.5-8.292,3.8,0,7.681,2.524,8.9,10.781-3.008,3.612-6.218,4.968-9.119,4.968" transform="translate(-98.809 -3469.209)" fill="#0e4435"/>
      <path id="Path_503" data-name="Path 503" d="M447.606,3492c-11.639,0-19.35,8.886-19.35,26.449,0,17.485,7.711,26.924,19.35,26.924s19.35-9.438,19.35-26.924c0-17.564-7.711-26.449-19.35-26.449m0,44.2c-4.881,0-8.784-4.287-8.784-17.746,0-13.439,3.9-17.269,8.784-17.269s8.783,3.831,8.783,17.269c0,13.459-3.9,17.746-8.783,17.746" transform="translate(-196.398 -3469.209)" fill="#0e4435"/>
    </g>
  </g>
</svg>
