<svg xmlns="http://www.w3.org/2000/svg" width="363" height="95" viewBox="0 0 363 95">
  <g id="Group_9" data-name="Group 9" transform="translate(-959 -3450)">
    <path id="Path_536" data-name="Path 536" d="M0,0H363V95H0Z" transform="translate(959 3450)" fill="#f1c0ba"/>
    <circle id="Ellipse_113" data-name="Ellipse 113" cx="6.877" cy="6.877" r="6.877" transform="translate(1269.948 3492.099)" fill="#1c7c62"/>
    <circle id="Ellipse_114" data-name="Ellipse 114" cx="6.877" cy="6.877" r="6.877" transform="translate(999.633 3491.585)" fill="#1c7c62"/>
    <path id="Path_537" data-name="Path 537" d="M25.341,778.887H16.617c-3.9,2.336-7.451,3.562-14.274,4.611v7.355h11.12v29.936H0v9.576H36.665v-9.576H25.341Z" transform="translate(1052.7 2694.727)" fill="#ec4247"/>
    <path id="Path_538" data-name="Path 538" d="M156.528,776c-9.646,0-18.067,6.458-18.067,17.191,0,10.887,6.8,15.823,15.526,15.823,3.676,0,8.461-2.027,12.048-5.505-.5,12.166-5.785,16.288-11.82,16.288a13.81,13.81,0,0,1-8.78-3.592l-6.264,7.1a23.257,23.257,0,0,0,16.1,6.071c11.084,0,21.635-8.717,21.635-27.806,0-18.186-10.109-25.567-20.375-25.567m.038,24.648c-4.324,0-7.28-2.218-7.28-7.457,0-5.859,3.586-8.29,7.5-8.29,3.8,0,7.681,2.523,8.9,10.781-3.008,3.611-6.218,4.967-9.119,4.967" transform="translate(959.637 2696.669)" fill="#ec4247"/>
    <path id="Path_539" data-name="Path 539" d="M301.126,776c-9.646,0-18.067,6.458-18.067,17.191,0,10.887,6.8,15.823,15.526,15.823,3.676,0,8.46-2.027,12.048-5.505-.5,12.166-5.785,16.289-11.82,16.289a13.809,13.809,0,0,1-8.78-3.592l-6.264,7.1a23.257,23.257,0,0,0,16.1,6.071c11.084,0,21.635-8.717,21.635-27.806,0-18.186-10.109-25.567-20.375-25.567m.038,24.648c-4.324,0-7.28-2.218-7.28-7.457,0-5.859,3.586-8.29,7.5-8.29,3.8,0,7.681,2.523,8.9,10.781-3.008,3.611-6.218,4.967-9.119,4.967" transform="translate(862.449 2696.669)" fill="#ec4247"/>
    <path id="Path_540" data-name="Path 540" d="M452.009,830.364c.969-20.148,2.657-29.988,15.591-44.16v-7.317H429.839v9.973h24.995c-10.679,13.425-13.79,24.32-14.779,41.5Z" transform="translate(763.795 2694.727)" fill="#ec4247"/>
  </g>
</svg>
