<svg id="Layer_2" data-name="Layer 2" xmlns="http://www.w3.org/2000/svg" width="362" height="95" viewBox="0 0 362 95">
  <g id="Layer_1" data-name="Layer 1">
    <rect id="Rectangle_16" data-name="Rectangle 16" width="362" height="95" fill="#1c7c62"/>
    <path id="Path_285" data-name="Path 285" d="M109.427,155h-.5A17.075,17.075,0,0,1,95,168.924v.5a17.075,17.075,0,0,1,13.924,13.924h.5a17.075,17.075,0,0,1,13.924-13.924v-.5A17.075,17.075,0,0,1,109.427,155Z" transform="translate(-64.394 -120.564)" fill="#ec4247"/>
    <path id="Path_286" data-name="Path 286" d="M965.427,155h-.5A17.075,17.075,0,0,1,951,168.924v.5a17.075,17.075,0,0,1,13.924,13.924h.5a17.075,17.075,0,0,1,13.924-13.924v-.5A17.075,17.075,0,0,1,965.427,155Z" transform="translate(-644.621 -120.564)" fill="#ec4247"/>
    <path id="Path_472" data-name="Path 472" d="M25.341,390.887H16.617c-3.9,2.336-7.451,3.562-14.274,4.611v7.355h11.12v29.935H0v9.576H36.665v-9.576H25.341Z" transform="translate(93.602 -367.881)" fill="#f7b359"/>
    <path id="Path_473" data-name="Path 473" d="M156.528,388c-9.646,0-18.067,6.458-18.067,17.191,0,10.887,6.8,15.823,15.526,15.823,3.676,0,8.461-2.027,12.048-5.505-.5,12.166-5.785,16.288-11.82,16.288a13.81,13.81,0,0,1-8.78-3.592l-6.264,7.1a23.257,23.257,0,0,0,16.1,6.071c11.084,0,21.635-8.717,21.635-27.806,0-18.186-10.109-25.567-20.375-25.567m.038,24.648c-4.324,0-7.28-2.218-7.28-7.457,0-5.858,3.586-8.29,7.5-8.29,3.8,0,7.681,2.523,8.9,10.781-3.008,3.611-6.218,4.967-9.119,4.967" transform="translate(0.539 -365.939)" fill="#f7b359"/>
    <path id="Path_474" data-name="Path 474" d="M301.126,388c-9.646,0-18.067,6.458-18.067,17.191,0,10.887,6.8,15.823,15.526,15.823,3.676,0,8.46-2.027,12.048-5.505-.5,12.166-5.785,16.289-11.82,16.289a13.808,13.808,0,0,1-8.78-3.592l-6.264,7.1a23.257,23.257,0,0,0,16.1,6.071c11.084,0,21.635-8.717,21.635-27.806,0-18.186-10.109-25.567-20.375-25.567m.038,24.648c-4.324,0-7.28-2.218-7.28-7.457,0-5.858,3.586-8.29,7.5-8.29,3.8,0,7.681,2.523,8.9,10.781-3.008,3.611-6.218,4.967-9.119,4.967" transform="translate(-96.648 -365.939)" fill="#f7b359"/>
    <path id="Path_475" data-name="Path 475" d="M458.1,413.63v-.316c3.908-2.445,7.186-6.431,7.186-11.23,0-8.519-6.485-14.088-16.482-14.088-10.024,0-17.18,5.474-17.18,14.212,0,5.412,3.118,9.262,7.306,12.168v.316c-5.153,2.529-9.391,6.3-9.391,12.554,0,8.356,7.231,14.123,18.848,14.123,12.254,0,19.111-6.144,19.111-14.265,0-6.93-4.107-10.828-9.4-13.474m-9.573-17.408c4.467,0,7.006,2.615,7.006,6.675,0,2.657-1.158,5.2-3.673,7.581-5.833-2.012-9.809-4.12-9.809-8.271,0-4.022,2.856-5.985,6.475-5.985m.139,36.9c-4.995,0-8.837-2.634-8.837-7.207a10.073,10.073,0,0,1,4.669-8.132c7.1,2.644,11.919,4.3,11.919,8.922,0,4.376-3.191,6.417-7.75,6.417" transform="translate(-195.101 -365.939)" fill="#f7b359"/>
  </g>
</svg>
