<svg id="Layer_2" data-name="Layer 2" xmlns="http://www.w3.org/2000/svg" width="362" height="95" viewBox="0 0 362 95">
  <g id="Layer_1" data-name="Layer 1">
    <rect id="Rectangle_15" data-name="Rectangle 15" width="362" height="95" fill="#1c7c62"/>
    <path id="Path_279" data-name="Path 279" d="M110.427,155h-.5A17.075,17.075,0,0,1,96,168.924v.5a17.075,17.075,0,0,1,13.924,13.924h.5a17.075,17.075,0,0,1,13.924-13.924v-.5A17.075,17.075,0,0,1,110.427,155Z" transform="translate(-65.072 -120.564)" fill="#ec4247"/>
    <path id="Path_280" data-name="Path 280" d="M966.427,155h-.5A17.075,17.075,0,0,1,952,168.924v.5a17.075,17.075,0,0,1,13.924,13.924h.5a17.075,17.075,0,0,1,13.924-13.924v-.5A17.075,17.075,0,0,1,966.427,155Z" transform="translate(-645.299 -120.564)" fill="#ec4247"/>
    <path id="Path_488" data-name="Path 488" d="M25.341,2330.887H16.617c-3.9,2.335-7.451,3.561-14.274,4.61v7.355h11.12v29.935H0v9.577H36.665v-9.577H25.341Z" transform="translate(93.7 -2307.801)" fill="#fff"/>
    <path id="Path_489" data-name="Path 489" d="M156.528,2328c-9.646,0-18.067,6.458-18.067,17.191,0,10.887,6.8,15.823,15.526,15.823,3.676,0,8.461-2.027,12.048-5.506-.5,12.166-5.785,16.29-11.82,16.29a13.81,13.81,0,0,1-8.78-3.594l-6.264,7.1a23.262,23.262,0,0,0,16.1,6.071c11.084,0,21.635-8.718,21.635-27.806,0-18.186-10.109-25.567-20.375-25.567m.038,24.648c-4.324,0-7.28-2.218-7.28-7.457,0-5.858,3.586-8.29,7.5-8.29,3.8,0,7.681,2.523,8.9,10.781-3.008,3.611-6.218,4.966-9.119,4.966" transform="translate(0.539 -2306.263)" fill="#fff"/>
    <path id="Path_491" data-name="Path 491" d="M442.482,2371.794a18.941,18.941,0,0,1-12.129-5.03l-5.47,7.495c3.893,4.25,10.2,7.111,18.772,7.111,10.633,0,19.986-5.351,19.986-14.956,0-6.633-4.872-10.858-11.17-12.538v-.316c6-2.274,9.551-6.126,9.551-11.431,0-9.091-7.609-14.132-18.645-14.132a26.655,26.655,0,0,0-17.076,6.421l5.987,7.236c3.438-2.763,6.649-4.359,10.553-4.359,4.471,0,7.284,2.044,7.284,5.728,0,4.1-3.627,6.929-13.347,6.929v8.385c11.642,0,14.966,2.734,14.966,7.283,0,4.014-3.881,6.175-9.262,6.175" transform="translate(-192.882 -2305.858)" fill="#fff"/>
    <path id="Path_511" data-name="Path 511" d="M458.1,413.63v-.316c3.908-2.445,7.186-6.431,7.186-11.23,0-8.519-6.485-14.088-16.482-14.088-10.024,0-17.18,5.474-17.18,14.212,0,5.412,3.118,9.262,7.306,12.168v.316c-5.153,2.529-9.391,6.3-9.391,12.554,0,8.356,7.231,14.123,18.848,14.123,12.254,0,19.111-6.144,19.111-14.265,0-6.93-4.107-10.828-9.4-13.474m-9.573-17.408c4.467,0,7.006,2.615,7.006,6.675,0,2.657-1.158,5.2-3.673,7.581-5.833-2.012-9.809-4.12-9.809-8.271,0-4.022,2.856-5.985,6.475-5.985m.139,36.9c-4.995,0-8.837-2.634-8.837-7.207a10.073,10.073,0,0,1,4.669-8.132c7.1,2.644,11.919,4.3,11.919,8.922,0,4.376-3.191,6.417-7.75,6.417" transform="translate(-242.539 -366.263)" fill="#fff"/>
  </g>
</svg>
