<svg xmlns="http://www.w3.org/2000/svg" width="361" height="95" viewBox="0 0 361 95">
  <g id="Layer_2" data-name="Layer 2" transform="translate(0.28)">
    <g id="Layer_1" data-name="Layer 1" transform="translate(-0.28)">
      <rect id="Rectangle_2" data-name="Rectangle 2" width="361" height="95" fill="#ec4247"/>
      <path id="Path_10" data-name="Path 10" d="M971.589,202.642a12.449,12.449,0,0,0-4.818-13.635,12.427,12.427,0,0,0,10.892-9.379,12.411,12.411,0,0,0-6.424-.125,12.46,12.46,0,0,0-.125-6.424,12.433,12.433,0,0,0-9.379,10.859,12.433,12.433,0,0,0-13.538-4.693,12.436,12.436,0,0,0,3.1,5.621,12.413,12.413,0,0,0-5.5,3.321,12.424,12.424,0,0,0,14.21,2.637,12.436,12.436,0,0,0,2.637,14.209,12.422,12.422,0,0,0,3.321-5.5A12.439,12.439,0,0,0,971.589,202.642Z" transform="translate(-641.973 -135.412)" fill="#f7b359"/>
      <path id="Path_12" data-name="Path 12" d="M102.874,202.642a12.449,12.449,0,0,1,4.818-13.635A12.427,12.427,0,0,1,96.8,179.629a12.411,12.411,0,0,1,6.424-.125,12.459,12.459,0,0,1,.125-6.424,12.433,12.433,0,0,1,9.379,10.859,12.433,12.433,0,0,1,13.538-4.693,12.436,12.436,0,0,1-3.1,5.621,12.414,12.414,0,0,1,5.5,3.321,12.424,12.424,0,0,1-14.209,2.637,12.437,12.437,0,0,1-2.637,14.209,12.42,12.42,0,0,1-3.321-5.5A12.439,12.439,0,0,1,102.874,202.642Z" transform="translate(-65.664 -135.412)" fill="#f7b359"/>
      <path id="Path_496" data-name="Path 496" d="M25.341,3106.887H16.617c-3.9,2.337-7.451,3.562-14.274,4.611v7.355h11.12v29.936H0v9.576H36.665v-9.576H25.341Z" transform="translate(92.552 -3084.368)" fill="#f1c0ba"/>
      <path id="Path_497" data-name="Path 497" d="M156.528,3104c-9.646,0-18.067,6.459-18.067,17.192,0,10.887,6.8,15.822,15.526,15.822,3.676,0,8.461-2.027,12.048-5.5-.5,12.166-5.785,16.288-11.82,16.288a13.81,13.81,0,0,1-8.78-3.592l-6.264,7.1a23.256,23.256,0,0,0,16.1,6.071c11.084,0,21.635-8.717,21.635-27.806,0-18.185-10.109-25.567-20.375-25.567m.038,24.649c-4.324,0-7.28-2.218-7.28-7.457,0-5.859,3.586-8.291,7.5-8.291,3.8,0,7.681,2.523,8.9,10.781-3.008,3.611-6.218,4.967-9.119,4.967" transform="translate(-0.511 -3082.262)" fill="#f1c0ba"/>
      <path id="Path_499" data-name="Path 499" d="M433.793,3148.789v9.576h36.664v-9.576H459.134v-41.9H450.41c-3.9,2.337-7.451,3.561-14.274,4.611v7.355h11.121v29.936Z" transform="translate(-199.01 -3084.368)" fill="#f1c0ba"/>
      <path id="Path_513" data-name="Path 513" d="M458.1,413.63v-.316c3.908-2.445,7.186-6.431,7.186-11.23,0-8.519-6.485-14.088-16.482-14.088-10.024,0-17.18,5.474-17.18,14.212,0,5.412,3.118,9.262,7.306,12.168v.316c-5.153,2.529-9.391,6.3-9.391,12.554,0,8.356,7.231,14.123,18.848,14.123,12.254,0,19.111-6.144,19.111-14.265,0-6.93-4.107-10.828-9.4-13.474m-9.573-17.408c4.467,0,7.006,2.615,7.006,6.675,0,2.657-1.158,5.2-3.673,7.581-5.833-2.012-9.809-4.12-9.809-8.271,0-4.022,2.856-5.985,6.475-5.985m.139,36.9c-4.995,0-8.837-2.634-8.837-7.207a10.073,10.073,0,0,1,4.669-8.132c7.1,2.644,11.919,4.3,11.919,8.922,0,4.376-3.191,6.417-7.75,6.417" transform="translate(-242.539 -366.263)" fill="#f1c0ba"/>
    </g>
  </g>
</svg>
