<svg xmlns="http://www.w3.org/2000/svg" width="361" height="95" viewBox="0 0 361 95">
  <g id="Layer_2" data-name="Layer 2" transform="translate(0.067)">
    <g id="Layer_1" data-name="Layer 1" transform="translate(-0.067)">
      <rect id="Rectangle_3" data-name="Rectangle 3" width="361" height="95" fill="#f7b359"/>
      <path id="Path_13" data-name="Path 13" d="M285.868,164c14.026-11.74,23.447-20.27,23.447-27.423,0-5.293-2.939-8.161-7.988-8.161-3.883,0-7.031,2.4-9.8,4.966l-6.231-6.273c5.139-5.21,10.069-7.8,17.621-7.8,10.374,0,17.447,6.562,17.447,16.612,0,8.351-8.412,17.344-17.823,25.538,2.785-.292,6.389-.562,8.919-.562H322.9v9.771H285.868Z" transform="translate(-194.067 -96.31)" fill="#ec4247"/>
      <path id="Path_14" data-name="Path 14" d="M431.19,145.24c0-17.2,7.551-25.91,18.95-25.91s18.95,8.707,18.95,25.91c0,17.129-7.554,26.376-18.95,26.376S431.19,162.363,431.19,145.24Zm27.558,0c0-13.169-3.822-16.917-8.6-16.917s-8.6,3.748-8.6,16.917,3.822,17.383,8.6,17.383,8.608-4.214,8.608-17.383Z" transform="translate(-293.099 -96.33)" fill="#ec4247"/>
      <circle id="Ellipse_5" data-name="Ellipse 5" cx="6.877" cy="6.877" r="6.877" transform="translate(310.189 43.507)" fill="#efdcda"/>
      <circle id="Ellipse_6" data-name="Ellipse 6" cx="6.877" cy="6.877" r="6.877" transform="translate(39.874 42.993)" fill="#efdcda"/>
      <path id="Path_421" data-name="Path 421" d="M720.38,145.24c0-17.2,7.555-25.91,18.95-25.91s18.95,8.707,18.95,25.91c0,17.129-7.554,26.376-18.95,26.376S720.38,162.363,720.38,145.24Zm27.561,0c0-13.169-3.825-16.917-8.6-16.917s-8.6,3.748-8.6,16.917,3.822,17.383,8.6,17.383S747.941,158.409,747.941,145.24Z" transform="translate(-535.541 -96.33)" fill="#ec4247"/>
      <path id="Path_422" data-name="Path 422" d="M719.672,164c14.026-11.74,23.447-20.27,23.447-27.423,0-5.293-2.936-8.161-7.988-8.161-3.883,0-7.031,2.4-9.793,4.966l-6.228-6.273c5.139-5.21,10.069-7.8,17.62-7.8,10.378,0,17.447,6.562,17.447,16.612,0,8.351-8.409,17.344-17.82,25.538,2.785-.292,6.385-.562,8.916-.562h11.438v9.771h-37.04Z" transform="translate(-488.093 -96.31)" fill="#ec4247"/>
    </g>
  </g>
</svg>
