<svg xmlns="http://www.w3.org/2000/svg" width="361" height="125" viewBox="0 0 361 125">
  <g id="Layer_2" data-name="Layer 2" transform="translate(0.455)">
    <g id="Layer_1" data-name="Layer 1" transform="translate(0)">
      <rect id="Rectangle_10" data-name="Rectangle 10" width="361" height="125" transform="translate(-0.455)" fill="#ec4247"/>
      <path id="Path_49" data-name="Path 49" d="M285.868,164c14.026-11.74,23.447-20.27,23.447-27.423,0-5.293-2.939-8.161-7.988-8.161-3.883,0-7.031,2.4-9.8,4.966l-6.231-6.273c5.139-5.21,10.069-7.8,17.621-7.8,10.374,0,17.447,6.562,17.447,16.612,0,8.351-8.412,17.344-17.823,25.538,2.785-.292,6.389-.562,8.919-.562H322.9v9.771H285.868Z" transform="translate(-193.659 -80.989)" fill="#fff"/>
      <path id="Path_50" data-name="Path 50" d="M431.19,145.24c0-17.2,7.551-25.91,18.95-25.91s18.95,8.707,18.95,25.91c0,17.129-7.554,26.376-18.95,26.376S431.19,162.363,431.19,145.24Zm27.558,0c0-13.169-3.822-16.917-8.6-16.917s-8.6,3.748-8.6,16.917,3.822,17.383,8.6,17.383,8.608-4.214,8.608-17.383Z" transform="translate(-292.691 -81.002)" fill="#fff"/>
      <path id="Path_51" data-name="Path 51" d="M575.072,164c14.03-11.74,23.447-20.27,23.447-27.423,0-5.293-2.939-8.161-7.991-8.161-3.883,0-7.031,2.4-9.793,4.966l-6.225-6.273c5.139-5.21,10.069-7.8,17.621-7.8,10.378,0,17.447,6.562,17.447,16.612,0,8.351-8.409,17.344-17.82,25.538,2.785-.292,6.385-.562,8.919-.562h11.434v9.771h-37.04Z" transform="translate(-389.978 -80.989)" fill="#fff"/>
      <path id="Path_52" data-name="Path 52" d="M720.38,145.24c0-17.2,7.555-25.91,18.95-25.91s18.95,8.707,18.95,25.91c0,17.129-7.554,26.376-18.95,26.376S720.38,162.363,720.38,145.24Zm27.561,0c0-13.169-3.825-16.917-8.6-16.917s-8.6,3.748-8.6,16.917,3.822,17.383,8.6,17.383S747.941,158.409,747.941,145.24Z" transform="translate(-488.996 -81.002)" fill="#fff"/>
      <path id="Path_54" data-name="Path 54" d="M971.589,177.642a12.449,12.449,0,0,0-4.818-13.635,12.427,12.427,0,0,0,10.892-9.379,12.411,12.411,0,0,0-6.424-.125,12.46,12.46,0,0,0-.125-6.424,12.433,12.433,0,0,0-9.379,10.859,12.433,12.433,0,0,0-13.538-4.693,12.435,12.435,0,0,0,3.1,5.621,12.415,12.415,0,0,0-5.5,3.321,12.424,12.424,0,0,0,14.21,2.637,12.436,12.436,0,0,0,2.637,14.209,12.421,12.421,0,0,0,3.321-5.5A12.439,12.439,0,0,0,971.589,177.642Z" transform="translate(-642.013 -100.518)" fill="#0e4435"/>
      <path id="Path_56" data-name="Path 56" d="M102.874,177.642a12.449,12.449,0,0,1,4.818-13.635A12.427,12.427,0,0,1,96.8,154.629a12.411,12.411,0,0,1,6.424-.125,12.459,12.459,0,0,1,.125-6.424,12.433,12.433,0,0,1,9.379,10.859,12.433,12.433,0,0,1,13.538-4.693,12.436,12.436,0,0,1-3.1,5.621,12.414,12.414,0,0,1,5.5,3.321,12.424,12.424,0,0,1-14.209,2.637,12.436,12.436,0,0,1-2.637,14.209,12.42,12.42,0,0,1-3.321-5.5A12.439,12.439,0,0,1,102.874,177.642Z" transform="translate(-65.704 -100.518)" fill="#0e4435"/>
    </g>
  </g>
</svg>
