<svg xmlns="http://www.w3.org/2000/svg" width="363" height="95" viewBox="0 0 363 95">
  <g id="Layer_2" data-name="Layer 2" transform="translate(0.307)">
    <g id="Layer_1" data-name="Layer 1" transform="translate(-0.307)">
      <rect id="Rectangle_6" data-name="Rectangle 6" width="363" height="95" fill="#0e4435"/>
      <path id="Path_29" data-name="Path 29" d="M285.868,164c14.026-11.74,23.447-20.27,23.447-27.423,0-5.293-2.939-8.161-7.988-8.161-3.883,0-7.031,2.4-9.8,4.966l-6.231-6.273c5.139-5.21,10.069-7.8,17.621-7.8,10.374,0,17.447,6.562,17.447,16.612,0,8.351-8.412,17.344-17.823,25.538,2.785-.292,6.389-.562,8.919-.562H322.9v9.771H285.868Z" transform="translate(-192.412 -96.6)" fill="#1c7c62"/>
      <path id="Path_30" data-name="Path 30" d="M431.19,145.24c0-17.2,7.551-25.91,18.95-25.91s18.95,8.707,18.95,25.91c0,17.129-7.554,26.376-18.95,26.376S431.19,162.363,431.19,145.24Zm27.558,0c0-13.169-3.822-16.917-8.6-16.917s-8.6,3.748-8.6,16.917,3.822,17.383,8.6,17.383,8.608-4.214,8.608-17.383Z" transform="translate(-291.443 -96.33)" fill="#1c7c62"/>
      <circle id="Ellipse_9" data-name="Ellipse 9" cx="6.877" cy="6.877" r="6.877" transform="translate(307.026 42.568)" fill="#f7b359"/>
      <circle id="Ellipse_10" data-name="Ellipse 10" cx="6.877" cy="6.877" r="6.877" transform="translate(36.712 42.055)" fill="#f7b359"/>
      <path id="Path_415" data-name="Path 415" d="M720.38,145.24c0-17.2,7.555-25.91,18.95-25.91s18.95,8.707,18.95,25.91c0,17.129-7.554,26.376-18.95,26.376S720.38,162.363,720.38,145.24Zm27.561,0c0-13.169-3.825-16.917-8.6-16.917s-8.6,3.748-8.6,16.917,3.822,17.383,8.6,17.383S747.941,158.409,747.941,145.24Z" transform="translate(-532.541 -96.33)" fill="#1c7c62"/>
      <path id="Path_416" data-name="Path 416" d="M718,166.626l5.235-7.895c3.331,2.846,6.944,5.415,11.476,5.415,5.541,0,9.359-2.676,9.359-7.863,0-5.036-3.745-7.75-8.8-7.75-3.212,0-4.882.613-8.19,2.489l-5.161-3.337,1.333-25.515h30.227v9.771H733.3l-.787,9.591a17.609,17.609,0,0,1,6.321-1.076c9.035,0,16.895,4.876,16.895,15.536,0,11.168-9.177,17.537-19.323,17.537C727.87,173.538,722.1,170.5,718,166.626Z" transform="translate(-484.684 -98.17)" fill="#1c7c62"/>
    </g>
  </g>
</svg>
