<svg xmlns="http://www.w3.org/2000/svg" width="363" height="95" viewBox="0 0 363 95">
  <g id="Layer_2" data-name="Layer 2" transform="translate(0.094)">
    <g id="Layer_1" data-name="Layer 1" transform="translate(-0.094)">
      <rect id="Rectangle_7" data-name="Rectangle 7" width="363" height="95" fill="#f7b359"/>
      <path id="Path_33" data-name="Path 33" d="M285.868,164c14.026-11.74,23.447-20.27,23.447-27.423,0-5.293-2.939-8.161-7.988-8.161-3.883,0-7.031,2.4-9.8,4.966l-6.231-6.273c5.139-5.21,10.069-7.8,17.621-7.8,10.374,0,17.447,6.562,17.447,16.612,0,8.351-8.412,17.344-17.823,25.538,2.785-.292,6.389-.562,8.919-.562H322.9v9.771H285.868Z" transform="translate(-192.86 -96.6)" fill="#0e4435"/>
      <path id="Path_34" data-name="Path 34" d="M431.19,145.24c0-17.2,7.551-25.91,18.95-25.91s18.95,8.707,18.95,25.91c0,17.129-7.554,26.376-18.95,26.376S431.19,162.363,431.19,145.24Zm27.558,0c0-13.169-3.822-16.917-8.6-16.917s-8.6,3.748-8.6,16.917,3.822,17.383,8.6,17.383,8.608-4.214,8.608-17.383Z" transform="translate(-291.892 -96.33)" fill="#0e4435"/>
      <path id="Path_38" data-name="Path 38" d="M971.589,196.642a12.449,12.449,0,0,0-4.818-13.635,12.427,12.427,0,0,0,10.892-9.379,12.411,12.411,0,0,0-6.424-.125,12.46,12.46,0,0,0-.125-6.424,12.433,12.433,0,0,0-9.379,10.859,12.433,12.433,0,0,0-13.538-4.693,12.436,12.436,0,0,0,3.1,5.621,12.413,12.413,0,0,0-5.5,3.321,12.424,12.424,0,0,0,14.21,2.637,12.436,12.436,0,0,0,2.637,14.209,12.422,12.422,0,0,0,3.321-5.5A12.439,12.439,0,0,0,971.589,196.642Z" transform="translate(-641.214 -130.718)" fill="#ec4247"/>
      <path id="Path_40" data-name="Path 40" d="M102.874,196.642a12.449,12.449,0,0,1,4.818-13.635A12.427,12.427,0,0,1,96.8,173.629a12.41,12.41,0,0,1,6.424-.125,12.459,12.459,0,0,1,.125-6.424,12.433,12.433,0,0,1,9.379,10.859,12.433,12.433,0,0,1,13.538-4.693,12.436,12.436,0,0,1-3.1,5.621,12.414,12.414,0,0,1,5.5,3.321,12.424,12.424,0,0,1-14.209,2.637,12.436,12.436,0,0,1-2.637,14.209,12.42,12.42,0,0,1-3.321-5.5A12.44,12.44,0,0,1,102.874,196.642Z" transform="translate(-64.905 -130.718)" fill="#ec4247"/>
      <path id="Path_413" data-name="Path 413" d="M720.38,145.24c0-17.2,7.555-25.91,18.95-25.91s18.95,8.707,18.95,25.91c0,17.129-7.554,26.376-18.95,26.376S720.38,162.363,720.38,145.24Zm27.561,0c0-13.169-3.825-16.917-8.6-16.917s-8.6,3.748-8.6,16.917,3.822,17.383,8.6,17.383S747.941,158.409,747.941,145.24Z" transform="translate(-534.541 -96.33)" fill="#0e4435"/>
      <path id="Path_414" data-name="Path 414" d="M721.46,146.55c0-18.8,10.32-27.24,21.2-27.24a22.768,22.768,0,0,1,15.767,5.948l-6.135,6.951a13.517,13.517,0,0,0-8.6-3.517c-6.234,0-11.621,4.439-11.621,17.858,0,12.674,4.583,16.326,9.1,16.326,3.816,0,7.326-2.383,7.326-8.123,0-5.139-2.891-7.3-7.111-7.3-2.952,0-6.212,1.407-9.241,5.21l-.524-7.548c3.575-3.713,8.508-5.855,12.269-5.855,8.55,0,15.231,4.853,15.231,15.5,0,10.5-8.248,16.843-17.717,16.843C731.346,171.6,721.46,164.347,721.46,146.55Z" transform="translate(-489.481 -96.31)" fill="#0e4435"/>
    </g>
  </g>
</svg>
