<svg id="Layer_2" data-name="Layer 2" xmlns="http://www.w3.org/2000/svg" width="362" height="95" viewBox="0 0 362 95">
  <g id="Layer_1" data-name="Layer 1">
    <rect id="Rectangle_15" data-name="Rectangle 15" width="362" height="95" fill="#1c7c62"/>
    <path id="Path_275" data-name="Path 275" d="M285.87,164.139c14.069-11.775,23.518-20.332,23.518-27.506,0-5.309-2.948-8.186-8.012-8.186-3.895,0-7.052,2.407-9.826,4.981l-6.25-6.292c5.155-5.226,10.1-7.825,17.674-7.825,10.406,0,17.5,6.582,17.5,16.662,0,8.376-8.437,17.4-17.877,25.615,2.793-.293,6.408-.564,8.947-.564h11.472v9.8H285.87Z" transform="translate(-193.386 -96.564)" fill="#fff"/>
    <path id="Path_276" data-name="Path 276" d="M431.19,145.319c0-17.255,7.574-25.989,19.008-25.989s19.008,8.734,19.008,25.989c0,17.181-7.577,26.456-19.008,26.456S431.19,162.494,431.19,145.319Zm27.642,0c0-13.209-3.834-16.968-8.631-16.968s-8.631,3.76-8.631,16.968,3.834,17.436,8.631,17.436,8.634-4.227,8.634-17.436Z" transform="translate(-292.276 -96.33)" fill="#fff"/>
    <path id="Path_279" data-name="Path 279" d="M110.427,155h-.5A17.075,17.075,0,0,1,96,168.924v.5a17.075,17.075,0,0,1,13.924,13.924h.5a17.075,17.075,0,0,1,13.924-13.924v-.5A17.075,17.075,0,0,1,110.427,155Z" transform="translate(-65.072 -120.564)" fill="#ec4247"/>
    <path id="Path_280" data-name="Path 280" d="M966.427,155h-.5A17.075,17.075,0,0,1,952,168.924v.5a17.075,17.075,0,0,1,13.924,13.924h.5a17.075,17.075,0,0,1,13.924-13.924v-.5A17.075,17.075,0,0,1,966.427,155Z" transform="translate(-645.299 -120.564)" fill="#ec4247"/>
    <path id="Path_419" data-name="Path 419" d="M720.38,145.24c0-17.2,7.555-25.91,18.95-25.91s18.95,8.707,18.95,25.91c0,17.129-7.554,26.376-18.95,26.376S720.38,162.363,720.38,145.24Zm27.561,0c0-13.169-3.825-16.917-8.6-16.917s-8.6,3.748-8.6,16.917,3.822,17.383,8.6,17.383S747.941,158.409,747.941,145.24Z" transform="translate(-535.541 -96.33)" fill="#fff"/>
    <path id="Path_420" data-name="Path 420" d="M717,164.63l5.358-7.342a18.557,18.557,0,0,0,11.884,4.927c5.271,0,9.073-2.117,9.073-6.048,0-4.458-3.257-7.137-14.659-7.137v-8.213c9.52,0,13.073-2.775,13.073-6.787,0-3.607-2.756-5.611-7.134-5.611-3.825,0-6.97,1.564-10.339,4.272l-5.865-7.089a26.138,26.138,0,0,1,16.728-6.292c10.811,0,18.266,4.937,18.266,13.847,0,5.2-3.475,8.968-9.356,11.2v.321c6.17,1.648,10.94,5.781,10.94,12.282,0,9.408-9.16,14.653-19.593,14.653C726.992,171.6,720.816,168.793,717,164.63Z" transform="translate(-488.109 -96.31)" fill="#fff"/>
  </g>
</svg>
