<svg id="Layer_2" data-name="Layer 2" xmlns="http://www.w3.org/2000/svg" width="362" height="95" viewBox="0 0 362 95">
  <g id="Layer_1" data-name="Layer 1">
    <rect id="Rectangle_15" data-name="Rectangle 15" width="362" height="95" fill="#1c7c62"/>
    <path id="Path_275" data-name="Path 275" d="M285.87,164.139c14.069-11.775,23.518-20.332,23.518-27.506,0-5.309-2.948-8.186-8.012-8.186-3.895,0-7.052,2.407-9.826,4.981l-6.25-6.292c5.155-5.226,10.1-7.825,17.674-7.825,10.406,0,17.5,6.582,17.5,16.662,0,8.376-8.437,17.4-17.877,25.615,2.793-.293,6.408-.564,8.947-.564h11.472v9.8H285.87Z" transform="translate(-193.386 -96.564)" fill="#fff"/>
    <path id="Path_276" data-name="Path 276" d="M431.19,145.319c0-17.255,7.574-25.989,19.008-25.989s19.008,8.734,19.008,25.989c0,17.181-7.577,26.456-19.008,26.456S431.19,162.494,431.19,145.319Zm27.642,0c0-13.209-3.834-16.968-8.631-16.968s-8.631,3.76-8.631,16.968,3.834,17.436,8.631,17.436,8.634-4.227,8.634-17.436Z" transform="translate(-292.276 -96.782)" fill="#fff"/>
    <path id="Path_277" data-name="Path 277" d="M581.32,163.373h13.228V133.959H583.623v-7.226c6.7-1.031,10.193-2.236,14.024-4.533h8.573v41.173h11.124v9.41H581.32Z" transform="translate(-394.039 -98.702)" fill="#fff"/>
    <path id="Path_278" data-name="Path 278" d="M739.066,143.17c.019-3.283.274-7.874.428-11.14h-.274c-1.63,2.9-3.669,5.8-5.438,8.647l-7.165,10.892H756.1v8.882H715.4v-8.086L735.8,122.2h14.133v50.58h-10.87Z" transform="translate(-484.923 -98.702)" fill="#fff"/>
    <path id="Path_279" data-name="Path 279" d="M110.427,155h-.5A17.075,17.075,0,0,1,96,168.924v.5a17.075,17.075,0,0,1,13.924,13.924h.5a17.075,17.075,0,0,1,13.924-13.924v-.5A17.075,17.075,0,0,1,110.427,155Z" transform="translate(-65.072 -120.564)" fill="#ec4247"/>
    <path id="Path_280" data-name="Path 280" d="M966.427,155h-.5A17.075,17.075,0,0,1,952,168.924v.5a17.075,17.075,0,0,1,13.924,13.924h.5a17.075,17.075,0,0,1,13.924-13.924v-.5A17.075,17.075,0,0,1,966.427,155Z" transform="translate(-645.299 -120.564)" fill="#ec4247"/>
  </g>
</svg>
