<svg xmlns="http://www.w3.org/2000/svg" width="360" height="95" viewBox="0 0 360 95">
  <g id="Layer_2" data-name="Layer 2" transform="translate(-0.359)">
    <g id="Layer_1" data-name="Layer 1" transform="translate(0.359)">
      <rect id="Rectangle_5" data-name="Rectangle 5" width="360" height="95" fill="#ec4247"/>
      <path id="Path_21" data-name="Path 21" d="M285.868,164c14.026-11.74,23.447-20.27,23.447-27.423,0-5.293-2.939-8.161-7.988-8.161-3.883,0-7.031,2.4-9.8,4.966l-6.231-6.273c5.139-5.21,10.069-7.8,17.621-7.8,10.374,0,17.447,6.562,17.447,16.612,0,8.351-8.412,17.344-17.823,25.538,2.785-.292,6.389-.562,8.919-.562H322.9v9.771H285.868Z" transform="translate(-194.964 -96.6)" fill="#f7b359"/>
      <path id="Path_22" data-name="Path 22" d="M431.19,145.24c0-17.2,7.551-25.91,18.95-25.91s18.95,8.707,18.95,25.91c0,17.129-7.554,26.376-18.95,26.376S431.19,162.363,431.19,145.24Zm27.558,0c0-13.169-3.822-16.917-8.6-16.917s-8.6,3.748-8.6,16.917,3.822,17.383,8.6,17.383,8.608-4.214,8.608-17.383Z" transform="translate(-293.995 -96.816)" fill="#f7b359"/>
      <path id="Path_23" data-name="Path 23" d="M581.32,163.248h13.188V133.924H583.617v-7.2c6.684-1.028,10.162-2.229,13.981-4.519h8.547v41.048h11.091v9.382H581.32Z" transform="translate(-395.905 -98.741)" fill="#f7b359"/>
      <path id="Path_24" data-name="Path 24" d="M718,166.626l5.235-7.895c3.331,2.846,6.944,5.415,11.476,5.415,5.541,0,9.359-2.676,9.359-7.863,0-5.036-3.745-7.75-8.8-7.75-3.212,0-4.882.613-8.19,2.489l-5.161-3.337,1.333-25.515h30.227v9.771H733.3l-.787,9.591a17.609,17.609,0,0,1,6.321-1.076c9.035,0,16.895,4.876,16.895,15.536,0,11.168-9.177,17.537-19.323,17.537C727.87,173.538,722.1,170.5,718,166.626Z" transform="translate(-488.684 -98.916)" fill="#f7b359"/>
      <path id="Path_26" data-name="Path 26" d="M971.589,183.642a12.449,12.449,0,0,0-4.818-13.635,12.427,12.427,0,0,0,10.892-9.379,12.411,12.411,0,0,0-6.424-.125,12.46,12.46,0,0,0-.125-6.424,12.433,12.433,0,0,0-9.379,10.859,12.433,12.433,0,0,0-13.538-4.693,12.435,12.435,0,0,0,3.1,5.621,12.415,12.415,0,0,0-5.5,3.321,12.424,12.424,0,0,0,14.21,2.637,12.436,12.436,0,0,0,2.637,14.209,12.422,12.422,0,0,0,3.321-5.5A12.438,12.438,0,0,0,971.589,183.642Z" transform="translate(-643.317 -120.547)" fill="#0e4435"/>
      <path id="Path_28" data-name="Path 28" d="M102.874,183.642a12.449,12.449,0,0,1,4.818-13.635A12.427,12.427,0,0,1,96.8,160.629a12.411,12.411,0,0,1,6.424-.125,12.459,12.459,0,0,1,.125-6.424,12.433,12.433,0,0,1,9.379,10.859,12.433,12.433,0,0,1,13.538-4.693,12.436,12.436,0,0,1-3.1,5.621,12.415,12.415,0,0,1,5.5,3.321,12.424,12.424,0,0,1-14.209,2.637,12.436,12.436,0,0,1-2.637,14.209,12.42,12.42,0,0,1-3.321-5.5A12.44,12.44,0,0,1,102.874,183.642Z" transform="translate(-67.008 -120.547)" fill="#0e4435"/>
    </g>
  </g>
</svg>
