<svg xmlns="http://www.w3.org/2000/svg" width="361" height="95" viewBox="0 0 361 95">
  <g id="Layer_2" data-name="Layer 2" transform="translate(0.493)">
    <g id="Layer_1" data-name="Layer 1" transform="translate(-0.493)">
      <rect id="Rectangle_1" data-name="Rectangle 1" width="361" height="95" fill="#f1c0ba"/>
      <path id="Path_1" data-name="Path 1" d="M285.868,164c14.026-11.74,23.447-20.27,23.447-27.423,0-5.293-2.939-8.161-7.988-8.161-3.883,0-7.031,2.4-9.8,4.966l-6.231-6.273c5.139-5.21,10.069-7.8,17.621-7.8,10.374,0,17.447,6.562,17.447,16.612,0,8.351-8.412,17.344-17.823,25.538,2.785-.292,6.389-.562,8.919-.562H322.9v9.771H285.868Z" transform="translate(-193.171 -96.6)" fill="#0e4435"/>
      <path id="Path_2" data-name="Path 2" d="M431.19,145.24c0-17.2,7.551-25.91,18.95-25.91s18.95,8.707,18.95,25.91c0,17.129-7.554,26.376-18.95,26.376S431.19,162.363,431.19,145.24Zm27.558,0c0-13.169-3.822-16.917-8.6-16.917s-8.6,3.748-8.6,16.917,3.822,17.383,8.6,17.383,8.608-4.214,8.608-17.383Z" transform="translate(-292.203 -96.33)" fill="#0e4435"/>
      <path id="Path_4" data-name="Path 4" d="M725.92,163.248h13.195V133.924h-10.9v-7.2c6.684-1.028,10.166-2.229,13.985-4.519h8.547v41.048h11.091v9.382H725.92Z" transform="translate(-492.268 -98.741)" fill="#0e4435"/>
      <circle id="Ellipse_1" data-name="Ellipse 1" cx="6.877" cy="6.877" r="6.877" transform="translate(306.267 43.976)" fill="#ec4247"/>
      <circle id="Ellipse_2" data-name="Ellipse 2" cx="6.877" cy="6.877" r="6.877" transform="translate(35.953 43.462)" fill="#ec4247"/>
    </g>
    <path id="Path_425" data-name="Path 425" d="M720.38,145.24c0-17.2,7.555-25.91,18.95-25.91s18.95,8.707,18.95,25.91c0,17.129-7.554,26.376-18.95,26.376S720.38,162.363,720.38,145.24Zm27.561,0c0-13.169-3.825-16.917-8.6-16.917s-8.6,3.748-8.6,16.917,3.822,17.383,8.6,17.383S747.941,158.409,747.941,145.24Z" transform="translate(-536.034 -96.33)" fill="#0e4435"/>
  </g>
</svg>
