<svg id="Layer_2" data-name="Layer 2" xmlns="http://www.w3.org/2000/svg" width="362" height="125" viewBox="0 0 362 125">
  <g id="Layer_1" data-name="Layer 1">
    <rect id="Rectangle_16" data-name="Rectangle 16" width="362" height="125" fill="#1c7c62"/>
    <path id="Path_281" data-name="Path 281" d="M285.87,164.139c14.069-11.775,23.518-20.332,23.518-27.506,0-5.309-2.948-8.186-8.012-8.186-3.895,0-7.052,2.407-9.826,4.981l-6.25-6.292c5.155-5.226,10.1-7.825,17.674-7.825,10.406,0,17.5,6.582,17.5,16.662,0,8.376-8.437,17.4-17.877,25.615,2.793-.293,6.408-.564,8.947-.564h11.472v9.8H285.87Z" transform="translate(-193.386 -80.872)" fill="#f7b359"/>
    <path id="Path_282" data-name="Path 282" d="M431.19,145.319c0-17.255,7.574-25.989,19.008-25.989s19.008,8.734,19.008,25.989c0,17.181-7.577,26.456-19.008,26.456S431.19,162.494,431.19,145.319Zm27.642,0c0-13.209-3.834-16.968-8.631-16.968s-8.631,3.76-8.631,16.968,3.834,17.436,8.631,17.436,8.634-4.227,8.634-17.436Z" transform="translate(-292.276 -80.886)" fill="#f7b359"/>
    <path id="Path_283" data-name="Path 283" d="M581.32,163.373h13.228V133.959H583.623v-7.226c6.7-1.031,10.193-2.236,14.024-4.533h8.573v41.173h11.124v9.41H581.32Z" transform="translate(-394.039 -82.831)" fill="#f7b359"/>
    <path id="Path_284" data-name="Path 284" d="M720.476,165.789l6.157-6.972a13.567,13.567,0,0,0,8.628,3.528c6.234,0,11.656-4.472,11.656-17.912,0-12.774-4.62-16.376-9.13-16.376-3.847,0-7.368,2.39-7.368,8.144,0,5.155,2.9,7.329,7.152,7.329,2.941,0,6.211-1.414,9.249-5.226l.525,7.571c-3.566,3.7-8.534,5.873-12.31,5.873-8.573,0-15.255-4.849-15.255-15.548,0-10.544,8.273-16.891,17.751-16.891,10.087,0,20.023,7.252,20.023,25.129,0,18.756-10.37,27.323-21.263,27.323A22.881,22.881,0,0,1,720.476,165.789Z" transform="translate(-487.892 -80.873)" fill="#f7b359"/>
    <path id="Path_285" data-name="Path 285" d="M109.427,155h-.5A17.075,17.075,0,0,1,95,168.924v.5a17.075,17.075,0,0,1,13.924,13.924h.5a17.075,17.075,0,0,1,13.924-13.924v-.5A17.075,17.075,0,0,1,109.427,155Z" transform="translate(-64.394 -105.064)" fill="#ec4247"/>
    <path id="Path_286" data-name="Path 286" d="M965.427,155h-.5A17.075,17.075,0,0,1,951,168.924v.5a17.075,17.075,0,0,1,13.924,13.924h.5a17.075,17.075,0,0,1,13.924-13.924v-.5A17.075,17.075,0,0,1,965.427,155Z" transform="translate(-644.621 -105.064)" fill="#ec4247"/>
  </g>
</svg>
