<svg xmlns="http://www.w3.org/2000/svg" width="363" height="95" viewBox="0 0 363 95">
  <g id="Layer_2" data-name="Layer 2" transform="translate(-0.119)">
    <g id="Layer_1" data-name="Layer 1" transform="translate(0.119)">
      <path id="Path_287" data-name="Path 287" d="M0,0H363V95H0Z" fill="#f1c0ba"/>
      <path id="Path_41" data-name="Path 41" d="M285.868,164c14.026-11.74,23.447-20.27,23.447-27.423,0-5.293-2.939-8.161-7.988-8.161-3.883,0-7.031,2.4-9.8,4.966l-6.231-6.273c5.139-5.21,10.069-7.8,17.621-7.8,10.374,0,17.447,6.562,17.447,16.612,0,8.351-8.412,17.344-17.823,25.538,2.785-.292,6.389-.562,8.919-.562H322.9v9.771H285.868Z" transform="translate(-193.308 -96.31)" fill="#ec4247"/>
      <path id="Path_42" data-name="Path 42" d="M431.19,145.24c0-17.2,7.551-25.91,18.95-25.91s18.95,8.707,18.95,25.91c0,17.129-7.554,26.376-18.95,26.376S431.19,162.363,431.19,145.24Zm27.558,0c0-13.169-3.822-16.917-8.6-16.917s-8.6,3.748-8.6,16.917,3.822,17.383,8.6,17.383,8.608-4.214,8.608-17.383Z" transform="translate(-292.34 -96.33)" fill="#ec4247"/>
      <circle id="Ellipse_13" data-name="Ellipse 13" cx="6.877" cy="6.877" r="6.877" transform="translate(310.948 42.099)" fill="#1c7c62"/>
      <circle id="Ellipse_14" data-name="Ellipse 14" cx="6.877" cy="6.877" r="6.877" transform="translate(40.633 41.585)" fill="#1c7c62"/>
      <path id="Path_411" data-name="Path 411" d="M720.38,145.24c0-17.2,7.555-25.91,18.95-25.91s18.95,8.707,18.95,25.91c0,17.129-7.554,26.376-18.95,26.376S720.38,162.363,720.38,145.24Zm27.561,0c0-13.169-3.825-16.917-8.6-16.917s-8.6,3.748-8.6,16.917,3.822,17.383,8.6,17.383S747.941,158.409,747.941,145.24Z" transform="translate(-534.541 -96.33)" fill="#ec4247"/>
      <path id="Path_412" data-name="Path 412" d="M746.475,131.971H722V122.2h36.979v7.169c-12.671,13.885-14.322,23.524-15.272,43.261H732C732.965,155.793,736.014,145.123,746.475,131.971Z" transform="translate(-489.296 -98.2)" fill="#ec4247"/>
    </g>
  </g>
</svg>
