<svg xmlns="http://www.w3.org/2000/svg" width="361" height="95" viewBox="0 0 361 95">
  <g id="Layer_2" data-name="Layer 2" transform="translate(0.455)">
    <g id="Layer_1" data-name="Layer 1" transform="translate(-0.455)">
      <rect id="Rectangle_10" data-name="Rectangle 10" width="361" height="95" transform="translate(0)" fill="#ec4247"/>
      <path id="Path_49" data-name="Path 49" d="M285.868,164c14.026-11.74,23.447-20.27,23.447-27.423,0-5.293-2.939-8.161-7.988-8.161-3.883,0-7.031,2.4-9.8,4.966l-6.231-6.273c5.139-5.21,10.069-7.8,17.621-7.8,10.374,0,17.447,6.562,17.447,16.612,0,8.351-8.412,17.344-17.823,25.538,2.785-.292,6.389-.562,8.919-.562H322.9v9.771H285.868Z" transform="translate(-193.205 -96.707)" fill="#fff"/>
      <path id="Path_50" data-name="Path 50" d="M431.19,145.24c0-17.2,7.551-25.91,18.95-25.91s18.95,8.707,18.95,25.91c0,17.129-7.554,26.376-18.95,26.376S431.19,162.363,431.19,145.24Zm27.558,0c0-13.169-3.822-16.917-8.6-16.917s-8.6,3.748-8.6,16.917,3.822,17.383,8.6,17.383,8.608-4.214,8.608-17.383Z" transform="translate(-292.236 -96.924)" fill="#fff"/>
      <path id="Path_52" data-name="Path 52" d="M720.38,145.24c0-17.2,7.555-25.91,18.95-25.91s18.95,8.707,18.95,25.91c0,17.129-7.554,26.376-18.95,26.376S720.38,162.363,720.38,145.24Zm27.561,0c0-13.169-3.825-16.917-8.6-16.917s-8.6,3.748-8.6,16.917,3.822,17.383,8.6,17.383S747.941,158.409,747.941,145.24Z" transform="translate(-533.541 -96.924)" fill="#fff"/>
      <path id="Path_54" data-name="Path 54" d="M971.589,177.642a12.449,12.449,0,0,0-4.818-13.635,12.427,12.427,0,0,0,10.892-9.379,12.411,12.411,0,0,0-6.424-.125,12.46,12.46,0,0,0-.125-6.424,12.433,12.433,0,0,0-9.379,10.859,12.433,12.433,0,0,0-13.538-4.693,12.435,12.435,0,0,0,3.1,5.621,12.415,12.415,0,0,0-5.5,3.321,12.424,12.424,0,0,0,14.21,2.637,12.436,12.436,0,0,0,2.637,14.209,12.421,12.421,0,0,0,3.321-5.5A12.439,12.439,0,0,0,971.589,177.642Z" transform="translate(-641.558 -115.958)" fill="#0e4435"/>
      <path id="Path_56" data-name="Path 56" d="M102.874,177.642a12.449,12.449,0,0,1,4.818-13.635A12.427,12.427,0,0,1,96.8,154.629a12.411,12.411,0,0,1,6.424-.125,12.459,12.459,0,0,1,.125-6.424,12.433,12.433,0,0,1,9.379,10.859,12.433,12.433,0,0,1,13.538-4.693,12.436,12.436,0,0,1-3.1,5.621,12.414,12.414,0,0,1,5.5,3.321,12.424,12.424,0,0,1-14.209,2.637,12.436,12.436,0,0,1-2.637,14.209,12.42,12.42,0,0,1-3.321-5.5A12.439,12.439,0,0,1,102.874,177.642Z" transform="translate(-65.249 -115.958)" fill="#0e4435"/>
    </g>
    <path id="Path_408" data-name="Path 408" d="M720.476,165.789l6.157-6.972a13.567,13.567,0,0,0,8.628,3.528c6.234,0,11.656-4.472,11.656-17.912,0-12.774-4.62-16.376-9.13-16.376-3.847,0-7.368,2.39-7.368,8.144,0,5.155,2.9,7.329,7.152,7.329,2.941,0,6.211-1.414,9.249-5.226l.525,7.571c-3.566,3.7-8.534,5.873-12.31,5.873-8.573,0-15.255-4.849-15.255-15.548,0-10.544,8.273-16.891,17.751-16.891,10.087,0,20.023,7.252,20.023,25.129,0,18.756-10.37,27.323-21.263,27.323A22.881,22.881,0,0,1,720.476,165.789Z" transform="translate(-487.347 -98.036)" fill="#fff"/>
  </g>
</svg>
