<svg xmlns="http://www.w3.org/2000/svg" width="361" height="95" viewBox="0 0 361 95">
  <g id="Layer_2" data-name="Layer 2" transform="translate(0.067)">
    <g id="Layer_1" data-name="Layer 1" transform="translate(-0.067)">
      <rect id="Rectangle_3" data-name="Rectangle 3" width="361" height="95" fill="#f7b359"/>
      <path id="Path_13" data-name="Path 13" d="M285.868,164c14.026-11.74,23.447-20.27,23.447-27.423,0-5.293-2.939-8.161-7.988-8.161-3.883,0-7.031,2.4-9.8,4.966l-6.231-6.273c5.139-5.21,10.069-7.8,17.621-7.8,10.374,0,17.447,6.562,17.447,16.612,0,8.351-8.412,17.344-17.823,25.538,2.785-.292,6.389-.562,8.919-.562H322.9v9.771H285.868Z" transform="translate(-194.067 -96.6)" fill="#1c7c62"/>
      <path id="Path_14" data-name="Path 14" d="M431.19,145.24c0-17.2,7.551-25.91,18.95-25.91s18.95,8.707,18.95,25.91c0,17.129-7.554,26.376-18.95,26.376S431.19,162.363,431.19,145.24Zm27.558,0c0-13.169-3.822-16.917-8.6-16.917s-8.6,3.748-8.6,16.917,3.822,17.383,8.6,17.383,8.608-4.214,8.608-17.383Z" transform="translate(-293.099 -96.816)" fill="#1c7c62"/>
      <path id="Path_15" data-name="Path 15" d="M581.32,163.248h13.188V133.924H583.617v-7.2c6.684-1.028,10.162-2.229,13.981-4.519h8.547v41.048h11.091v9.382H581.32Z" transform="translate(-349.475 -98.741)" fill="#1c7c62"/>
      <path id="Path_562" data-name="Path 562" d="M575.072,164c14.03-11.74,23.447-20.27,23.447-27.423,0-5.293-2.939-8.161-7.991-8.161-3.883,0-7.031,2.4-9.793,4.966l-6.225-6.273c5.139-5.21,10.069-7.8,17.621-7.8,10.378,0,17.447,6.562,17.447,16.612,0,8.351-8.409,17.344-17.82,25.538,2.785-.292,6.385-.562,8.919-.562h11.434v9.771h-37.04Z" transform="translate(-389.523 -96.707)" fill="#1c7c62"/>
      <path id="Path_563" data-name="Path 563" d="M109.427,155h-.5A17.075,17.075,0,0,1,95,168.924v.5a17.075,17.075,0,0,1,13.924,13.924h.5a17.075,17.075,0,0,1,13.924-13.924v-.5A17.075,17.075,0,0,1,109.427,155Z" transform="translate(-63.394 -119.564)" fill="#0e4435"/>
      <path id="Path_564" data-name="Path 564" d="M965.427,155h-.5A17.075,17.075,0,0,1,951,168.924v.5a17.075,17.075,0,0,1,13.924,13.924h.5a17.075,17.075,0,0,1,13.924-13.924v-.5A17.075,17.075,0,0,1,965.427,155Z" transform="translate(-643.621 -119.564)" fill="#0e4435"/>
    </g>
  </g>
</svg>
