<svg xmlns="http://www.w3.org/2000/svg" width="363" height="95" viewBox="0 0 363 95">
  <g id="Layer_2" data-name="Layer 2" transform="translate(0.094)">
    <g id="Layer_1" data-name="Layer 1" transform="translate(-0.094)">
      <rect id="Rectangle_7" data-name="Rectangle 7" width="363" height="95" fill="#f7b359"/>
      <path id="Path_33" data-name="Path 33" d="M285.868,164c14.026-11.74,23.447-20.27,23.447-27.423,0-5.293-2.939-8.161-7.988-8.161-3.883,0-7.031,2.4-9.8,4.966l-6.231-6.273c5.139-5.21,10.069-7.8,17.621-7.8,10.374,0,17.447,6.562,17.447,16.612,0,8.351-8.412,17.344-17.823,25.538,2.785-.292,6.389-.562,8.919-.562H322.9v9.771H285.868Z" transform="translate(-192.86 -96.6)" fill="#0e4435"/>
      <path id="Path_34" data-name="Path 34" d="M431.19,145.24c0-17.2,7.551-25.91,18.95-25.91s18.95,8.707,18.95,25.91c0,17.129-7.554,26.376-18.95,26.376S431.19,162.363,431.19,145.24Zm27.558,0c0-13.169-3.822-16.917-8.6-16.917s-8.6,3.748-8.6,16.917,3.822,17.383,8.6,17.383,8.608-4.214,8.608-17.383Z" transform="translate(-291.892 -96.816)" fill="#0e4435"/>
      <path id="Path_35" data-name="Path 35" d="M581.32,163.248h13.188V133.924H583.617v-7.2c6.684-1.028,10.162-2.229,13.981-4.519h8.547v41.048h11.091v9.382H581.32Z" transform="translate(-393.801 -98.741)" fill="#0e4435"/>
      <path id="Path_36" data-name="Path 36" d="M746.475,131.971H722V122.2h36.979v7.169c-12.671,13.885-14.322,23.524-15.272,43.261H732C732.965,155.793,736.014,145.123,746.475,131.971Z" transform="translate(-489.296 -98.741)" fill="#0e4435"/>
      <path id="Path_38" data-name="Path 38" d="M971.589,196.642a12.449,12.449,0,0,0-4.818-13.635,12.427,12.427,0,0,0,10.892-9.379,12.411,12.411,0,0,0-6.424-.125,12.46,12.46,0,0,0-.125-6.424,12.433,12.433,0,0,0-9.379,10.859,12.433,12.433,0,0,0-13.538-4.693,12.436,12.436,0,0,0,3.1,5.621,12.413,12.413,0,0,0-5.5,3.321,12.424,12.424,0,0,0,14.21,2.637,12.436,12.436,0,0,0,2.637,14.209,12.422,12.422,0,0,0,3.321-5.5A12.439,12.439,0,0,0,971.589,196.642Z" transform="translate(-641.214 -130.718)" fill="#ec4247"/>
      <path id="Path_40" data-name="Path 40" d="M102.874,196.642a12.449,12.449,0,0,1,4.818-13.635A12.427,12.427,0,0,1,96.8,173.629a12.41,12.41,0,0,1,6.424-.125,12.459,12.459,0,0,1,.125-6.424,12.433,12.433,0,0,1,9.379,10.859,12.433,12.433,0,0,1,13.538-4.693,12.436,12.436,0,0,1-3.1,5.621,12.414,12.414,0,0,1,5.5,3.321,12.424,12.424,0,0,1-14.209,2.637,12.436,12.436,0,0,1-2.637,14.209,12.42,12.42,0,0,1-3.321-5.5A12.44,12.44,0,0,1,102.874,196.642Z" transform="translate(-64.905 -130.718)" fill="#ec4247"/>
    </g>
  </g>
</svg>
