<svg id="Layer_2" data-name="Layer 2" xmlns="http://www.w3.org/2000/svg" width="362" height="95" viewBox="0 0 362 95">
  <g id="Layer_1" data-name="Layer 1">
    <rect id="Rectangle_16" data-name="Rectangle 16" width="362" height="95" fill="#1c7c62"/>
    <path id="Path_281" data-name="Path 281" d="M285.87,164.139c14.069-11.775,23.518-20.332,23.518-27.506,0-5.309-2.948-8.186-8.012-8.186-3.895,0-7.052,2.407-9.826,4.981l-6.25-6.292c5.155-5.226,10.1-7.825,17.674-7.825,10.406,0,17.5,6.582,17.5,16.662,0,8.376-8.437,17.4-17.877,25.615,2.793-.293,6.408-.564,8.947-.564h11.472v9.8H285.87Z" transform="translate(-193.386 -96.564)" fill="#f7b359"/>
    <path id="Path_282" data-name="Path 282" d="M431.19,145.319c0-17.255,7.574-25.989,19.008-25.989s19.008,8.734,19.008,25.989c0,17.181-7.577,26.456-19.008,26.456S431.19,162.494,431.19,145.319Zm27.642,0c0-13.209-3.834-16.968-8.631-16.968s-8.631,3.76-8.631,16.968,3.834,17.436,8.631,17.436,8.634-4.227,8.634-17.436Z" transform="translate(-292.276 -96.33)" fill="#f7b359"/>
    <path id="Path_285" data-name="Path 285" d="M109.427,155h-.5A17.075,17.075,0,0,1,95,168.924v.5a17.075,17.075,0,0,1,13.924,13.924h.5a17.075,17.075,0,0,1,13.924-13.924v-.5A17.075,17.075,0,0,1,109.427,155Z" transform="translate(-64.394 -120.564)" fill="#ec4247"/>
    <path id="Path_286" data-name="Path 286" d="M965.427,155h-.5A17.075,17.075,0,0,1,951,168.924v.5a17.075,17.075,0,0,1,13.924,13.924h.5a17.075,17.075,0,0,1,13.924-13.924v-.5A17.075,17.075,0,0,1,965.427,155Z" transform="translate(-644.621 -120.564)" fill="#ec4247"/>
    <path id="Path_409" data-name="Path 409" d="M720.38,145.24c0-17.2,7.555-25.91,18.95-25.91s18.95,8.707,18.95,25.91c0,17.129-7.554,26.376-18.95,26.376S720.38,162.363,720.38,145.24Zm27.561,0c0-13.169-3.825-16.917-8.6-16.917s-8.6,3.748-8.6,16.917,3.822,17.383,8.6,17.383S747.941,158.409,747.941,145.24Z" transform="translate(-534.541 -96.33)" fill="#f7b359"/>
    <path id="Path_410" data-name="Path 410" d="M721.66,157.753c0-6.128,4.153-9.819,9.2-12.3v-.321c-4.1-2.826-7.163-6.6-7.163-11.9,0-8.56,7.012-13.924,16.83-13.924s16.146,5.46,16.146,13.811c0,4.7-3.212,8.6-7.041,11v.321c5.184,2.592,9.209,6.424,9.209,13.2,0,7.956-6.719,13.975-18.722,13.975C728.746,171.6,721.66,165.947,721.66,157.753ZM748,157.227c0-4.529-4.721-6.151-11.675-8.743a9.87,9.87,0,0,0-4.574,7.969c0,4.477,3.764,7.066,8.672,7.066,4.442.016,7.567-2,7.567-6.286Zm-.864-23.325c0-3.976-2.486-6.539-6.864-6.539-3.533,0-6.34,1.927-6.34,5.865,0,4.066,3.893,6.132,9.607,8.1a10.107,10.107,0,0,0,3.588-7.42Z" transform="translate(-489.513 -96.31)" fill="#f7b359"/>
  </g>
</svg>
