<svg xmlns="http://www.w3.org/2000/svg" width="360" height="95" viewBox="0 0 360 95">
  <g id="Layer_2" data-name="Layer 2" transform="translate(-0.359)">
    <g id="Layer_1" data-name="Layer 1" transform="translate(0.359)">
      <rect id="Rectangle_5" data-name="Rectangle 5" width="360" height="95" fill="#ec4247"/>
      <path id="Path_21" data-name="Path 21" d="M285.868,164c14.026-11.74,23.447-20.27,23.447-27.423,0-5.293-2.939-8.161-7.988-8.161-3.883,0-7.031,2.4-9.8,4.966l-6.231-6.273c5.139-5.21,10.069-7.8,17.621-7.8,10.374,0,17.447,6.562,17.447,16.612,0,8.351-8.412,17.344-17.823,25.538,2.785-.292,6.389-.562,8.919-.562H322.9v9.771H285.868Z" transform="translate(-194.964 -96.31)" fill="#f7b359"/>
      <path id="Path_22" data-name="Path 22" d="M431.19,145.24c0-17.2,7.551-25.91,18.95-25.91s18.95,8.707,18.95,25.91c0,17.129-7.554,26.376-18.95,26.376S431.19,162.363,431.19,145.24Zm27.558,0c0-13.169-3.822-16.917-8.6-16.917s-8.6,3.748-8.6,16.917,3.822,17.383,8.6,17.383,8.608-4.214,8.608-17.383Z" transform="translate(-293.995 -96.33)" fill="#f7b359"/>
      <path id="Path_26" data-name="Path 26" d="M971.589,183.642a12.449,12.449,0,0,0-4.818-13.635,12.427,12.427,0,0,0,10.892-9.379,12.411,12.411,0,0,0-6.424-.125,12.46,12.46,0,0,0-.125-6.424,12.433,12.433,0,0,0-9.379,10.859,12.433,12.433,0,0,0-13.538-4.693,12.435,12.435,0,0,0,3.1,5.621,12.415,12.415,0,0,0-5.5,3.321,12.424,12.424,0,0,0,14.21,2.637,12.436,12.436,0,0,0,2.637,14.209,12.422,12.422,0,0,0,3.321-5.5A12.438,12.438,0,0,0,971.589,183.642Z" transform="translate(-643.317 -120.547)" fill="#0e4435"/>
      <path id="Path_28" data-name="Path 28" d="M102.874,183.642a12.449,12.449,0,0,1,4.818-13.635A12.427,12.427,0,0,1,96.8,160.629a12.411,12.411,0,0,1,6.424-.125,12.459,12.459,0,0,1,.125-6.424,12.433,12.433,0,0,1,9.379,10.859,12.433,12.433,0,0,1,13.538-4.693,12.436,12.436,0,0,1-3.1,5.621,12.415,12.415,0,0,1,5.5,3.321,12.424,12.424,0,0,1-14.209,2.637,12.436,12.436,0,0,1-2.637,14.209,12.42,12.42,0,0,1-3.321-5.5A12.44,12.44,0,0,1,102.874,183.642Z" transform="translate(-67.008 -120.547)" fill="#0e4435"/>
      <path id="Path_417" data-name="Path 417" d="M720.38,145.24c0-17.2,7.555-25.91,18.95-25.91s18.95,8.707,18.95,25.91c0,17.129-7.554,26.376-18.95,26.376S720.38,162.363,720.38,145.24Zm27.561,0c0-13.169-3.825-16.917-8.6-16.917s-8.6,3.748-8.6,16.917,3.822,17.383,8.6,17.383S747.941,158.409,747.941,145.24Z" transform="translate(-536.541 -96.33)" fill="#f7b359"/>
      <path id="Path_418" data-name="Path 418" d="M739.066,143.17c.019-3.283.274-7.874.428-11.14h-.274c-1.63,2.9-3.669,5.8-5.438,8.647l-7.165,10.892H756.1v8.882H715.4v-8.086L735.8,122.2h14.133v50.58h-10.87Z" transform="translate(-484.923 -99.2)" fill="#f7b359"/>
    </g>
  </g>
</svg>
