<svg xmlns="http://www.w3.org/2000/svg" width="363" height="125" viewBox="0 0 363 125">
  <g id="Layer_2" data-name="Layer 2" transform="translate(-0.119)">
    <g id="Layer_1" data-name="Layer 1" transform="translate(0)">
      <path id="Path_287" data-name="Path 287" d="M0,0H363V125H0Z" transform="translate(0.119)" fill="#f1c0ba"/>
      <path id="Path_41" data-name="Path 41" d="M285.868,164c14.026-11.74,23.447-20.27,23.447-27.423,0-5.293-2.939-8.161-7.988-8.161-3.883,0-7.031,2.4-9.8,4.966l-6.231-6.273c5.139-5.21,10.069-7.8,17.621-7.8,10.374,0,17.447,6.562,17.447,16.612,0,8.351-8.412,17.344-17.823,25.538,2.785-.292,6.389-.562,8.919-.562H322.9v9.771H285.868Z" transform="translate(-193.189 -80.989)" fill="#ec4247"/>
      <path id="Path_42" data-name="Path 42" d="M431.19,145.24c0-17.2,7.551-25.91,18.95-25.91s18.95,8.707,18.95,25.91c0,17.129-7.554,26.376-18.95,26.376S431.19,162.363,431.19,145.24Zm27.558,0c0-13.169-3.822-16.917-8.6-16.917s-8.6,3.748-8.6,16.917,3.822,17.383,8.6,17.383,8.608-4.214,8.608-17.383Z" transform="translate(-292.221 -81.002)" fill="#ec4247"/>
      <path id="Path_43" data-name="Path 43" d="M581.32,163.248h13.188V133.924H583.617v-7.2c6.684-1.028,10.162-2.229,13.981-4.519h8.547v41.048h11.091v9.382H581.32Z" transform="translate(-394.13 -82.95)" fill="#ec4247"/>
      <path id="Path_44" data-name="Path 44" d="M721.66,157.753c0-6.128,4.153-9.819,9.2-12.3v-.321c-4.1-2.826-7.163-6.6-7.163-11.9,0-8.56,7.012-13.924,16.83-13.924s16.146,5.46,16.146,13.811c0,4.7-3.212,8.6-7.041,11v.321c5.184,2.592,9.209,6.424,9.209,13.2,0,7.956-6.719,13.975-18.722,13.975C728.746,171.6,721.66,165.947,721.66,157.753ZM748,157.227c0-4.529-4.721-6.151-11.675-8.743a9.87,9.87,0,0,0-4.574,7.969c0,4.477,3.764,7.066,8.672,7.066,4.442.016,7.567-2,7.567-6.286Zm-.864-23.325c0-3.976-2.486-6.539-6.864-6.539-3.533,0-6.34,1.927-6.34,5.865,0,4.066,3.893,6.132,9.607,8.1a10.107,10.107,0,0,0,3.588-7.42Z" transform="translate(-489.394 -80.989)" fill="#ec4247"/>
      <circle id="Ellipse_13" data-name="Ellipse 13" cx="6.877" cy="6.877" r="6.877" transform="translate(311.067 57.644)" fill="#1c7c62"/>
      <circle id="Ellipse_14" data-name="Ellipse 14" cx="6.877" cy="6.877" r="6.877" transform="translate(40.752 56.941)" fill="#1c7c62"/>
    </g>
  </g>
</svg>
