<svg xmlns="http://www.w3.org/2000/svg" width="130" height="45" viewBox="0 0 130 45">
  <g id="Group_30" data-name="Group 30" transform="translate(-188 -1323)">
    <g id="Group_27" data-name="Group 27">
      <g id="Layer_2" data-name="Layer 2" transform="translate(187.611 1323)">
        <g id="Layer_1" data-name="Layer 1" transform="translate(0.389)">
          <rect id="Rectangle_10" data-name="Rectangle 10" width="130" height="45" fill="#ec4247"/>
        </g>
      </g>
      <g id="Group_26" data-name="Group 26" transform="translate(0 -0.287)">
        <path id="Path_484" data-name="Path 484" d="M8.387,1942.887H5.5a11.657,11.657,0,0,1-4.724,1.526v2.434H4.456v9.908H0v3.169H12.135v-3.169H8.387Z" transform="translate(223.846 -605.287)" fill="#f7b359"/>
        <path id="Path_485" data-name="Path 485" d="M144.441,1940c-3.193,0-5.98,2.138-5.98,5.69,0,3.6,2.251,5.237,5.139,5.237a6.212,6.212,0,0,0,3.988-1.822c-.167,4.027-1.915,5.391-3.912,5.391a4.57,4.57,0,0,1-2.906-1.189l-2.073,2.349a7.7,7.7,0,0,0,5.328,2.01c3.668,0,7.161-2.885,7.161-9.2,0-6.019-3.346-8.462-6.744-8.462m.013,8.158a2.19,2.19,0,0,1-2.41-2.468,2.424,2.424,0,0,1,2.482-2.744c1.259,0,2.542.835,2.946,3.568a3.946,3.946,0,0,1-3.018,1.644" transform="translate(100.411 -602.709)" fill="#f7b359"/>
        <path id="Path_486" data-name="Path 486" d="M289.039,1940c-3.193,0-5.98,2.138-5.98,5.69,0,3.6,2.251,5.237,5.139,5.237a6.213,6.213,0,0,0,3.988-1.822c-.167,4.027-1.915,5.391-3.912,5.391a4.57,4.57,0,0,1-2.906-1.189l-2.073,2.349a7.7,7.7,0,0,0,5.328,2.01c3.669,0,7.161-2.885,7.161-9.2,0-6.019-3.346-8.462-6.744-8.462m.013,8.158a2.19,2.19,0,0,1-2.41-2.468,2.424,2.424,0,0,1,2.482-2.744c1.259,0,2.542.835,2.945,3.568a3.946,3.946,0,0,1-3.018,1.644" transform="translate(-28.495 -602.709)" fill="#f7b359"/>
        <path id="Path_487" data-name="Path 487" d="M434.912,1952.78v-9.892h-4.761l-6.873,10.16v2.724h7.972v4.154h3.662v-4.154h2.075v-2.992Zm-7.856,0,2.414-3.668c.6-.956,1.282-1.931,1.831-2.913h.092c-.052,1.1-.138,2.646-.144,3.752v2.829Z" transform="translate(-153.497 -605.287)" fill="#f7b359"/>
      </g>
    </g>
  </g>
</svg>
