<svg xmlns="http://www.w3.org/2000/svg" width="130" height="45" viewBox="0 0 130 45">
  <g id="Group_15" data-name="Group 15" transform="translate(-188 -131)">
    <g id="Layer_2" data-name="Layer 2" transform="translate(187.611 131)">
      <g id="Layer_1" data-name="Layer 1" transform="translate(0.389)">
        <rect id="Rectangle_10" data-name="Rectangle 10" width="130" height="45" fill="#f1c0ba"/>
      </g>
    </g>
    <g id="Layer_2-2" data-name="Layer 2" transform="translate(188.301 129.742)">
      <g id="Layer_1-2" data-name="Layer 1" transform="translate(0)">
        <path id="Path_41" data-name="Path 41" d="M285.474,132.955c4.282-3.584,7.158-6.188,7.158-8.372a2.234,2.234,0,0,0-2.439-2.492,4.552,4.552,0,0,0-2.991,1.516l-1.9-1.915a6.912,6.912,0,0,1,5.379-2.382c3.167,0,5.326,2,5.326,5.072,0,2.549-2.568,5.3-5.441,7.8.85-.089,1.95-.172,2.723-.172h3.492v2.983H285.474Z" transform="translate(-251.601 -104.052)" fill="#ec4247"/>
        <path id="Path_42" data-name="Path 42" d="M431.19,127.24c0-5.252,2.305-7.91,5.785-7.91s5.785,2.658,5.785,7.91c0,5.229-2.306,8.052-5.785,8.052S431.19,132.468,431.19,127.24Zm8.413,0c0-4.02-1.167-5.165-2.627-5.165s-2.627,1.144-2.627,5.165,1.167,5.307,2.627,5.307,2.628-1.287,2.628-5.307Z" transform="translate(-380.318 -104.024)" fill="#ec4247"/>
        <path id="Path_43" data-name="Path 43" d="M581.32,134.732h4.026v-8.953h-3.325v-2.2a10.524,10.524,0,0,0,4.268-1.38H588.9v12.532h3.386V137.6H581.32Z" transform="translate(-512.851 -106.618)" fill="#ec4247"/>
        <path id="Path_44" data-name="Path 44" d="M721.66,131.046c0-1.871,1.268-3,2.808-3.755v-.1a4.373,4.373,0,0,1-2.187-3.633c0-2.613,2.141-4.251,5.138-4.251s4.929,1.667,4.929,4.216a4.141,4.141,0,0,1-2.149,3.358v.1a4.346,4.346,0,0,1,2.811,4.03c0,2.429-2.051,4.266-5.716,4.266C723.823,135.273,721.66,133.548,721.66,131.046Zm8.041-.161c0-1.383-1.441-1.878-3.564-2.669a3.013,3.013,0,0,0-1.4,2.433c0,1.367,1.149,2.157,2.648,2.157,1.356,0,2.31-.611,2.31-1.919Zm-.264-7.121a1.887,1.887,0,0,0-2.1-2,1.738,1.738,0,0,0-1.936,1.791c0,1.241,1.188,1.872,2.933,2.473a3.086,3.086,0,0,0,1.1-2.265Z" transform="translate(-636.638 -104.006)" fill="#ec4247"/>
      </g>
    </g>
  </g>
</svg>
