<svg xmlns="http://www.w3.org/2000/svg" width="130" height="45" viewBox="0 0 130 45">
  <g id="Layer_2" data-name="Layer 2" transform="translate(-0.389)">
    <g id="Layer_1" data-name="Layer 1" transform="translate(0.389)">
      <rect id="Rectangle_10" data-name="Rectangle 10" width="130" height="45" fill="#f7b359"/>
      <path id="Path_49" data-name="Path 49" d="M285.474,132.955c4.282-3.584,7.158-6.188,7.158-8.372a2.234,2.234,0,0,0-2.439-2.492,4.552,4.552,0,0,0-2.991,1.516l-1.9-1.915a6.912,6.912,0,0,1,5.379-2.382c3.167,0,5.326,2,5.326,5.072,0,2.549-2.568,5.3-5.441,7.8.85-.089,1.95-.172,2.723-.172h3.492v2.983H285.474Z" transform="translate(-251.945 -103.942)" fill="#1c7c62"/>
      <path id="Path_50" data-name="Path 50" d="M431.19,127.24c0-5.252,2.305-7.91,5.785-7.91s5.785,2.658,5.785,7.91c0,5.229-2.306,8.052-5.785,8.052S431.19,132.468,431.19,127.24Zm8.413,0c0-4.02-1.167-5.165-2.627-5.165s-2.627,1.144-2.627,5.165,1.167,5.307,2.627,5.307,2.628-1.287,2.628-5.307Z" transform="translate(-380.617 -103.912)" fill="#1c7c62"/>
      <path id="Path_51" data-name="Path 51" d="M574.682,132.955c4.283-3.584,7.158-6.188,7.158-8.372a2.234,2.234,0,0,0-2.44-2.492,4.548,4.548,0,0,0-2.99,1.516l-1.9-1.915a6.912,6.912,0,0,1,5.379-2.382c3.168,0,5.326,2,5.326,5.071,0,2.549-2.567,5.3-5.44,7.8.85-.089,1.949-.172,2.723-.172h3.491v2.983H574.682Z" transform="translate(-507.039 -103.942)" fill="#1c7c62"/>
      <path id="Path_565" data-name="Path 565" d="M581.32,134.77h4.038v-8.98h-3.335v-2.206A10.556,10.556,0,0,0,586.3,122.2h2.617v12.57h3.4v2.873h-11Z" transform="translate(-495.276 -106.595)" fill="#1c7c62"/>
    </g>
  </g>
</svg>
