<svg xmlns="http://www.w3.org/2000/svg" width="130" height="45" viewBox="0 0 130 45">
  <g id="Group_45" data-name="Group 45" transform="translate(-188 -637)">
    <g id="Layer_2" data-name="Layer 2" transform="translate(187.611 637)">
      <g id="Layer_1" data-name="Layer 1" transform="translate(0.389)">
        <rect id="Rectangle_10" data-name="Rectangle 10" width="130" height="45" fill="#f1c0ba"/>
      </g>
    </g>
    <path id="Path_41" data-name="Path 41" d="M285.492,134.516c4.728-3.994,7.9-6.9,7.9-9.33a2.478,2.478,0,0,0-2.693-2.777,5.01,5.01,0,0,0-3.3,1.689l-2.1-2.134a7.6,7.6,0,0,1,5.939-2.654c3.5,0,5.881,2.232,5.881,5.652,0,2.841-2.835,5.9-6.008,8.688.939-.1,2.153-.191,3.007-.191h3.855v3.324H285.492Z" transform="translate(-62.159 530.971)" fill="#ec4247"/>
    <path id="Path_42" data-name="Path 42" d="M431.19,128.145c0-5.853,2.545-8.815,6.388-8.815s6.388,2.962,6.388,8.815c0,5.828-2.546,8.974-6.388,8.974S431.19,133.971,431.19,128.145Zm9.289,0c0-4.48-1.288-5.755-2.9-5.755s-2.9,1.275-2.9,5.755,1.288,5.914,2.9,5.914,2.9-1.434,2.9-5.914Z" transform="translate(-192.254 530.951)" fill="#ec4247"/>
    <path id="Path_411" data-name="Path 411" d="M720.38,128.145c0-5.853,2.547-8.815,6.388-8.815s6.388,2.962,6.388,8.815c0,5.828-2.546,8.974-6.388,8.974S720.38,133.971,720.38,128.145Zm9.29,0c0-4.48-1.289-5.755-2.9-5.755s-2.9,1.275-2.9,5.755,1.288,5.914,2.9,5.914S729.67,132.625,729.67,128.145Z" transform="translate(-465.605 530.951)" fill="#ec4247"/>
    <path id="Path_412" data-name="Path 412" d="M730.25,125.524H722V122.2h12.464v2.439c-4.271,4.724-4.828,8-5.148,14.718h-3.947C725.7,133.629,726.724,130,730.25,125.524Z" transform="translate(-451.428 528.422)" fill="#ec4247"/>
  </g>
</svg>
