<svg xmlns="http://www.w3.org/2000/svg" width="130" height="45" viewBox="0 0 130 45">
  <g id="Group_56" data-name="Group 56" transform="translate(-188 -1519)">
    <g id="Layer_2" data-name="Layer 2" transform="translate(187.611 1519)">
      <g id="Layer_1" data-name="Layer 1" transform="translate(0.389)">
        <rect id="Rectangle_10" data-name="Rectangle 10" width="130" height="45" fill="#ec4247"/>
      </g>
    </g>
    <path id="Path_468" data-name="Path 468" d="M9,2.887H5.9A12.509,12.509,0,0,1,.832,4.525V7.137h3.95V17.77H0v3.4H13.023v-3.4H9Z" transform="translate(222.153 1528.184)" fill="#fff"/>
    <path id="Path_469" data-name="Path 469" d="M144.878,0c-3.426,0-6.417,2.294-6.417,6.106,0,3.867,2.415,5.62,5.515,5.62a6.668,6.668,0,0,0,4.279-1.955c-.179,4.321-2.055,5.785-4.2,5.785a4.9,4.9,0,0,1-3.119-1.276L138.713,16.8a8.261,8.261,0,0,0,5.718,2.156c3.937,0,7.685-3.1,7.685-9.876,0-6.46-3.591-9.081-7.237-9.081m.014,8.755A2.35,2.35,0,0,1,142.306,6.1c0-2.081,1.274-2.945,2.664-2.945,1.351,0,2.728.9,3.161,3.829a4.235,4.235,0,0,1-3.239,1.764" transform="translate(99.817 1530.71)" fill="#fff"/>
    <path id="Path_471" data-name="Path 471" d="M433.171,11.722a6.668,6.668,0,0,0,4.279-1.955c-.179,4.321-2.055,5.786-4.2,5.786a4.905,4.905,0,0,1-3.119-1.276L427.908,16.8a8.261,8.261,0,0,0,5.718,2.157c3.937,0,7.685-3.1,7.685-9.877,0-6.46-3.591-9.081-7.237-9.081-3.426,0-6.417,2.294-6.417,6.106,0,3.867,2.415,5.62,5.515,5.62m.994-8.565c1.351,0,2.728.9,3.161,3.829a4.235,4.235,0,0,1-3.239,1.764A2.35,2.35,0,0,1,431.5,6.1c0-2.081,1.274-2.945,2.664-2.945" transform="translate(-155.698 1530.71)" fill="#fff"/>
    <path id="Path_505" data-name="Path 505" d="M439.683,397.1v-.112A4.918,4.918,0,0,0,442.236,393c0-3.026-2.3-5-5.854-5s-6.1,1.944-6.1,5.048a5.212,5.212,0,0,0,2.6,4.322v.112c-1.83.9-3.336,2.237-3.336,4.459,0,2.968,2.568,5.016,6.695,5.016,4.352,0,6.788-2.182,6.788-5.067,0-2.462-1.459-3.846-3.338-4.786m-3.4-6.183a2.241,2.241,0,0,1,2.489,2.371,3.667,3.667,0,0,1-1.3,2.693c-2.072-.715-3.484-1.464-3.484-2.938a2.062,2.062,0,0,1,2.3-2.126m.049,13.107c-1.774,0-3.139-.935-3.139-2.56a3.578,3.578,0,0,1,1.658-2.889c2.521.939,4.234,1.528,4.234,3.169,0,1.554-1.134,2.279-2.753,2.279" transform="translate(-174.149 1142.71)" fill="#fff"/>
  </g>
</svg>
