<svg xmlns="http://www.w3.org/2000/svg" width="130" height="45" viewBox="0 0 130 45">
  <g id="Group_40" data-name="Group 40" transform="translate(-188 -784)">
    <g id="Layer_2" data-name="Layer 2" transform="translate(187.611 784)">
      <g id="Layer_1" data-name="Layer 1" transform="translate(0.389)">
        <rect id="Rectangle_10" data-name="Rectangle 10" width="130" height="45" fill="#ec4247"/>
      </g>
    </g>
    <g id="Group_24" data-name="Group 24" transform="translate(223.328 796.151)">
      <path id="Path_21" data-name="Path 21" d="M285.488,134.1c4.642-3.886,7.761-6.709,7.761-9.077a2.422,2.422,0,0,0-2.644-2.7,4.935,4.935,0,0,0-3.242,1.644l-2.062-2.076a7.494,7.494,0,0,1,5.832-2.582c3.434,0,5.775,2.172,5.775,5.5,0,2.764-2.784,5.741-5.9,8.453.922-.1,2.115-.186,2.952-.186h3.786v3.234H285.488Z" transform="translate(-285.3 -119.31)" fill="#f7b359"/>
      <path id="Path_22" data-name="Path 22" d="M431.19,127.906c0-5.694,2.5-8.576,6.272-8.576s6.272,2.882,6.272,8.576c0,5.669-2.5,8.73-6.272,8.73S431.19,133.573,431.19,127.906Zm9.121,0c0-4.359-1.265-5.6-2.848-5.6s-2.848,1.241-2.848,5.6,1.265,5.753,2.848,5.753,2.849-1.395,2.849-5.753Z" transform="translate(-415.681 -119.33)" fill="#f7b359"/>
      <path id="Path_417" data-name="Path 417" d="M720.38,127.906c0-5.694,2.5-8.576,6.272-8.576s6.272,2.882,6.272,8.576c0,5.669-2.5,8.73-6.272,8.73S720.38,133.573,720.38,127.906Zm9.122,0c0-4.359-1.266-5.6-2.848-5.6s-2.848,1.241-2.848,5.6,1.265,5.753,2.848,5.753S729.5,132.265,729.5,127.906Z" transform="translate(-689.432 -119.33)" fill="#f7b359"/>
      <path id="Path_418" data-name="Path 418" d="M723.233,129.141c.006-1.087.091-2.606.142-3.687h-.091c-.54.96-1.215,1.919-1.8,2.862l-2.372,3.605h9.757v2.94H715.4v-2.676l6.753-9.984h4.678v16.741h-3.6Z" transform="translate(-669.016 -122.2)" fill="#f7b359"/>
    </g>
  </g>
</svg>
