<svg xmlns="http://www.w3.org/2000/svg" width="130" height="45" viewBox="0 0 130 45">
  <g id="Group_44" data-name="Group 44" transform="translate(-188 -588)">
    <g id="Layer_2" data-name="Layer 2" transform="translate(187.611 588)">
      <g id="Layer_1" data-name="Layer 1" transform="translate(0.389)">
        <rect id="Rectangle_10" data-name="Rectangle 10" width="130" height="45" fill="#1c7c62"/>
      </g>
    </g>
    <path id="Path_281" data-name="Path 281" d="M285.494,134.562c4.786-4.006,8-6.917,8-9.358a2.5,2.5,0,0,0-2.726-2.785,5.088,5.088,0,0,0-3.343,1.695l-2.126-2.141a7.726,7.726,0,0,1,6.013-2.662c3.54,0,5.954,2.239,5.954,5.669,0,2.85-2.871,5.919-6.082,8.715.95-.1,2.18-.192,3.044-.192h3.9v3.334H285.494Z" transform="translate(-62.185 481.539)" fill="#f7b359"/>
    <path id="Path_282" data-name="Path 282" d="M431.19,128.172c0-5.87,2.577-8.842,6.467-8.842s6.467,2.971,6.467,8.842c0,5.845-2.578,9-6.467,9S431.19,134.015,431.19,128.172Zm9.4,0c0-4.494-1.3-5.773-2.936-5.773s-2.936,1.279-2.936,5.773,1.3,5.932,2.936,5.932,2.937-1.438,2.937-5.932Z" transform="translate(-192.085 481.606)" fill="#f7b359"/>
    <path id="Path_409" data-name="Path 409" d="M720.38,128.145c0-5.853,2.57-8.815,6.447-8.815s6.447,2.962,6.447,8.815c0,5.828-2.57,8.974-6.447,8.974S720.38,133.971,720.38,128.145Zm9.377,0c0-4.48-1.3-5.755-2.927-5.755s-2.927,1.275-2.927,5.755,1.3,5.914,2.927,5.914S729.757,132.625,729.757,128.145Z" transform="translate(-465.31 481.606)" fill="#f7b359"/>
    <path id="Path_410" data-name="Path 410" d="M721.66,132.389c0-2.085,1.413-3.34,3.13-4.184V128.1a4.873,4.873,0,0,1-2.437-4.049c0-2.912,2.385-4.737,5.726-4.737s5.493,1.858,5.493,4.7a4.615,4.615,0,0,1-2.4,3.743v.109c1.764.882,3.133,2.186,3.133,4.491,0,2.707-2.286,4.755-6.37,4.755C724.071,137.1,721.66,135.177,721.66,132.389Zm8.96-.179c0-1.541-1.606-2.093-3.972-2.974a3.358,3.358,0,0,0-1.556,2.711c0,1.523,1.281,2.4,2.95,2.4,1.511.005,2.574-.681,2.574-2.138Zm-.294-7.936a2.1,2.1,0,0,0-2.335-2.225,1.937,1.937,0,0,0-2.157,2c0,1.383,1.324,2.086,3.268,2.756a3.438,3.438,0,0,0,1.22-2.524Z" transform="translate(-450.836 481.626)" fill="#f7b359"/>
  </g>
</svg>
