<svg xmlns="http://www.w3.org/2000/svg" width="130" height="45" viewBox="0 0 130 45">
  <g id="Group_36" data-name="Group 36" transform="translate(-188 -1029)">
    <g id="Layer_2" data-name="Layer 2" transform="translate(187.611 1029)">
      <g id="Layer_1" data-name="Layer 1" transform="translate(0.389)">
        <rect id="Rectangle_10" data-name="Rectangle 10" width="130" height="45" fill="#1c7c62"/>
      </g>
    </g>
    <path id="Path_172" data-name="Path 172" d="M285.489,134.171c4.664-3.9,7.8-6.74,7.8-9.118a2.433,2.433,0,0,0-2.656-2.714,4.958,4.958,0,0,0-3.257,1.651L285.3,121.9a7.528,7.528,0,0,1,5.859-2.594c3.45,0,5.8,2.182,5.8,5.524,0,2.777-2.8,5.767-5.926,8.491.926-.1,2.124-.187,2.966-.187h3.8v3.249H285.489Z" transform="translate(-61.402 923.389)" fill="#f7b359"/>
    <path id="Path_173" data-name="Path 173" d="M431.19,127.945c0-5.72,2.511-8.615,6.3-8.615s6.3,2.9,6.3,8.615c0,5.7-2.512,8.77-6.3,8.77S431.19,133.639,431.19,127.945Zm9.163,0c0-4.379-1.271-5.625-2.861-5.625s-2.861,1.246-2.861,5.625,1.271,5.78,2.861,5.78,2.862-1.4,2.862-5.78Z" transform="translate(-191.755 923.304)" fill="#f7b359"/>
    <path id="Path_426" data-name="Path 426" d="M431.19,127.945c0-5.72,2.511-8.615,6.3-8.615s6.3,2.9,6.3,8.615c0,5.7-2.512,8.77-6.3,8.77S431.19,133.639,431.19,127.945Zm9.163,0c0-4.379-1.271-5.625-2.861-5.625s-2.861,1.246-2.861,5.625,1.271,5.78,2.861,5.78,2.862-1.4,2.862-5.78Z" transform="translate(-176.199 923.304)" fill="#f7b359"/>
    <path id="Path_175" data-name="Path 175" d="M720.38,127.945c0-5.72,2.512-8.615,6.3-8.615s6.3,2.9,6.3,8.615c0,5.7-2.512,8.77-6.3,8.77S720.38,133.639,720.38,127.945Zm9.164,0c0-4.379-1.272-5.625-2.861-5.625s-2.861,1.246-2.861,5.625,1.271,5.78,2.861,5.78S729.544,132.324,729.544,127.945Z" transform="translate(-450.164 923.304)" fill="#f7b359"/>
  </g>
</svg>
