<svg xmlns="http://www.w3.org/2000/svg" width="130" height="45" viewBox="0 0 130 45">
  <g id="Group_58" data-name="Group 58" transform="translate(-188 -1421)">
    <g id="Layer_2" data-name="Layer 2" transform="translate(187.611 1421)">
      <g id="Layer_1" data-name="Layer 1" transform="translate(0.389)">
        <rect id="Rectangle_10" data-name="Rectangle 10" width="130" height="45" fill="#ec4247"/>
      </g>
    </g>
    <path id="Path_541" data-name="Path 541" d="M9,2718.888H5.9a12.507,12.507,0,0,1-5.07,1.637v2.612h3.95v10.633H0v3.4H13.023v-3.4H9Z" transform="translate(222.32 -1285.206)" fill="#f1c0ba"/>
    <path id="Path_544" data-name="Path 544" d="M9,2718.888H5.9a12.507,12.507,0,0,1-5.07,1.637v2.612h3.95v10.633H0v3.4H13.023v-3.4H9Z" transform="translate(272.041 -1285.206)" fill="#f1c0ba"/>
    <path id="Path_542" data-name="Path 542" d="M144.878,2716c-3.426,0-6.417,2.294-6.417,6.106,0,3.867,2.415,5.62,5.515,5.62a6.668,6.668,0,0,0,4.279-1.956c-.179,4.322-2.055,5.786-4.2,5.786a4.9,4.9,0,0,1-3.119-1.276l-2.225,2.521a8.259,8.259,0,0,0,5.718,2.156c3.937,0,7.685-3.1,7.685-9.876,0-6.459-3.591-9.081-7.237-9.081m.014,8.755a2.35,2.35,0,0,1-2.586-2.648c0-2.081,1.274-2.945,2.664-2.945,1.351,0,2.728.9,3.161,3.829a4.235,4.235,0,0,1-3.239,1.764" transform="translate(99.984 -1282.651)" fill="#f1c0ba"/>
    <path id="Path_543" data-name="Path 543" d="M289.476,2716c-3.426,0-6.417,2.294-6.417,6.106,0,3.867,2.415,5.62,5.515,5.62a6.669,6.669,0,0,0,4.279-1.956c-.179,4.322-2.055,5.786-4.2,5.786a4.9,4.9,0,0,1-3.119-1.276l-2.225,2.521a8.259,8.259,0,0,0,5.718,2.156c3.937,0,7.685-3.1,7.685-9.876,0-6.459-3.591-9.081-7.237-9.081m.014,8.755a2.35,2.35,0,0,1-2.586-2.648c0-2.081,1.274-2.945,2.664-2.945,1.351,0,2.728.9,3.161,3.829a4.235,4.235,0,0,1-3.239,1.764" transform="translate(-27.774 -1282.651)" fill="#f1c0ba"/>
  </g>
</svg>
