<svg xmlns="http://www.w3.org/2000/svg" width="130" height="44.909" viewBox="0 0 130 44.909">
  <g id="Layer_2" data-name="Layer 2" transform="translate(-0.084 -0.193)">
    <g id="Layer_1" data-name="Layer 1" transform="translate(0.084 0.193)">
      <rect id="Rectangle_5" data-name="Rectangle 5" width="130" height="44.909" fill="#ec4247"/>
      <path id="Path_21" data-name="Path 21" d="M285.474,132.955c4.282-3.584,7.158-6.188,7.158-8.372a2.234,2.234,0,0,0-2.439-2.492,4.552,4.552,0,0,0-2.991,1.516l-1.9-1.915a6.912,6.912,0,0,1,5.379-2.382c3.167,0,5.326,2,5.326,5.072,0,2.549-2.568,5.3-5.441,7.8.85-.089,1.95-.172,2.723-.172h3.492v2.983H285.474Z" transform="translate(-252.224 -104.242)" fill="#f7b359"/>
      <path id="Path_22" data-name="Path 22" d="M431.19,127.24c0-5.252,2.305-7.91,5.785-7.91s5.785,2.658,5.785,7.91c0,5.229-2.306,8.052-5.785,8.052S431.19,132.468,431.19,127.24Zm8.413,0c0-4.02-1.167-5.165-2.627-5.165s-2.627,1.144-2.627,5.165,1.167,5.307,2.627,5.307,2.628-1.287,2.628-5.307Z" transform="translate(-380.896 -104.214)" fill="#f7b359"/>
      <path id="Path_23" data-name="Path 23" d="M581.32,134.732h4.026v-8.953h-3.325v-2.2a10.524,10.524,0,0,0,4.268-1.38H588.9v12.532h3.386V137.6H581.32Z" transform="translate(-513.384 -106.807)" fill="#f7b359"/>
      <path id="Path_24" data-name="Path 24" d="M718,135.742l1.6-2.41a5.486,5.486,0,0,0,3.5,1.653c1.692,0,2.857-.817,2.857-2.4,0-1.538-1.143-2.366-2.686-2.366a4.31,4.31,0,0,0-2.5.76L719.2,129.96l.407-7.79h9.228v2.983h-6.163l-.24,2.928a5.376,5.376,0,0,1,1.93-.328c2.758,0,5.158,1.488,5.158,4.743,0,3.409-2.8,5.354-5.9,5.354A7.787,7.787,0,0,1,718,135.742Z" transform="translate(-633.876 -106.735)" fill="#f7b359"/>
    </g>
  </g>
</svg>
