<svg xmlns="http://www.w3.org/2000/svg" width="130" height="45" viewBox="0 0 130 45">
  <g id="Group_60" data-name="Group 60" transform="translate(-188 -1323)">
    <g id="Group_29" data-name="Group 29" transform="translate(0 -49)">
      <g id="Group_25" data-name="Group 25">
        <g id="Layer_2" data-name="Layer 2" transform="translate(187.611 1372)">
          <g id="Layer_1" data-name="Layer 1" transform="translate(0.389)">
            <rect id="Rectangle_10" data-name="Rectangle 10" width="130" height="45" fill="#1c7c62"/>
          </g>
        </g>
        <path id="Path_488" data-name="Path 488" d="M8.387,2330.887H5.5a11.655,11.655,0,0,1-4.724,1.526v2.435H4.456v9.908H0v3.17H12.135v-3.17H8.387Z" transform="translate(224.442 -945.266)" fill="#fff"/>
        <path id="Path_489" data-name="Path 489" d="M144.441,2328c-3.193,0-5.98,2.138-5.98,5.69,0,3.6,2.251,5.237,5.139,5.237a6.214,6.214,0,0,0,3.988-1.822c-.167,4.027-1.915,5.391-3.912,5.391a4.572,4.572,0,0,1-2.906-1.189l-2.073,2.349a7.7,7.7,0,0,0,5.328,2.01c3.668,0,7.161-2.885,7.161-9.2,0-6.019-3.346-8.462-6.744-8.462m.013,8.158a2.191,2.191,0,0,1-2.41-2.469,2.425,2.425,0,0,1,2.482-2.744c1.259,0,2.542.835,2.946,3.568a3.948,3.948,0,0,1-3.018,1.644" transform="translate(101.006 -942.689)" fill="#fff"/>
        <path id="Path_490" data-name="Path 490" d="M289.039,2328c-3.193,0-5.98,2.138-5.98,5.69,0,3.6,2.251,5.237,5.139,5.237a6.214,6.214,0,0,0,3.988-1.822c-.167,4.027-1.915,5.391-3.912,5.391a4.571,4.571,0,0,1-2.906-1.189l-2.073,2.349a7.7,7.7,0,0,0,5.328,2.01c3.669,0,7.161-2.885,7.161-9.2,0-6.019-3.346-8.462-6.744-8.462m.013,8.158a2.191,2.191,0,0,1-2.41-2.469,2.425,2.425,0,0,1,2.482-2.744c1.259,0,2.542.835,2.945,3.568a3.948,3.948,0,0,1-3.018,1.644" transform="translate(-27.899 -942.689)" fill="#fff"/>
        <path id="Path_491" data-name="Path 491" d="M430.707,2342.492a6.27,6.27,0,0,1-4.015-1.665l-1.811,2.481a8.159,8.159,0,0,0,6.213,2.354c3.519,0,6.615-1.771,6.615-4.95,0-2.2-1.612-3.594-3.7-4.15v-.1c1.987-.752,3.161-2.027,3.161-3.783,0-3.009-2.518-4.678-6.171-4.678a8.822,8.822,0,0,0-5.652,2.125l1.981,2.4a5.426,5.426,0,0,1,3.493-1.443c1.48,0,2.411.676,2.411,1.9,0,1.356-1.2,2.293-4.418,2.293v2.775c3.853,0,4.953.9,4.953,2.41,0,1.329-1.285,2.044-3.065,2.044" transform="translate(-154.332 -942.689)" fill="#fff"/>
      </g>
    </g>
  </g>
</svg>
