<svg xmlns="http://www.w3.org/2000/svg" width="130" height="45" viewBox="0 0 130 45">
  <g id="Group_43" data-name="Group 43" transform="translate(-188 -539)">
    <g id="Layer_2" data-name="Layer 2" transform="translate(187.611 539)">
      <g id="Layer_1" data-name="Layer 1" transform="translate(0.389)">
        <rect id="Rectangle_10" data-name="Rectangle 10" width="130" height="45" fill="#ec4247"/>
      </g>
    </g>
    <path id="Path_49" data-name="Path 49" d="M285.493,134.516c4.772-3.994,7.977-6.9,7.977-9.33a2.489,2.489,0,0,0-2.718-2.777,5.073,5.073,0,0,0-3.333,1.689l-2.12-2.134a7.7,7.7,0,0,1,5.995-2.654c3.529,0,5.936,2.232,5.936,5.652,0,2.841-2.862,5.9-6.064,8.688.947-.1,2.174-.191,3.035-.191h3.891v3.324h-12.6Z" transform="translate(-62.464 434.646)" fill="#fff"/>
    <path id="Path_50" data-name="Path 50" d="M431.19,128.145c0-5.853,2.569-8.815,6.447-8.815s6.447,2.962,6.447,8.815c0,5.828-2.57,8.974-6.447,8.974S431.19,133.971,431.19,128.145Zm9.376,0c0-4.48-1.3-5.755-2.927-5.755s-2.927,1.275-2.927,5.755,1.3,5.914,2.927,5.914,2.929-1.434,2.929-5.914Z" transform="translate(-192.411 434.559)" fill="#fff"/>
    <path id="Path_52" data-name="Path 52" d="M720.38,128.145c0-5.853,2.57-8.815,6.447-8.815s6.447,2.962,6.447,8.815c0,5.828-2.57,8.974-6.447,8.974S720.38,133.971,720.38,128.145Zm9.377,0c0-4.48-1.3-5.755-2.927-5.755s-2.927,1.275-2.927,5.755,1.3,5.914,2.927,5.914S729.757,132.625,729.757,128.145Z" transform="translate(-465.31 434.559)" fill="#fff"/>
    <path id="Path_408" data-name="Path 408" d="M720.017,135.123l2.095-2.372a4.616,4.616,0,0,0,2.935,1.2c2.121,0,3.965-1.521,3.965-6.094,0-4.346-1.572-5.571-3.106-5.571a2.448,2.448,0,0,0-2.507,2.771,2.211,2.211,0,0,0,2.433,2.494,4.054,4.054,0,0,0,3.147-1.778l.179,2.576a6.328,6.328,0,0,1-4.188,2c-2.917,0-5.19-1.65-5.19-5.29,0-3.587,2.815-5.747,6.039-5.747,3.432,0,6.812,2.467,6.812,8.549,0,6.381-3.528,9.3-7.234,9.3A7.784,7.784,0,0,1,720.017,135.123Z" transform="translate(-449.044 434.194)" fill="#fff"/>
  </g>
</svg>
