<svg xmlns="http://www.w3.org/2000/svg" width="130" height="45" viewBox="0 0 130 45">
  <g id="Group_49" data-name="Group 49" transform="translate(-188 -1867)">
    <g id="Layer_2" data-name="Layer 2" transform="translate(187.611 1867)">
      <g id="Layer_1" data-name="Layer 1" transform="translate(0.389)">
        <rect id="Rectangle_10" data-name="Rectangle 10" width="130" height="45" fill="#f7b359"/>
      </g>
    </g>
    <path id="Path_492" data-name="Path 492" d="M9,2718.888H5.9a12.507,12.507,0,0,1-5.07,1.637v2.612h3.95v10.633H0v3.4H13.023v-3.4H9Z" transform="translate(222.32 -838.846)" fill="#ec4247"/>
    <path id="Path_493" data-name="Path 493" d="M144.878,2716c-3.426,0-6.417,2.294-6.417,6.106,0,3.867,2.415,5.62,5.515,5.62a6.668,6.668,0,0,0,4.279-1.956c-.179,4.322-2.055,5.786-4.2,5.786a4.9,4.9,0,0,1-3.119-1.276l-2.225,2.521a8.259,8.259,0,0,0,5.718,2.156c3.937,0,7.685-3.1,7.685-9.876,0-6.459-3.591-9.081-7.237-9.081m.014,8.755a2.35,2.35,0,0,1-2.586-2.648c0-2.081,1.274-2.945,2.664-2.945,1.351,0,2.728.9,3.161,3.829a4.235,4.235,0,0,1-3.239,1.764" transform="translate(99.984 -836.156)" fill="#ec4247"/>
    <path id="Path_495" data-name="Path 495" d="M432.8,2719.3a2.653,2.653,0,0,1,2.9,2.96c0,2.593-3.418,5.686-8.5,9.943v2.416h13.43v-3.542h-4.146c-.918,0-2.224.1-3.234.2,3.412-2.97,6.462-6.232,6.462-9.26,0-3.644-2.564-6.022-6.326-6.022a8.2,8.2,0,0,0-6.389,2.829l2.26,2.274a5.4,5.4,0,0,1,3.551-1.8" transform="translate(-154.941 -836.291)" fill="#ec4247"/>
    <path id="Path_512" data-name="Path 512" d="M439.683,397.1v-.112A4.918,4.918,0,0,0,442.236,393c0-3.026-2.3-5-5.854-5s-6.1,1.944-6.1,5.048a5.212,5.212,0,0,0,2.6,4.322v.112c-1.83.9-3.336,2.237-3.336,4.459,0,2.968,2.568,5.016,6.695,5.016,4.352,0,6.788-2.182,6.788-5.067,0-2.462-1.459-3.846-3.338-4.786m-3.4-6.183a2.241,2.241,0,0,1,2.489,2.371,3.667,3.667,0,0,1-1.3,2.693c-2.072-.715-3.484-1.464-3.484-2.938a2.062,2.062,0,0,1,2.3-2.126m.049,13.107c-1.774,0-3.139-.935-3.139-2.56a3.578,3.578,0,0,1,1.658-2.889c2.521.939,4.234,1.528,4.234,3.169,0,1.554-1.134,2.279-2.753,2.279" transform="translate(-173.763 1491.845)" fill="#ec4247"/>
  </g>
</svg>
