<svg xmlns="http://www.w3.org/2000/svg" width="130" height="45" viewBox="0 0 130 45">
  <g id="Group_20" data-name="Group 20" transform="translate(-188 -376)">
    <g id="Layer_2" data-name="Layer 2" transform="translate(187.611 376)">
      <g id="Layer_1" data-name="Layer 1" transform="translate(0.389)">
        <rect id="Rectangle_10" data-name="Rectangle 10" width="130" height="45" fill="#f7b359"/>
      </g>
    </g>
    <g id="Layer_2-2" data-name="Layer 2" transform="translate(188.572 374.639)">
      <g id="Layer_1-2" data-name="Layer 1" transform="translate(0.389 -0.13)">
        <path id="Path_13" data-name="Path 13" d="M285.474,132.955c4.282-3.584,7.158-6.188,7.158-8.372a2.234,2.234,0,0,0-2.439-2.492,4.552,4.552,0,0,0-2.991,1.516l-1.9-1.915a6.912,6.912,0,0,1,5.379-2.382c3.167,0,5.326,2,5.326,5.072,0,2.549-2.568,5.3-5.441,7.8.85-.089,1.95-.172,2.723-.172h3.492v2.983H285.474Z" transform="translate(-252.262 -103.82)" fill="#ec4247"/>
        <path id="Path_14" data-name="Path 14" d="M431.19,127.24c0-5.252,2.305-7.91,5.785-7.91s5.785,2.658,5.785,7.91c0,5.229-2.306,8.052-5.785,8.052S431.19,132.468,431.19,127.24Zm8.413,0c0-4.02-1.167-5.165-2.627-5.165s-2.627,1.144-2.627,5.165,1.167,5.307,2.627,5.307,2.628-1.287,2.628-5.307Z" transform="translate(-380.934 -103.79)" fill="#ec4247"/>
        <path id="Path_15" data-name="Path 15" d="M581.32,134.732h4.026v-8.953h-3.325v-2.2a10.524,10.524,0,0,0,4.268-1.38H588.9v12.532h3.386V137.6H581.32Z" transform="translate(-513.422 -106.386)" fill="#ec4247"/>
        <path id="Path_16" data-name="Path 16" d="M717,133.146l1.636-2.242a5.665,5.665,0,0,0,3.628,1.5c1.609,0,2.77-.646,2.77-1.846,0-1.361-.994-2.179-4.475-2.179v-2.507c2.906,0,3.991-.847,3.991-2.072,0-1.1-.841-1.713-2.178-1.713a4.9,4.9,0,0,0-3.156,1.3l-1.791-2.164a7.98,7.98,0,0,1,5.107-1.921c3.3,0,5.577,1.507,5.577,4.227,0,1.587-1.061,2.738-2.856,3.418v.1c1.884.5,3.34,1.765,3.34,3.75,0,2.872-2.8,4.473-5.981,4.473A7.388,7.388,0,0,1,717,133.146Z" transform="translate(-633.021 -103.772)" fill="#ec4247"/>
      </g>
    </g>
  </g>
</svg>
