<svg xmlns="http://www.w3.org/2000/svg" width="130" height="44.909" viewBox="0 0 130 44.909">
  <g id="Layer_2" data-name="Layer 2" transform="translate(-0.389 0.291)">
    <g id="Layer_1" data-name="Layer 1" transform="translate(0.389 -0.291)">
      <rect id="Rectangle_2" data-name="Rectangle 2" width="130" height="44.909" transform="translate(0)" fill="#ec4247"/>
      <path id="Path_5" data-name="Path 5" d="M285.474,132.955c4.282-3.584,7.158-6.188,7.158-8.372a2.234,2.234,0,0,0-2.439-2.492,4.552,4.552,0,0,0-2.991,1.516l-1.9-1.915a6.912,6.912,0,0,1,5.379-2.382c3.167,0,5.326,2,5.326,5.072,0,2.549-2.568,5.3-5.441,7.8.85-.089,1.95-.172,2.723-.172h3.492v2.983H285.474Z" transform="translate(-252.097 -103.608)" fill="#efdcda"/>
      <path id="Path_6" data-name="Path 6" d="M431.19,127.24c0-5.252,2.305-7.91,5.785-7.91s5.785,2.658,5.785,7.91c0,5.229-2.306,8.052-5.785,8.052S431.19,132.468,431.19,127.24Zm8.413,0c0-4.02-1.167-5.165-2.627-5.165s-2.627,1.144-2.627,5.165,1.167,5.307,2.627,5.307,2.628-1.287,2.628-5.307Z" transform="translate(-380.77 -103.578)" fill="#efdcda"/>
      <path id="Path_7" data-name="Path 7" d="M581.32,134.732h4.026v-8.953h-3.325v-2.2a10.524,10.524,0,0,0,4.268-1.38H588.9v12.532h3.386V137.6H581.32Z" transform="translate(-513.258 -106.175)" fill="#efdcda"/>
      <path id="Path_8" data-name="Path 8" d="M719.282,132.955c4.282-3.584,7.158-6.188,7.158-8.372A2.233,2.233,0,0,0,724,122.091a4.548,4.548,0,0,0-2.99,1.516l-1.9-1.915a6.912,6.912,0,0,1,5.379-2.382c3.168,0,5.326,2,5.326,5.071,0,2.549-2.567,5.3-5.44,7.8.85-.089,1.949-.172,2.722-.172h3.492v2.983H719.282Z" transform="translate(-634.734 -103.608)" fill="#efdcda"/>
    </g>
  </g>
</svg>
