<svg xmlns="http://www.w3.org/2000/svg" width="130" height="45" viewBox="0 0 130 45">
  <g id="Group_41" data-name="Group 41" transform="translate(-188 -735)">
    <g id="Layer_2" data-name="Layer 2" transform="translate(187.611 735)">
      <g id="Layer_1" data-name="Layer 1" transform="translate(0.389)">
        <rect id="Rectangle_10" data-name="Rectangle 10" width="130" height="45" fill="#0e4435"/>
      </g>
    </g>
    <path id="Path_29" data-name="Path 29" d="M285.493,134.516c4.772-3.994,7.977-6.9,7.977-9.33a2.489,2.489,0,0,0-2.718-2.777,5.073,5.073,0,0,0-3.333,1.689l-2.12-2.134a7.7,7.7,0,0,1,5.995-2.654c3.529,0,5.936,2.232,5.936,5.652,0,2.841-2.862,5.9-6.064,8.688.947-.1,2.174-.191,3.035-.191h3.891v3.324h-12.6Z" transform="translate(-62.874 628.848)" fill="#1c7c62"/>
    <path id="Path_30" data-name="Path 30" d="M431.19,128.145c0-5.853,2.569-8.815,6.447-8.815s6.447,2.962,6.447,8.815c0,5.828-2.57,8.974-6.447,8.974S431.19,133.971,431.19,128.145Zm9.376,0c0-4.48-1.3-5.755-2.927-5.755s-2.927,1.275-2.927,5.755,1.3,5.914,2.927,5.914,2.929-1.434,2.929-5.914Z" transform="translate(-192.822 628.927)" fill="#1c7c62"/>
    <path id="Path_415" data-name="Path 415" d="M720.38,128.145c0-5.853,2.57-8.815,6.447-8.815s6.447,2.962,6.447,8.815c0,5.828-2.57,8.974-6.447,8.974S720.38,133.971,720.38,128.145Zm9.377,0c0-4.48-1.3-5.755-2.927-5.755s-2.927,1.275-2.927,5.755,1.3,5.914,2.927,5.914S729.757,132.625,729.757,128.145Z" transform="translate(-465.65 628.927)" fill="#1c7c62"/>
    <path id="Path_416" data-name="Path 416" d="M718,137.295l1.781-2.686a6.114,6.114,0,0,0,3.9,1.842c1.885,0,3.184-.91,3.184-2.675,0-1.713-1.274-2.637-2.993-2.637a4.8,4.8,0,0,0-2.786.847l-1.756-1.135.454-8.681h10.284v3.324H723.2l-.268,3.263a5.992,5.992,0,0,1,2.151-.366c3.074,0,5.748,1.659,5.748,5.286,0,3.8-3.122,5.966-6.574,5.966A8.679,8.679,0,0,1,718,137.295Z" transform="translate(-447.798 626.427)" fill="#1c7c62"/>
  </g>
</svg>
