<svg xmlns="http://www.w3.org/2000/svg" width="130" height="45" viewBox="0 0 130 45">
  <g id="Group_32" data-name="Group 32" transform="translate(-188 -1225)">
    <g id="Layer_2" data-name="Layer 2" transform="translate(187.611 1225)">
      <g id="Layer_1" data-name="Layer 1" transform="translate(0.389)">
        <rect id="Rectangle_10" data-name="Rectangle 10" width="130" height="45" fill="#f7b359"/>
      </g>
    </g>
    <path id="Path_439" data-name="Path 439" d="M8.387,1166.887H5.5a11.653,11.653,0,0,1-4.724,1.526v2.434H4.456v9.908H0v3.169H12.135v-3.169H8.387Z" transform="translate(223.449 72.094)" fill="#0e4435"/>
    <path id="Path_440" data-name="Path 440" d="M144.441,1164c-3.193,0-5.98,2.138-5.98,5.69,0,3.6,2.251,5.237,5.139,5.237a6.213,6.213,0,0,0,3.988-1.822c-.167,4.027-1.915,5.391-3.912,5.391a4.571,4.571,0,0,1-2.906-1.189l-2.073,2.349a7.7,7.7,0,0,0,5.328,2.009c3.668,0,7.161-2.885,7.161-9.2,0-6.019-3.346-8.463-6.744-8.463m.013,8.158a2.19,2.19,0,0,1-2.41-2.468,2.424,2.424,0,0,1,2.482-2.744c1.259,0,2.542.835,2.946,3.568a3.947,3.947,0,0,1-3.018,1.644" transform="translate(100.014 74.671)" fill="#0e4435"/>
    <path id="Path_441" data-name="Path 441" d="M289.039,1164c-3.193,0-5.98,2.138-5.98,5.69,0,3.6,2.251,5.237,5.139,5.237a6.212,6.212,0,0,0,3.988-1.822c-.167,4.027-1.915,5.391-3.912,5.391a4.57,4.57,0,0,1-2.906-1.189l-2.073,2.349a7.7,7.7,0,0,0,5.328,2.009c3.669,0,7.161-2.885,7.161-9.2,0-6.019-3.346-8.463-6.744-8.463m.013,8.158a2.19,2.19,0,0,1-2.41-2.468,2.424,2.424,0,0,1,2.482-2.744c1.259,0,2.542.835,2.945,3.568a3.947,3.947,0,0,1-3.018,1.644" transform="translate(-28.892 74.671)" fill="#0e4435"/>
    <path id="Path_442" data-name="Path 442" d="M436.075,1181.662c3.2,0,5.986-2.144,5.986-5.69,0-3.6-2.257-5.237-5.145-5.237a6.194,6.194,0,0,0-3.981,1.815c.168-4.027,1.909-5.385,3.912-5.385a4.565,4.565,0,0,1,2.906,1.189l2.074-2.349A7.7,7.7,0,0,0,436.5,1164c-3.675,0-7.161,2.853-7.161,9.2,0,6.013,3.34,8.463,6.738,8.463m-.006-8.158a2.183,2.183,0,0,1,2.4,2.468,2.423,2.423,0,0,1-2.476,2.744c-1.264,0-2.544-.849-2.946-3.575a3.944,3.944,0,0,1,3.019-1.637" transform="translate(-159.297 74.671)" fill="#0e4435"/>
  </g>
</svg>
