<svg xmlns="http://www.w3.org/2000/svg" width="130" height="45" viewBox="0 0 130 45">
  <g id="Group_23" data-name="Group 23" transform="translate(-188 -474)">
    <g id="Layer_2" data-name="Layer 2" transform="translate(187.611 474)">
      <g id="Layer_1" data-name="Layer 1" transform="translate(0.389)">
        <rect id="Rectangle_10" data-name="Rectangle 10" width="130" height="45" fill="#f1c0ba"/>
      </g>
    </g>
    <g id="Layer_2-2" data-name="Layer 2" transform="translate(188.243 472.606)">
      <g id="Layer_1-2" data-name="Layer 1" transform="translate(0.389 -0.453)">
        <path id="Path_1" data-name="Path 1" d="M285.474,132.955c4.282-3.584,7.158-6.188,7.158-8.372a2.234,2.234,0,0,0-2.439-2.492,4.552,4.552,0,0,0-2.991,1.516l-1.9-1.915a6.912,6.912,0,0,1,5.379-2.382c3.167,0,5.326,2,5.326,5.072,0,2.549-2.568,5.3-5.441,7.8.85-.089,1.95-.172,2.723-.172h3.492v2.983H285.474Z" transform="translate(-251.933 -103.463)" fill="#0e4435"/>
        <path id="Path_2" data-name="Path 2" d="M431.19,127.24c0-5.252,2.305-7.91,5.785-7.91s5.785,2.658,5.785,7.91c0,5.229-2.306,8.052-5.785,8.052S431.19,132.468,431.19,127.24Zm8.413,0c0-4.02-1.167-5.165-2.627-5.165s-2.627,1.144-2.627,5.165,1.167,5.307,2.627,5.307,2.628-1.287,2.628-5.307Z" transform="translate(-380.605 -103.435)" fill="#0e4435"/>
        <path id="Path_3" data-name="Path 3" d="M581.32,134.732h4.026v-8.953h-3.325v-2.2a10.524,10.524,0,0,0,4.268-1.38H588.9v12.532h3.386V137.6H581.32Z" transform="translate(-513.093 -106.029)" fill="#0e4435"/>
        <path id="Path_4" data-name="Path 4" d="M725.92,134.732h4.028v-8.953H726.62v-2.2a10.529,10.529,0,0,0,4.269-1.38H733.5v12.532h3.386V137.6H725.92Z" transform="translate(-640.651 -106.029)" fill="#0e4435"/>
      </g>
    </g>
  </g>
</svg>
