<svg xmlns="http://www.w3.org/2000/svg" width="130" height="45" viewBox="0 0 130 45">
  <g id="Group_34" data-name="Group 34" transform="translate(-188 -1127)">
    <g id="Layer_2" data-name="Layer 2" transform="translate(187.611 1127)">
      <g id="Layer_1" data-name="Layer 1" transform="translate(0.389)">
        <rect id="Rectangle_10" data-name="Rectangle 10" width="130" height="45" fill="#1c7c62"/>
      </g>
    </g>
    <path id="Path_472" data-name="Path 472" d="M8.387,390.887H5.5a11.656,11.656,0,0,1-4.724,1.526v2.434H4.456v9.908H0v3.169H12.135v-3.169H8.387Z" transform="translate(224.409 749.78)" fill="#f7b359"/>
    <path id="Path_473" data-name="Path 473" d="M144.441,388c-3.193,0-5.98,2.138-5.98,5.69,0,3.6,2.251,5.237,5.139,5.237a6.213,6.213,0,0,0,3.988-1.822c-.167,4.027-1.915,5.391-3.912,5.391a4.571,4.571,0,0,1-2.906-1.189l-2.073,2.349a7.7,7.7,0,0,0,5.328,2.009c3.668,0,7.161-2.885,7.161-9.2,0-6.019-3.346-8.462-6.744-8.462m.013,8.158a2.19,2.19,0,0,1-2.41-2.468,2.425,2.425,0,0,1,2.482-2.744c1.259,0,2.542.835,2.946,3.568a3.947,3.947,0,0,1-3.018,1.644" transform="translate(100.974 752.357)" fill="#f7b359"/>
    <path id="Path_474" data-name="Path 474" d="M289.039,388c-3.193,0-5.98,2.138-5.98,5.69,0,3.6,2.251,5.237,5.139,5.237a6.213,6.213,0,0,0,3.988-1.822c-.167,4.027-1.915,5.391-3.912,5.391a4.57,4.57,0,0,1-2.906-1.189l-2.073,2.349a7.7,7.7,0,0,0,5.328,2.009c3.669,0,7.161-2.885,7.161-9.2,0-6.019-3.346-8.462-6.744-8.462m.013,8.158a2.19,2.19,0,0,1-2.41-2.468,2.425,2.425,0,0,1,2.482-2.744c1.259,0,2.542.835,2.945,3.568a3.946,3.946,0,0,1-3.018,1.644" transform="translate(-27.932 752.357)" fill="#f7b359"/>
    <path id="Path_475" data-name="Path 475" d="M438.992,396.48v-.1a4.583,4.583,0,0,0,2.379-3.717c0-2.819-2.146-4.663-5.455-4.663s-5.686,1.812-5.686,4.7a4.857,4.857,0,0,0,2.418,4.028v.1c-1.706.837-3.108,2.085-3.108,4.155,0,2.766,2.393,4.674,6.238,4.674,4.056,0,6.325-2.034,6.325-4.722,0-2.294-1.359-3.584-3.111-4.46m-3.168-5.762a2.088,2.088,0,0,1,2.319,2.209,3.417,3.417,0,0,1-1.216,2.509c-1.931-.666-3.247-1.364-3.247-2.738a1.921,1.921,0,0,1,2.143-1.981m.046,12.214c-1.653,0-2.925-.872-2.925-2.385a3.334,3.334,0,0,1,1.545-2.692c2.349.875,3.945,1.424,3.945,2.953,0,1.448-1.056,2.124-2.565,2.124" transform="translate(-158.515 752.357)" fill="#f7b359"/>
  </g>
</svg>
