<svg xmlns="http://www.w3.org/2000/svg" width="130" height="45" viewBox="0 0 130 45">
  <g id="Group_59" data-name="Group 59" transform="translate(-188 -1372)">
    <g id="Layer_2" data-name="Layer 2" transform="translate(187.611 1372)">
      <g id="Layer_1" data-name="Layer 1" transform="translate(0.389)">
        <rect id="Rectangle_10" data-name="Rectangle 10" width="130" height="45" fill="#f7b359"/>
      </g>
    </g>
    <path id="Path_492" data-name="Path 492" d="M9,2718.888H5.9a12.507,12.507,0,0,1-5.07,1.637v2.612h3.95v10.633H0v3.4H13.023v-3.4H9Z" transform="translate(222.32 -1332.885)" fill="#ec4247"/>
    <path id="Path_493" data-name="Path 493" d="M144.878,2716c-3.426,0-6.417,2.294-6.417,6.106,0,3.867,2.415,5.62,5.515,5.62a6.668,6.668,0,0,0,4.279-1.956c-.179,4.322-2.055,5.786-4.2,5.786a4.9,4.9,0,0,1-3.119-1.276l-2.225,2.521a8.259,8.259,0,0,0,5.718,2.156c3.937,0,7.685-3.1,7.685-9.876,0-6.459-3.591-9.081-7.237-9.081m.014,8.755a2.35,2.35,0,0,1-2.586-2.648c0-2.081,1.274-2.945,2.664-2.945,1.351,0,2.728.9,3.161,3.829a4.235,4.235,0,0,1-3.239,1.764" transform="translate(99.984 -1330.33)" fill="#ec4247"/>
    <path id="Path_494" data-name="Path 494" d="M289.476,2716c-3.426,0-6.417,2.294-6.417,6.106,0,3.867,2.415,5.62,5.515,5.62a6.669,6.669,0,0,0,4.279-1.956c-.179,4.322-2.055,5.786-4.2,5.786a4.9,4.9,0,0,1-3.119-1.276l-2.225,2.521a8.259,8.259,0,0,0,5.718,2.156c3.937,0,7.685-3.1,7.685-9.876,0-6.459-3.591-9.081-7.237-9.081m.014,8.755a2.35,2.35,0,0,1-2.586-2.648c0-2.081,1.274-2.945,2.664-2.945,1.351,0,2.728.9,3.161,3.829a4.235,4.235,0,0,1-3.239,1.764" transform="translate(-27.774 -1330.33)" fill="#ec4247"/>
    <path id="Path_495" data-name="Path 495" d="M432.8,2719.3a2.653,2.653,0,0,1,2.9,2.96c0,2.593-3.418,5.686-8.5,9.943v2.416h13.43v-3.542h-4.146c-.918,0-2.224.1-3.234.2,3.412-2.97,6.462-6.232,6.462-9.26,0-3.644-2.564-6.022-6.326-6.022a8.2,8.2,0,0,0-6.389,2.829l2.26,2.274a5.4,5.4,0,0,1,3.551-1.8" transform="translate(-154.941 -1330.33)" fill="#ec4247"/>
  </g>
</svg>
