<svg xmlns="http://www.w3.org/2000/svg" width="130" height="45" viewBox="0 0 130 45">
  <g id="Group_33" data-name="Group 33" transform="translate(-188 -1176)">
    <g id="Layer_2" data-name="Layer 2" transform="translate(187.611 1176)">
      <g id="Layer_1" data-name="Layer 1" transform="translate(0.389)">
        <rect id="Rectangle_10" data-name="Rectangle 10" width="130" height="45" fill="#f1c0ba"/>
      </g>
    </g>
    <path id="Path_537" data-name="Path 537" d="M8.387,778.887H5.5a11.658,11.658,0,0,1-4.724,1.526v2.434H4.456v9.908H0v3.169H12.135v-3.169H8.387Z" transform="translate(224.441 410.781)" fill="#ec4247"/>
    <path id="Path_538" data-name="Path 538" d="M144.441,776c-3.193,0-5.98,2.138-5.98,5.69,0,3.6,2.251,5.237,5.139,5.237a6.213,6.213,0,0,0,3.988-1.822c-.167,4.027-1.915,5.391-3.912,5.391a4.571,4.571,0,0,1-2.906-1.189l-2.073,2.349a7.7,7.7,0,0,0,5.328,2.009c3.668,0,7.161-2.885,7.161-9.2,0-6.019-3.346-8.462-6.744-8.462m.013,8.158a2.19,2.19,0,0,1-2.41-2.468,2.425,2.425,0,0,1,2.482-2.744c1.259,0,2.542.835,2.946,3.568a3.947,3.947,0,0,1-3.018,1.644" transform="translate(101.006 413.357)" fill="#ec4247"/>
    <path id="Path_539" data-name="Path 539" d="M289.039,776c-3.193,0-5.98,2.138-5.98,5.69,0,3.6,2.251,5.237,5.139,5.237a6.213,6.213,0,0,0,3.988-1.822c-.167,4.027-1.915,5.391-3.912,5.391a4.571,4.571,0,0,1-2.906-1.189l-2.073,2.349a7.7,7.7,0,0,0,5.328,2.009c3.669,0,7.161-2.885,7.161-9.2,0-6.019-3.346-8.462-6.744-8.462m.013,8.158a2.19,2.19,0,0,1-2.41-2.468,2.425,2.425,0,0,1,2.482-2.744c1.259,0,2.542.835,2.945,3.568a3.947,3.947,0,0,1-3.018,1.644" transform="translate(-27.899 413.357)" fill="#ec4247"/>
    <path id="Path_540" data-name="Path 540" d="M437.177,795.925c.321-6.669.88-9.925,5.16-14.616v-2.422h-12.5v3.3h8.273c-3.534,4.443-4.564,8.049-4.892,13.737Z" transform="translate(-158.751 410.781)" fill="#ec4247"/>
  </g>
</svg>
