<svg xmlns="http://www.w3.org/2000/svg" width="130" height="45" viewBox="0 0 130 45">
  <g id="Group_22" data-name="Group 22" transform="translate(-188 -523)">
    <g id="Layer_2" data-name="Layer 2" transform="translate(187.611 523)">
      <g id="Layer_1" data-name="Layer 1" transform="translate(0.389)">
        <rect id="Rectangle_10" data-name="Rectangle 10" width="130" height="45" fill="#1c7c62"/>
      </g>
    </g>
    <g id="Layer_2-2" data-name="Layer 2" transform="translate(188.543 522.614)">
      <g id="Layer_1-2" data-name="Layer 1" transform="translate(0.084 0.386)">
        <path id="Path_172" data-name="Path 172" d="M285.474,133.017c4.3-3.6,7.191-6.217,7.191-8.411a2.244,2.244,0,0,0-2.45-2.5,4.573,4.573,0,0,0-3,1.523L285.3,121.7a6.944,6.944,0,0,1,5.4-2.393c3.182,0,5.351,2.013,5.351,5.095,0,2.561-2.58,5.319-5.466,7.832.854-.09,1.959-.172,2.736-.172h3.508v3H285.474Z" transform="translate(-251.928 -104.62)" fill="#f7b359"/>
        <path id="Path_173" data-name="Path 173" d="M431.19,127.277c0-5.276,2.316-7.947,5.812-7.947s5.812,2.671,5.812,7.947c0,5.253-2.317,8.089-5.812,8.089S431.19,132.528,431.19,127.277Zm8.452,0c0-4.039-1.172-5.188-2.639-5.188s-2.639,1.15-2.639,5.188,1.172,5.331,2.639,5.331,2.64-1.292,2.64-5.331Z" transform="translate(-380.694 -104.594)" fill="#f7b359"/>
        <path id="Path_174" data-name="Path 174" d="M581.32,134.789h4.045V125.8h-3.34v-2.21a10.572,10.572,0,0,0,4.288-1.386h2.621v12.589h3.4v2.877H581.32Z" transform="translate(-513.274 -107.185)" fill="#f7b359"/>
        <path id="Path_175" data-name="Path 175" d="M720.38,127.277c0-5.276,2.317-7.947,5.812-7.947S732,122,732,127.277c0,5.253-2.317,8.089-5.812,8.089S720.38,132.528,720.38,127.277Zm8.453,0c0-4.039-1.173-5.188-2.639-5.188s-2.639,1.15-2.639,5.188,1.172,5.331,2.639,5.331S728.833,131.315,728.833,127.277Z" transform="translate(-635.95 -104.594)" fill="#f7b359"/>
      </g>
    </g>
  </g>
</svg>
