<svg xmlns="http://www.w3.org/2000/svg" width="130" height="45" viewBox="0 0 130 45">
  <g id="Group_42" data-name="Group 42" transform="translate(-188 -686)">
    <g id="Layer_2" data-name="Layer 2" transform="translate(187.611 686)">
      <g id="Layer_1" data-name="Layer 1" transform="translate(0.389)">
        <rect id="Rectangle_10" data-name="Rectangle 10" width="130" height="45" fill="#f7b359"/>
      </g>
    </g>
    <path id="Path_33" data-name="Path 33" d="M285.493,134.516c4.772-3.994,7.977-6.9,7.977-9.33a2.489,2.489,0,0,0-2.718-2.777,5.073,5.073,0,0,0-3.333,1.689l-2.12-2.134a7.7,7.7,0,0,1,5.995-2.654c3.529,0,5.936,2.232,5.936,5.652,0,2.841-2.862,5.9-6.064,8.688.947-.1,2.174-.191,3.035-.191h3.891v3.324h-12.6Z" transform="translate(-62.006 579.873)" fill="#0e4435"/>
    <path id="Path_34" data-name="Path 34" d="M431.19,128.145c0-5.853,2.569-8.815,6.447-8.815s6.447,2.962,6.447,8.815c0,5.828-2.57,8.974-6.447,8.974S431.19,133.971,431.19,128.145Zm9.376,0c0-4.48-1.3-5.755-2.927-5.755s-2.927,1.275-2.927,5.755,1.3,5.914,2.927,5.914,2.929-1.434,2.929-5.914Z" transform="translate(-191.954 579.951)" fill="#0e4435"/>
    <path id="Path_413" data-name="Path 413" d="M720.38,128.145c0-5.853,2.57-8.815,6.447-8.815s6.447,2.962,6.447,8.815c0,5.828-2.57,8.974-6.447,8.974S720.38,133.971,720.38,128.145Zm9.377,0c0-4.48-1.3-5.755-2.927-5.755s-2.927,1.275-2.927,5.755,1.3,5.914,2.927,5.914S729.757,132.625,729.757,128.145Z" transform="translate(-465.31 579.951)" fill="#0e4435"/>
    <path id="Path_414" data-name="Path 414" d="M721.46,128.578c0-6.395,3.511-9.268,7.212-9.268a7.746,7.746,0,0,1,5.364,2.024l-2.087,2.365a4.6,4.6,0,0,0-2.926-1.2c-2.121,0-3.954,1.51-3.954,6.076,0,4.312,1.559,5.554,3.1,5.554a2.44,2.44,0,0,0,2.493-2.764,2.2,2.2,0,0,0-2.419-2.485,4.04,4.04,0,0,0-3.144,1.772l-.178-2.568a6.292,6.292,0,0,1,4.174-1.992c2.909,0,5.182,1.651,5.182,5.272,0,3.571-2.806,5.73-6.028,5.73C724.824,137.1,721.46,134.632,721.46,128.578Z" transform="translate(-450.693 579.971)" fill="#0e4435"/>
  </g>
</svg>
