<svg xmlns="http://www.w3.org/2000/svg" width="130" height="45" viewBox="0 0 130 45">
  <g id="Group_50" data-name="Group 50" transform="translate(-188 -1818)">
    <g id="Layer_2" data-name="Layer 2" transform="translate(187.611 1818)">
      <g id="Layer_1" data-name="Layer 1" transform="translate(0.389)">
        <rect id="Rectangle_10" data-name="Rectangle 10" width="130" height="45" fill="#1c7c62"/>
      </g>
    </g>
    <path id="Path_488" data-name="Path 488" d="M9,2330.887H5.9a12.507,12.507,0,0,1-5.07,1.638v2.613h3.95v10.633H0v3.4H13.023v-3.4H9Z" transform="translate(223.347 -499.958)" fill="#fff"/>
    <path id="Path_489" data-name="Path 489" d="M144.878,2328c-3.426,0-6.417,2.294-6.417,6.106,0,3.867,2.415,5.62,5.515,5.62a6.668,6.668,0,0,0,4.279-1.956c-.179,4.321-2.055,5.786-4.2,5.786a4.907,4.907,0,0,1-3.119-1.276l-2.225,2.521a8.261,8.261,0,0,0,5.718,2.156c3.937,0,7.685-3.1,7.685-9.876,0-6.459-3.591-9.081-7.237-9.081m.014,8.755a2.351,2.351,0,0,1-2.586-2.649c0-2.08,1.274-2.945,2.664-2.945,1.351,0,2.728.9,3.161,3.83a4.236,4.236,0,0,1-3.239,1.764" transform="translate(100.976 -497.548)" fill="#fff"/>
    <path id="Path_491" data-name="Path 491" d="M431.133,2343.553a6.728,6.728,0,0,1-4.308-1.787l-1.943,2.662a8.755,8.755,0,0,0,6.668,2.526c3.777,0,7.1-1.9,7.1-5.312,0-2.356-1.73-3.856-3.967-4.453v-.112c2.132-.807,3.393-2.176,3.393-4.06,0-3.229-2.7-5.02-6.622-5.02a9.468,9.468,0,0,0-6.065,2.281l2.126,2.57a5.822,5.822,0,0,1,3.748-1.548c1.588,0,2.587.726,2.587,2.034,0,1.455-1.288,2.461-4.741,2.461v2.978c4.135,0,5.316.971,5.316,2.587,0,1.426-1.379,2.193-3.29,2.193" transform="translate(-152.412 -497.404)" fill="#fff"/>
    <path id="Path_511" data-name="Path 511" d="M439.683,397.1v-.112A4.918,4.918,0,0,0,442.236,393c0-3.026-2.3-5-5.854-5s-6.1,1.944-6.1,5.048a5.212,5.212,0,0,0,2.6,4.322v.112c-1.83.9-3.336,2.237-3.336,4.459,0,2.968,2.568,5.016,6.695,5.016,4.352,0,6.788-2.182,6.788-5.067,0-2.462-1.459-3.846-3.338-4.786m-3.4-6.183a2.241,2.241,0,0,1,2.489,2.371,3.667,3.667,0,0,1-1.3,2.693c-2.072-.715-3.484-1.464-3.484-2.938a2.062,2.062,0,0,1,2.3-2.126m.049,13.107c-1.774,0-3.139-.935-3.139-2.56a3.578,3.578,0,0,1,1.658-2.889c2.521.939,4.234,1.528,4.234,3.169,0,1.554-1.134,2.279-2.753,2.279" transform="translate(-173.053 1442.452)" fill="#fff"/>
  </g>
</svg>
