<svg xmlns="http://www.w3.org/2000/svg" width="130" height="45" viewBox="0 0 130 45">
  <g id="Group_48" data-name="Group 48" transform="translate(-188 -1916)">
    <g id="Layer_2" data-name="Layer 2" transform="translate(187.611 1916)">
      <g id="Layer_1" data-name="Layer 1" transform="translate(0.389)">
        <rect id="Rectangle_10" data-name="Rectangle 10" width="130" height="45" fill="#ec4247"/>
      </g>
    </g>
    <path id="Path_496" data-name="Path 496" d="M9,3106.887H5.9a12.5,12.5,0,0,1-5.07,1.637v2.613h3.95v10.633H0v3.4H13.023v-3.4H9Z" transform="translate(222.584 -1177.289)" fill="#f1c0ba"/>
    <path id="Path_497" data-name="Path 497" d="M144.878,3103.995c-3.426,0-6.417,2.294-6.417,6.107,0,3.867,2.415,5.62,5.515,5.62a6.668,6.668,0,0,0,4.279-1.955c-.179,4.321-2.055,5.785-4.2,5.785a4.905,4.905,0,0,1-3.119-1.276l-2.225,2.521a8.26,8.26,0,0,0,5.718,2.156c3.937,0,7.685-3.1,7.685-9.876,0-6.459-3.591-9.082-7.237-9.082m.014,8.755a2.351,2.351,0,0,1-2.586-2.649c0-2.081,1.274-2.945,2.664-2.945,1.351,0,2.728.9,3.161,3.829a4.235,4.235,0,0,1-3.239,1.764" transform="translate(100.248 -1174.676)" fill="#f1c0ba"/>
    <path id="Path_499" data-name="Path 499" d="M433.793,3121.77v3.4h13.023v-3.4h-4.022v-14.883h-3.1a12.5,12.5,0,0,1-5.07,1.637v2.613h3.95v10.633Z" transform="translate(-160.69 -1177.289)" fill="#f1c0ba"/>
    <path id="Path_513" data-name="Path 513" d="M439.683,397.1v-.112A4.918,4.918,0,0,0,442.236,393c0-3.026-2.3-5-5.854-5s-6.1,1.944-6.1,5.048a5.212,5.212,0,0,0,2.6,4.322v.112c-1.83.9-3.336,2.237-3.336,4.459,0,2.968,2.568,5.016,6.695,5.016,4.352,0,6.788-2.182,6.788-5.067,0-2.462-1.459-3.846-3.338-4.786m-3.4-6.183a2.241,2.241,0,0,1,2.489,2.371,3.667,3.667,0,0,1-1.3,2.693c-2.072-.715-3.484-1.464-3.484-2.938a2.062,2.062,0,0,1,2.3-2.126m.049,13.107c-1.774,0-3.139-.935-3.139-2.56a3.578,3.578,0,0,1,1.658-2.889c2.521.939,4.234,1.528,4.234,3.169,0,1.554-1.134,2.279-2.753,2.279" transform="translate(-173.408 1541.323)" fill="#f1c0ba"/>
  </g>
</svg>
