<svg xmlns="http://www.w3.org/2000/svg" width="130" height="45" viewBox="0 0 130 45">
  <g id="Group_52" data-name="Group 52" transform="translate(-188 -1716)">
    <g id="Layer_2" data-name="Layer 2" transform="translate(187.611 1716)">
      <g id="Layer_1" data-name="Layer 1" transform="translate(0.389)">
        <rect id="Rectangle_10" data-name="Rectangle 10" width="130" height="45" fill="#0e4435"/>
      </g>
    </g>
    <path id="Path_480" data-name="Path 480" d="M9,1554.887H5.9a12.5,12.5,0,0,1-5.07,1.638v2.612h3.95v10.633H0v3.4H13.023v-3.4H9Z" transform="translate(222.362 174.421)" fill="#1c7c62"/>
    <path id="Path_481" data-name="Path 481" d="M144.878,1552c-3.426,0-6.417,2.294-6.417,6.106,0,3.867,2.415,5.62,5.515,5.62a6.669,6.669,0,0,0,4.279-1.956c-.179,4.321-2.055,5.786-4.2,5.786a4.906,4.906,0,0,1-3.119-1.276l-2.225,2.521a8.261,8.261,0,0,0,5.718,2.156c3.937,0,7.685-3.1,7.685-9.876,0-6.46-3.591-9.081-7.237-9.081m.014,8.755a2.351,2.351,0,0,1-2.586-2.649c0-2.081,1.274-2.944,2.664-2.944,1.351,0,2.728.9,3.161,3.829a4.236,4.236,0,0,1-3.239,1.764" transform="translate(100.026 176.984)" fill="#1c7c62"/>
    <path id="Path_483" data-name="Path 483" d="M439.591,1567.15c0-3.866-2.85-5.634-6.125-5.634a6.393,6.393,0,0,0-2.293.39l.286-3.477h7.319v-3.542h-10.96l-.483,9.251,1.872,1.21a5.105,5.105,0,0,1,2.969-.9c1.832,0,3.19.985,3.19,2.81,0,1.882-1.384,2.852-3.394,2.852a6.516,6.516,0,0,1-4.16-1.963L425.918,1571a9.244,9.244,0,0,0,6.667,2.506c3.679,0,7.006-2.309,7.006-6.358" transform="translate(-153.954 174.421)" fill="#1c7c62"/>
    <path id="Path_509" data-name="Path 509" d="M439.683,397.1v-.112A4.918,4.918,0,0,0,442.236,393c0-3.026-2.3-5-5.854-5s-6.1,1.944-6.1,5.048a5.212,5.212,0,0,0,2.6,4.322v.112c-1.83.9-3.336,2.237-3.336,4.459,0,2.968,2.568,5.016,6.695,5.016,4.352,0,6.788-2.182,6.788-5.067,0-2.462-1.459-3.846-3.338-4.786m-3.4-6.183a2.241,2.241,0,0,1,2.489,2.371,3.667,3.667,0,0,1-1.3,2.693c-2.072-.715-3.484-1.464-3.484-2.938a2.062,2.062,0,0,1,2.3-2.126m.049,13.107c-1.774,0-3.139-.935-3.139-2.56a3.578,3.578,0,0,1,1.658-2.889c2.521.939,4.234,1.528,4.234,3.169,0,1.554-1.134,2.279-2.753,2.279" transform="translate(-173.763 1340.985)" fill="#1c7c62"/>
  </g>
</svg>
