<svg xmlns="http://www.w3.org/2000/svg" width="130" height="45" viewBox="0 0 130 45">
  <g id="Group_31" data-name="Group 31" transform="translate(-188 -1274)">
    <g id="Group_28" data-name="Group 28">
      <g id="Layer_2" data-name="Layer 2" transform="translate(187.611 1274)">
        <g id="Layer_1" data-name="Layer 1" transform="translate(0.389)">
          <rect id="Rectangle_10" data-name="Rectangle 10" width="130" height="45" fill="#0e4435"/>
        </g>
      </g>
      <path id="Path_480" data-name="Path 480" d="M8.387,1554.887H5.5a11.651,11.651,0,0,1-4.724,1.526v2.434H4.456v9.908H0v3.17H12.135v-3.17H8.387Z" transform="translate(223.524 -267.416)" fill="#1c7c62"/>
      <path id="Path_481" data-name="Path 481" d="M144.441,1552c-3.193,0-5.98,2.137-5.98,5.69,0,3.6,2.251,5.237,5.139,5.237a6.214,6.214,0,0,0,3.988-1.822c-.167,4.027-1.915,5.391-3.912,5.391a4.572,4.572,0,0,1-2.906-1.189l-2.073,2.349a7.7,7.7,0,0,0,5.328,2.009c3.668,0,7.161-2.885,7.161-9.2,0-6.019-3.346-8.462-6.744-8.462m.013,8.158a2.19,2.19,0,0,1-2.41-2.468,2.425,2.425,0,0,1,2.482-2.744c1.259,0,2.542.835,2.946,3.568a3.947,3.947,0,0,1-3.018,1.644" transform="translate(100.089 -264.839)" fill="#1c7c62"/>
      <path id="Path_482" data-name="Path 482" d="M289.039,1552c-3.193,0-5.98,2.137-5.98,5.69,0,3.6,2.251,5.237,5.139,5.237a6.214,6.214,0,0,0,3.988-1.822c-.167,4.027-1.915,5.391-3.912,5.391a4.572,4.572,0,0,1-2.906-1.189l-2.073,2.349a7.7,7.7,0,0,0,5.328,2.009c3.669,0,7.161-2.885,7.161-9.2,0-6.019-3.346-8.462-6.744-8.462m.013,8.158a2.19,2.19,0,0,1-2.41-2.468,2.425,2.425,0,0,1,2.482-2.744c1.259,0,2.542.835,2.945,3.568a3.947,3.947,0,0,1-3.018,1.644" transform="translate(-28.817 -264.839)" fill="#1c7c62"/>
      <path id="Path_483" data-name="Path 483" d="M438.659,1566.314c0-3.6-2.656-5.25-5.708-5.25a5.958,5.958,0,0,0-2.137.364l.267-3.24h6.82v-3.3H427.689l-.45,8.621,1.744,1.128a4.757,4.757,0,0,1,2.767-.842c1.707,0,2.972.918,2.972,2.618,0,1.754-1.29,2.657-3.162,2.657a6.072,6.072,0,0,1-3.877-1.829l-1.764,2.664a8.614,8.614,0,0,0,6.213,2.335c3.428,0,6.528-2.152,6.528-5.925" transform="translate(-156.173 -267.416)" fill="#1c7c62"/>
    </g>
  </g>
</svg>
