<svg xmlns="http://www.w3.org/2000/svg" width="130" height="45" viewBox="0 0 130 45">
  <g id="Group_17" data-name="Group 17" transform="translate(-188 -229)">
    <g id="Layer_2" data-name="Layer 2" transform="translate(187.611 229)">
      <g id="Layer_1" data-name="Layer 1" transform="translate(0.389)">
        <rect id="Rectangle_10" data-name="Rectangle 10" width="130" height="45" fill="#0e4435"/>
      </g>
    </g>
    <g id="Layer_2-2" data-name="Layer 2" transform="translate(188.228 227.995)">
      <g id="Layer_1-2" data-name="Layer 1" transform="translate(0 0.354)">
        <path id="Path_29" data-name="Path 29" d="M285.474,132.955c4.282-3.584,7.158-6.188,7.158-8.372a2.234,2.234,0,0,0-2.439-2.492,4.552,4.552,0,0,0-2.991,1.516l-1.9-1.915a6.912,6.912,0,0,1,5.379-2.382c3.167,0,5.326,2,5.326,5.072,0,2.549-2.568,5.3-5.441,7.8.85-.089,1.95-.172,2.723-.172h3.492v2.983H285.474Z" transform="translate(-251.528 -104.659)" fill="#1c7c62"/>
        <path id="Path_30" data-name="Path 30" d="M431.19,127.24c0-5.252,2.305-7.91,5.785-7.91s5.785,2.658,5.785,7.91c0,5.229-2.306,8.052-5.785,8.052S431.19,132.468,431.19,127.24Zm8.413,0c0-4.02-1.167-5.165-2.627-5.165s-2.627,1.144-2.627,5.165,1.167,5.307,2.627,5.307,2.628-1.287,2.628-5.307Z" transform="translate(-380.374 -104.634)" fill="#1c7c62"/>
        <path id="Path_31" data-name="Path 31" d="M581.32,134.732h4.026v-8.953h-3.325v-2.2a10.524,10.524,0,0,0,4.268-1.38H588.9v12.532h3.386V137.6H581.32Z" transform="translate(-513.036 -107.226)" fill="#1c7c62"/>
        <path id="Path_32" data-name="Path 32" d="M721.46,127.626c0-5.738,3.151-8.316,6.472-8.316a6.951,6.951,0,0,1,4.814,1.816l-1.873,2.122a4.126,4.126,0,0,0-2.626-1.074c-1.9,0-3.548,1.355-3.548,5.452,0,3.869,1.4,4.984,2.779,4.984a2.19,2.19,0,0,0,2.237-2.48,1.975,1.975,0,0,0-2.171-2.23,3.626,3.626,0,0,0-2.821,1.59l-.16-2.3a5.646,5.646,0,0,1,3.746-1.788c2.61,0,4.65,1.482,4.65,4.731a5.112,5.112,0,0,1-5.409,5.142C724.478,135.273,721.46,133.06,721.46,127.626Z" transform="translate(-636.752 -104.617)" fill="#1c7c62"/>
      </g>
    </g>
  </g>
</svg>
