<svg xmlns="http://www.w3.org/2000/svg" width="130" height="45" viewBox="0 0 130 45">
  <g id="Group_35" data-name="Group 35" transform="translate(-188 -1078)">
    <g id="Layer_2" data-name="Layer 2" transform="translate(187.611 1078)">
      <g id="Layer_1" data-name="Layer 1" transform="translate(0.389)">
        <rect id="Rectangle_10" data-name="Rectangle 10" width="130" height="45" fill="#ec4247"/>
      </g>
    </g>
    <path id="Path_468" data-name="Path 468" d="M8.387,2.887H5.5A11.657,11.657,0,0,1,.776,4.413V6.847H4.456v9.908H0v3.169H12.135V16.756H8.387Z" transform="translate(223.448 1088.466)" fill="#fff"/>
    <path id="Path_469" data-name="Path 469" d="M144.441,0c-3.193,0-5.98,2.138-5.98,5.69,0,3.6,2.251,5.237,5.139,5.237A6.213,6.213,0,0,0,147.587,9.1c-.167,4.027-1.915,5.391-3.912,5.391a4.571,4.571,0,0,1-2.906-1.189L138.7,15.652a7.7,7.7,0,0,0,5.328,2.009c3.668,0,7.161-2.885,7.161-9.2,0-6.019-3.346-8.462-6.744-8.462m.013,8.158a2.19,2.19,0,0,1-2.41-2.468,2.425,2.425,0,0,1,2.482-2.744c1.259,0,2.542.835,2.946,3.568a3.947,3.947,0,0,1-3.018,1.644" transform="translate(100.013 1091.044)" fill="#fff"/>
    <path id="Path_470" data-name="Path 470" d="M289.039,0c-3.193,0-5.98,2.138-5.98,5.69,0,3.6,2.251,5.237,5.139,5.237A6.213,6.213,0,0,0,292.185,9.1c-.167,4.027-1.915,5.391-3.912,5.391a4.57,4.57,0,0,1-2.906-1.189l-2.073,2.349a7.7,7.7,0,0,0,5.328,2.009c3.669,0,7.161-2.885,7.161-9.2,0-6.019-3.346-8.462-6.744-8.462m.013,8.158a2.19,2.19,0,0,1-2.41-2.468,2.425,2.425,0,0,1,2.482-2.744c1.259,0,2.542.835,2.945,3.568a3.947,3.947,0,0,1-3.018,1.644" transform="translate(-28.892 1091.044)" fill="#fff"/>
    <path id="Path_471" data-name="Path 471" d="M432.795,10.923A6.213,6.213,0,0,0,436.782,9.1c-.167,4.027-1.915,5.391-3.912,5.391a4.571,4.571,0,0,1-2.906-1.189l-2.073,2.349a7.7,7.7,0,0,0,5.328,2.01c3.669,0,7.161-2.885,7.161-9.2,0-6.019-3.346-8.462-6.744-8.462-3.193,0-5.98,2.137-5.98,5.69,0,3.6,2.251,5.237,5.139,5.237m.926-7.981c1.259,0,2.542.835,2.945,3.568a3.947,3.947,0,0,1-3.018,1.644,2.19,2.19,0,0,1-2.41-2.468,2.425,2.425,0,0,1,2.482-2.744" transform="translate(-157.798 1091.044)" fill="#fff"/>
  </g>
</svg>
