<svg xmlns="http://www.w3.org/2000/svg" width="130" height="45" viewBox="0 0 130 45">
  <g id="Group_39" data-name="Group 39" transform="translate(-188 -833)">
    <g id="Layer_2" data-name="Layer 2" transform="translate(187.611 833)">
      <g id="Layer_1" data-name="Layer 1" transform="translate(0.389)">
        <rect id="Rectangle_10" data-name="Rectangle 10" width="130" height="45" fill="#1c7c62"/>
      </g>
    </g>
    <path id="Path_275" data-name="Path 275" d="M285.489,134.148c4.656-3.9,7.784-6.73,7.784-9.1a2.429,2.429,0,0,0-2.652-2.709,4.95,4.95,0,0,0-3.252,1.649L285.3,121.9a7.516,7.516,0,0,1,5.85-2.59c3.444,0,5.792,2.178,5.792,5.515,0,2.772-2.793,5.758-5.917,8.478.924-.1,2.121-.187,2.961-.187h3.8v3.244H285.489Z" transform="translate(-61.45 726.999)" fill="#fff"/>
    <path id="Path_276" data-name="Path 276" d="M431.19,127.932c0-5.711,2.507-8.6,6.291-8.6s6.291,2.891,6.291,8.6c0,5.687-2.508,8.757-6.291,8.757S431.19,133.616,431.19,127.932Zm9.149,0c0-4.372-1.269-5.616-2.857-5.616s-2.857,1.244-2.857,5.616,1.269,5.771,2.857,5.771,2.858-1.4,2.858-5.771Z" transform="translate(-191.783 727.063)" fill="#fff"/>
    <path id="Path_419" data-name="Path 419" d="M720.38,127.906c0-5.694,2.5-8.576,6.272-8.576s6.272,2.882,6.272,8.576c0,5.669-2.5,8.73-6.272,8.73S720.38,133.573,720.38,127.906Zm9.122,0c0-4.359-1.266-5.6-2.848-5.6s-2.848,1.241-2.848,5.6,1.265,5.753,2.848,5.753S729.5,132.265,729.5,127.906Z" transform="translate(-465.773 727.063)" fill="#fff"/>
    <path id="Path_420" data-name="Path 420" d="M717,134.31l1.773-2.43a6.142,6.142,0,0,0,3.933,1.631c1.744,0,3-.7,3-2,0-1.476-1.078-2.362-4.852-2.362v-2.718c3.151,0,4.327-.919,4.327-2.246,0-1.194-.912-1.857-2.361-1.857a5.316,5.316,0,0,0-3.422,1.414l-1.941-2.346A8.651,8.651,0,0,1,723,119.31c3.578,0,6.046,1.634,6.046,4.583,0,1.72-1.15,2.968-3.1,3.706v.106c2.042.545,3.621,1.914,3.621,4.065,0,3.114-3.032,4.85-6.485,4.85A8.009,8.009,0,0,1,717,134.31Z" transform="translate(-447.813 727.083)" fill="#fff"/>
  </g>
</svg>
