<svg xmlns="http://www.w3.org/2000/svg" width="130" height="45" viewBox="0 0 130 45">
  <g id="Group_46" data-name="Group 46" transform="translate(-188 -2014)">
    <g id="Layer_2" data-name="Layer 2" transform="translate(187.611 2014)">
      <g id="Layer_1" data-name="Layer 1" transform="translate(0.389)">
        <rect id="Rectangle_10" data-name="Rectangle 10" width="130" height="45" fill="#1c7c62"/>
      </g>
    </g>
    <path id="Path_545" data-name="Path 545" d="M0,4.291H8.566C4.906,8.892,3.84,12.626,3.5,18.515H7.6c.332-6.905.911-10.278,5.344-15.135V.873H0Z" transform="translate(264.914 2025.806)" fill="#fff"/>
    <path id="Path_546" data-name="Path 546" d="M45.464,0c-3.989,0-6.632,3.045-6.632,9.065,0,5.992,2.643,9.227,6.632,9.227s6.631-3.235,6.631-9.227C52.095,3.045,49.452,0,45.464,0m0,15.146c-1.673,0-3.01-1.469-3.01-6.081s1.337-5.919,3.01-5.919,3.01,1.313,3.01,5.919-1.337,6.081-3.01,6.081" transform="translate(240.528 2026.354)" fill="#fff"/>
    <path id="Path_548" data-name="Path 548" d="M82.546,5.422c-.966-.278-1.81-.476-1.81-.927,0-.355.331-.533,1.131-.533a4.15,4.15,0,0,1,2.15.658l1.145-1.49A6.117,6.117,0,0,0,81.83,2.065c-2.236,0-3.645,1.039-3.645,2.539,0,1.323,1.449,1.97,2.71,2.362.99.3,1.894.519,1.894.993,0,.367-.372.594-1.3.594a4.885,4.885,0,0,1-2.65-.845L77.7,9.266a6.988,6.988,0,0,0,3.747,1.148c2.521,0,3.875-1.142,3.875-2.605,0-1.437-1.461-2.006-2.771-2.386" transform="translate(216.122 2025.057)" fill="#fff"/>
    <rect id="Rectangle_19" data-name="Rectangle 19" width="6.307" height="2.867" transform="translate(255.315 2034.837)" fill="#fff"/>
    <path id="Path_549" data-name="Path 549" d="M142.592,6.977a6.414,6.414,0,0,0-4.122,1.88c.174-4.17,1.977-5.575,4.051-5.575a4.727,4.727,0,0,1,3.009,1.231l2.147-2.432A7.97,7.97,0,0,0,142.16,0c-3.805,0-7.415,2.954-7.415,9.529,0,6.226,3.458,8.762,6.976,8.762,3.313,0,6.2-2.22,6.2-5.892,0-3.725-2.337-5.422-5.328-5.422m-.953,8.264c-1.309,0-2.634-.879-3.05-3.7a4.083,4.083,0,0,1,3.125-1.7A2.261,2.261,0,0,1,144.2,12.4a2.509,2.509,0,0,1-2.564,2.841" transform="translate(77.819 2026.354)" fill="#fff"/>
    <path id="Path_550" data-name="Path 550" d="M184.727,0c-3.989,0-6.632,3.045-6.632,9.065,0,5.992,2.643,9.227,6.632,9.227s6.632-3.235,6.632-9.227c0-6.02-2.643-9.065-6.632-9.065m0,15.146c-1.673,0-3.01-1.469-3.01-6.081s1.337-5.919,3.01-5.919,3.01,1.313,3.01,5.919-1.337,6.081-3.01,6.081" transform="translate(50.596 2026.354)" fill="#fff"/>
    <path id="Path_552" data-name="Path 552" d="M223.266,5.422c-.966-.278-1.81-.476-1.81-.927,0-.355.331-.533,1.131-.533a4.15,4.15,0,0,1,2.15.658l1.145-1.49a6.117,6.117,0,0,0-3.331-1.064c-2.236,0-3.645,1.039-3.645,2.539,0,1.323,1.449,1.97,2.71,2.362.99.3,1.894.519,1.894.993,0,.367-.372.594-1.3.594a4.885,4.885,0,0,1-2.65-.845l-1.145,1.557a6.988,6.988,0,0,0,3.747,1.148c2.521,0,3.875-1.142,3.875-2.605,0-1.437-1.461-2.006-2.771-2.386" transform="translate(25.276 2025.057)" fill="#fff"/>
    <rect id="Rectangle_20" data-name="Rectangle 20" width="88.875" height="18.292" transform="translate(212.564 2026.354)" fill="none"/>
  </g>
</svg>
