<svg id="Layer_2" data-name="Layer 2" xmlns="http://www.w3.org/2000/svg" width="360" height="230.72" viewBox="0 0 360 230.72">
  <g id="Layer_1" data-name="Layer 1">
    <path id="Path_68" data-name="Path 68" d="M360,124.083V0H0V124.666a205.507,205.507,0,0,0,360-.582Z" fill="#1c7c62"/>
    <ellipse id="Ellipse_65" data-name="Ellipse 65" cx="8.134" cy="8.134" rx="8.134" ry="8.134" transform="translate(114.963 43.226)" fill="#fff"/>
    <ellipse id="Ellipse_66" data-name="Ellipse 66" cx="8.134" cy="8.134" rx="8.134" ry="8.134" transform="translate(154.957 43.226)" fill="#fff"/>
    <ellipse id="Ellipse_67" data-name="Ellipse 67" cx="8.134" cy="8.134" rx="8.134" ry="8.134" transform="translate(194.954 43.226)" fill="#fff"/>
    <ellipse id="Ellipse_68" data-name="Ellipse 68" cx="8.134" cy="8.134" rx="8.134" ry="8.134" transform="translate(234.95 43.226)" fill="#fff"/>
    <ellipse id="Ellipse_69" data-name="Ellipse 69" cx="8.134" cy="8.134" rx="8.134" ry="8.134" transform="translate(283.277 36.826)" fill="#fff"/>
    <ellipse id="Ellipse_70" data-name="Ellipse 70" cx="8.134" cy="8.134" rx="8.134" ry="8.134" transform="translate(59.277 36.826)" fill="#fff"/>
    <ellipse id="Ellipse_71" data-name="Ellipse 71" cx="8.134" cy="8.134" rx="8.134" ry="8.134" transform="translate(89.357 175.066)" fill="#fff"/>
    <ellipse id="Ellipse_72" data-name="Ellipse 72" cx="8.134" cy="8.134" rx="8.134" ry="8.134" transform="translate(265.677 175.066)" fill="#fff"/>
    <ellipse id="Ellipse_73" data-name="Ellipse 73" cx="8.134" cy="8.134" rx="8.134" ry="8.134" transform="translate(177.037 204.186)" fill="#0e4435"/>
    <ellipse id="Ellipse_74" data-name="Ellipse 74" cx="4.749" cy="13.184" rx="4.749" ry="13.184" transform="translate(230.72 72.832)" fill="#0e4435"/>
    <ellipse id="Ellipse_75" data-name="Ellipse 75" cx="4.749" cy="13.184" rx="4.749" ry="13.184" transform="translate(130.24 72.832)" fill="#0e4435"/>
    <ellipse id="Ellipse_76" data-name="Ellipse 76" cx="4.749" cy="13.184" rx="4.749" ry="13.184" transform="translate(180.48 59.712)" fill="#0e4435"/>
    <ellipse id="Ellipse_77" data-name="Ellipse 77" cx="4.749" cy="13.184" rx="4.749" ry="13.184" transform="translate(79.36 59.712)" fill="#0e4435"/>
    <ellipse id="Ellipse_78" data-name="Ellipse 78" cx="4.749" cy="13.184" rx="4.749" ry="13.184" transform="translate(276.8 59.712)" fill="#0e4435"/>
    <circle id="Ellipse_79" data-name="Ellipse 79" cx="4.56" cy="4.56" r="4.56" transform="translate(44.16 16.979)" fill="#0e4435"/>
    <circle id="Ellipse_80" data-name="Ellipse 80" cx="4.56" cy="4.56" r="4.56" transform="translate(70.416 16.979)" fill="#0e4435"/>
    <circle id="Ellipse_81" data-name="Ellipse 81" cx="4.56" cy="4.56" r="4.56" transform="translate(96.672 16.979)" fill="#0e4435"/>
    <circle id="Ellipse_82" data-name="Ellipse 82" cx="4.56" cy="4.56" r="4.56" transform="translate(122.928 16.979)" fill="#0e4435"/>
    <circle id="Ellipse_83" data-name="Ellipse 83" cx="4.56" cy="4.56" r="4.56" transform="translate(149.184 16.979)" fill="#0e4435"/>
    <circle id="Ellipse_84" data-name="Ellipse 84" cx="4.56" cy="4.56" r="4.56" transform="translate(175.44 16.979)" fill="#0e4435"/>
    <circle id="Ellipse_85" data-name="Ellipse 85" cx="4.56" cy="4.56" r="4.56" transform="translate(201.696 16.979)" fill="#0e4435"/>
    <circle id="Ellipse_86" data-name="Ellipse 86" cx="4.56" cy="4.56" r="4.56" transform="translate(227.952 16.979)" fill="#0e4435"/>
    <circle id="Ellipse_87" data-name="Ellipse 87" cx="4.56" cy="4.56" r="4.56" transform="translate(254.208 16.979)" fill="#0e4435"/>
    <circle id="Ellipse_88" data-name="Ellipse 88" cx="4.56" cy="4.56" r="4.56" transform="translate(280.464 16.979)" fill="#0e4435"/>
    <circle id="Ellipse_89" data-name="Ellipse 89" cx="4.56" cy="4.56" r="4.56" transform="translate(306.72 16.979)" fill="#0e4435"/>
    <circle id="Ellipse_90" data-name="Ellipse 90" cx="4.56" cy="4.56" r="4.56" transform="translate(333.888 16.979)" fill="#0e4435"/>
    <circle id="Ellipse_91" data-name="Ellipse 91" cx="4.56" cy="4.56" r="4.56" transform="translate(17.44 16.979)" fill="#0e4435"/>
    <path id="Path_69" data-name="Path 69" d="M438.14,383.27a34.045,34.045,0,0,0,35.709,17.04,34.013,34.013,0,0,0-2.928,39.226,34.035,34.035,0,0,0,12.662-12.176,34.035,34.035,0,0,0,12.662,12.176,34.013,34.013,0,0,0-2.88-39.152,34.045,34.045,0,0,0,35.29-17.114,34.022,34.022,0,0,0-16.874-4.88,33.991,33.991,0,0,0,4.211-17.053,34.01,34.01,0,0,0-32.6,22.4,34.01,34.01,0,0,0-32.6-22.4,34.029,34.029,0,0,0,4.214,17.053A34,34,0,0,0,438.14,383.27Z" transform="translate(-297.935 -245.705)" fill="#efdcda"/>
    <path id="Path_70" data-name="Path 70" d="M528.689,384.606a34.045,34.045,0,0,0-35.709-17.04,34.01,34.01,0,0,0,2.925-39.226,33.993,33.993,0,0,0-12.659,12.16,34.027,34.027,0,0,0-12.662-12.16,34.01,34.01,0,0,0,2.88,39.152,34.042,34.042,0,0,0-35.274,17.114,33.968,33.968,0,0,0,16.874,4.877,34.045,34.045,0,0,0-4.23,17.053,34.013,34.013,0,0,0,32.6-22.4,34.013,34.013,0,0,0,32.6,22.4,34.006,34.006,0,0,0-4.211-17.053A33.986,33.986,0,0,0,528.689,384.606Z" transform="translate(-297.969 -223.271)" fill="#fff"/>
    <path id="Path_71" data-name="Path 71" d="M222.208,307.114a23.536,23.536,0,0,0,9.123,25.782,23.51,23.51,0,0,0-20.6,17.741,23.526,23.526,0,0,0,12.138.237,23.491,23.491,0,0,0,.24,12.138,23.5,23.5,0,0,0,17.734-20.534,23.53,23.53,0,0,0,25.6,8.877,23.494,23.494,0,0,0-5.862-10.63,23.543,23.543,0,0,0,10.4-6.275,23.507,23.507,0,0,0-26.88-4.989,23.507,23.507,0,0,0-4.989-26.88,23.5,23.5,0,0,0-6.275,10.394,23.5,23.5,0,0,0-10.624-5.859Z" transform="translate(-143.296 -205.754)" fill="#ec4247"/>
    <path id="Path_72" data-name="Path 72" d="M244.9,372.518a23.533,23.533,0,0,0-9.133-25.779A23.51,23.51,0,0,0,256.37,329a23.5,23.5,0,0,0-12.141-.237,23.5,23.5,0,0,0-.237-12.141,23.51,23.51,0,0,0-17.734,20.538,23.533,23.533,0,0,0-25.6-8.877,23.517,23.517,0,0,0,5.866,10.63,23.5,23.5,0,0,0-10.394,6.275,23.507,23.507,0,0,0,26.88,4.989A23.507,23.507,0,0,0,228,377.055a23.542,23.542,0,0,0,6.272-10.394A23.5,23.5,0,0,0,244.9,372.518Z" transform="translate(-133.368 -215.302)" fill="#0e4435"/>
    <path id="Path_73" data-name="Path 73" d="M81.734,171.68a16.227,16.227,0,0,0-1.6,18.8,16.221,16.221,0,0,0-17.994,5.286,16.173,16.173,0,0,0,7.558,3.6,16.218,16.218,0,0,0-3.3,7.7A16.211,16.211,0,0,0,83.382,199.2a16.237,16.237,0,0,0,13.565,12.864,16.237,16.237,0,0,0-.659-8.349,16.233,16.233,0,0,0,8.32-.986,16.208,16.208,0,0,0-15.472-10.79,16.218,16.218,0,0,0,4.512-18.307,16.208,16.208,0,0,0-6.912,4.755A16.214,16.214,0,0,0,81.734,171.68Z" transform="translate(-42.255 -116.742)" fill="#f7b359"/>
    <path id="Path_74" data-name="Path 74" d="M89.164,224.581a16.23,16.23,0,0,0,1.6-18.8,16.2,16.2,0,0,0,17.994-5.286,16.231,16.231,0,0,0-7.562-3.6,16.211,16.211,0,0,0,3.306-7.68,16.214,16.214,0,0,0-16.989,7.856A16.227,16.227,0,0,0,73.951,184.21a16.2,16.2,0,0,0,.659,8.349,16.23,16.23,0,0,0-8.32.986A16.208,16.208,0,0,0,81.762,204.3,16.211,16.211,0,0,0,77.25,222.61a16.2,16.2,0,0,0,6.9-4.746A16.218,16.218,0,0,0,89.164,224.581Z" transform="translate(-45.077 -125.263)" fill="#fff"/>
    <path id="Path_75" data-name="Path 75" d="M948.164,171.68a16.227,16.227,0,0,1,1.6,18.8,16.221,16.221,0,0,1,17.994,5.286,16.17,16.17,0,0,1-7.562,3.6,16.22,16.22,0,0,1,3.306,7.7,16.221,16.221,0,0,1-16.989-7.859,16.224,16.224,0,0,1-13.562,12.864,16.2,16.2,0,0,1,.659-8.349,16.23,16.23,0,0,1-8.32-.986,16.208,16.208,0,0,1,15.472-10.79,16.218,16.218,0,0,1-4.512-18.307,16.18,16.18,0,0,1,6.9,4.746A16.25,16.25,0,0,1,948.164,171.68Z" transform="translate(-629.197 -116.742)" fill="#f7b359"/>
    <path id="Path_76" data-name="Path 76" d="M940.734,224.581a16.23,16.23,0,0,1-1.6-18.8A16.2,16.2,0,0,1,921.14,200.5a16.233,16.233,0,0,1,7.558-3.6,16.2,16.2,0,0,1-3.3-7.68,16.2,16.2,0,0,1,16.986,7.856,16.237,16.237,0,0,1,13.565-12.861,16.24,16.24,0,0,1-.659,8.349,16.235,16.235,0,0,1,8.32.986A16.208,16.208,0,0,1,948.135,204.3a16.211,16.211,0,0,1,4.512,18.307,16.236,16.236,0,0,1-6.912-4.736A16.187,16.187,0,0,1,940.734,224.581Z" transform="translate(-626.375 -125.263)" fill="#fff"/>
    <path id="Path_77" data-name="Path 77" d="M809.9,307.114a23.536,23.536,0,0,1-9.133,25.782,23.51,23.51,0,0,1,20.6,17.741,23.539,23.539,0,0,1-12.141.237,23.49,23.49,0,0,1-.237,12.138,23.5,23.5,0,0,1-17.734-20.534,23.533,23.533,0,0,1-25.6,8.877,23.5,23.5,0,0,1,5.866-10.63,23.5,23.5,0,0,1-10.394-6.275,23.507,23.507,0,0,1,26.88-4.989A23.507,23.507,0,0,1,793,302.58a23.5,23.5,0,0,1,6.275,10.394A23.5,23.5,0,0,1,809.9,307.114Z" transform="translate(-517.568 -205.754)" fill="#ec4247"/>
    <path id="Path_78" data-name="Path 78" d="M787.208,372.518a23.532,23.532,0,0,1,9.123-25.779A23.51,23.51,0,0,1,775.73,329a23.491,23.491,0,0,1,12.137-.237,23.5,23.5,0,0,1,.24-12.141,23.51,23.51,0,0,1,17.734,20.538,23.53,23.53,0,0,1,25.6-8.877,23.512,23.512,0,0,1-5.862,10.63,23.543,23.543,0,0,1,10.4,6.275,23.507,23.507,0,0,1-26.88,4.989,23.507,23.507,0,0,1-4.989,26.88,23.542,23.542,0,0,1-6.269-10.394A23.493,23.493,0,0,1,787.208,372.518Z" transform="translate(-527.497 -215.302)" fill="#0e4435"/>
    <circle id="Ellipse_92" data-name="Ellipse 92" cx="2.56" cy="2.56" r="2.56" transform="translate(238.4 200.659)" fill="#fff"/>
    <circle id="Ellipse_93" data-name="Ellipse 93" cx="2.56" cy="2.56" r="2.56" transform="translate(238.4 185.923)" fill="#fff"/>
    <circle id="Ellipse_94" data-name="Ellipse 94" cx="2.56" cy="2.56" r="2.56" transform="translate(238.4 171.184)" fill="#fff"/>
    <circle id="Ellipse_95" data-name="Ellipse 95" cx="2.56" cy="2.56" r="2.56" transform="translate(238.4 156.448)" fill="#fff"/>
    <circle id="Ellipse_96" data-name="Ellipse 96" cx="2.56" cy="2.56" r="2.56" transform="translate(317.44 149.139)" fill="#fff"/>
    <circle id="Ellipse_97" data-name="Ellipse 97" cx="2.56" cy="2.56" r="2.56" transform="translate(317.44 134.403)" fill="#fff"/>
    <circle id="Ellipse_98" data-name="Ellipse 98" cx="2.56" cy="2.56" r="2.56" transform="translate(317.44 119.664)" fill="#fff"/>
    <circle id="Ellipse_99" data-name="Ellipse 99" cx="2.56" cy="2.56" r="2.56" transform="translate(317.44 104.928)" fill="#fff"/>
    <circle id="Ellipse_100" data-name="Ellipse 100" cx="2.56" cy="2.56" r="2.56" transform="translate(38.4 149.139)" fill="#fff"/>
    <circle id="Ellipse_101" data-name="Ellipse 101" cx="2.56" cy="2.56" r="2.56" transform="translate(38.4 134.403)" fill="#fff"/>
    <circle id="Ellipse_102" data-name="Ellipse 102" cx="2.56" cy="2.56" r="2.56" transform="translate(38.4 119.664)" fill="#fff"/>
    <circle id="Ellipse_103" data-name="Ellipse 103" cx="2.56" cy="2.56" r="2.56" transform="translate(38.4 104.928)" fill="#fff"/>
    <circle id="Ellipse_104" data-name="Ellipse 104" cx="2.56" cy="2.56" r="2.56" transform="translate(127.68 200.659)" fill="#fff"/>
    <circle id="Ellipse_105" data-name="Ellipse 105" cx="2.56" cy="2.56" r="2.56" transform="translate(127.68 185.923)" fill="#fff"/>
    <circle id="Ellipse_106" data-name="Ellipse 106" cx="2.56" cy="2.56" r="2.56" transform="translate(127.68 171.184)" fill="#fff"/>
    <circle id="Ellipse_107" data-name="Ellipse 107" cx="2.56" cy="2.56" r="2.56" transform="translate(127.68 156.448)" fill="#fff"/>
    <circle id="Ellipse_108" data-name="Ellipse 108" cx="3.169" cy="3.169" r="3.169" transform="translate(80.757 69.729)" fill="#ec4247"/>
    <circle id="Ellipse_109" data-name="Ellipse 109" cx="3.169" cy="3.169" r="3.169" transform="translate(182.181 69.729)" fill="#ec4247"/>
    <ellipse id="Ellipse_110" data-name="Ellipse 110" cx="4.226" cy="3.169" rx="4.226" ry="3.169" transform="translate(277.265 69.729)" fill="#ec4247"/>
    <circle id="Ellipse_111" data-name="Ellipse 111" cx="3.169" cy="3.169" r="3.169" transform="translate(232.893 82.407)" fill="#f1c0ba"/>
    <circle id="Ellipse_112" data-name="Ellipse 112" cx="3.169" cy="3.169" r="3.169" transform="translate(131.469 82.407)" fill="#f1c0ba"/>
  </g>
</svg>
