<svg xmlns="http://www.w3.org/2000/svg" width="363" height="125" viewBox="0 0 363 125">
  <g id="Layer_2" data-name="Layer 2" transform="translate(0.307)">
    <g id="Layer_1" data-name="Layer 1" transform="translate(0)">
      <rect id="Rectangle_6" data-name="Rectangle 6" width="363" height="125" transform="translate(-0.307)" fill="#0e4435"/>
      <path id="Path_29" data-name="Path 29" d="M285.868,164c14.026-11.74,23.447-20.27,23.447-27.423,0-5.293-2.939-8.161-7.988-8.161-3.883,0-7.031,2.4-9.8,4.966l-6.231-6.273c5.139-5.21,10.069-7.8,17.621-7.8,10.374,0,17.447,6.562,17.447,16.612,0,8.351-8.412,17.344-17.823,25.538,2.785-.292,6.389-.562,8.919-.562H322.9v9.771H285.868Z" transform="translate(-192.719 -80.989)" fill="#1c7c62"/>
      <path id="Path_30" data-name="Path 30" d="M431.19,145.24c0-17.2,7.551-25.91,18.95-25.91s18.95,8.707,18.95,25.91c0,17.129-7.554,26.376-18.95,26.376S431.19,162.363,431.19,145.24Zm27.558,0c0-13.169-3.822-16.917-8.6-16.917s-8.6,3.748-8.6,16.917,3.822,17.383,8.6,17.383,8.608-4.214,8.608-17.383Z" transform="translate(-291.75 -81.002)" fill="#1c7c62"/>
      <path id="Path_31" data-name="Path 31" d="M581.32,163.248h13.188V133.924H583.617v-7.2c6.684-1.028,10.162-2.229,13.981-4.519h8.547v41.048h11.091v9.382H581.32Z" transform="translate(-393.66 -82.95)" fill="#1c7c62"/>
      <path id="Path_32" data-name="Path 32" d="M721.46,146.55c0-18.8,10.32-27.24,21.2-27.24a22.768,22.768,0,0,1,15.767,5.948l-6.135,6.951a13.517,13.517,0,0,0-8.6-3.517c-6.234,0-11.621,4.439-11.621,17.858,0,12.674,4.583,16.326,9.1,16.326,3.816,0,7.326-2.383,7.326-8.123,0-5.139-2.891-7.3-7.111-7.3-2.952,0-6.212,1.407-9.241,5.21l-.524-7.548c3.575-3.713,8.508-5.855,12.269-5.855,8.55,0,15.231,4.853,15.231,15.5,0,10.5-8.248,16.843-17.717,16.843C731.346,171.6,721.46,164.347,721.46,146.55Z" transform="translate(-488.788 -80.989)" fill="#1c7c62"/>
      <circle id="Ellipse_9" data-name="Ellipse 9" cx="6.877" cy="6.877" r="6.877" transform="translate(306.719 58.287)" fill="#f7b359"/>
      <circle id="Ellipse_10" data-name="Ellipse 10" cx="6.877" cy="6.877" r="6.877" transform="translate(36.405 57.583)" fill="#f7b359"/>
    </g>
  </g>
</svg>
