<svg id="Layer_2" data-name="Layer 2" xmlns="http://www.w3.org/2000/svg" width="363" height="125" viewBox="0 0 363 125">
  <g id="Layer_1" data-name="Layer 1">
    <rect id="Rectangle_11" data-name="Rectangle 11" width="363" height="125" fill="#1c7c62"/>
    <path id="Path_172" data-name="Path 172" d="M285.871,164.209c14.091-11.793,23.555-20.363,23.555-27.549,0-5.318-2.952-8.2-8.025-8.2-3.9,0-7.063,2.41-9.841,4.988l-6.26-6.3c5.163-5.234,10.116-7.838,17.7-7.838,10.422,0,17.527,6.592,17.527,16.688,0,8.389-8.451,17.424-17.9,25.655,2.8-.294,6.418-.565,8.96-.565h11.49V170.9h-37.2Z" transform="translate(-193.243 -80.813)" fill="#f7b359"/>
    <path id="Path_173" data-name="Path 173" d="M431.19,145.36c0-17.282,7.586-26.03,19.037-26.03s19.037,8.747,19.037,26.03c0,17.208-7.589,26.5-19.037,26.5S431.19,162.561,431.19,145.36Zm27.685,0c0-13.229-3.84-16.995-8.644-16.995s-8.644,3.766-8.644,16.995,3.84,17.463,8.644,17.463,8.647-4.233,8.647-17.463Z" transform="translate(-292.059 -80.826)" fill="#f7b359"/>
    <path id="Path_174" data-name="Path 174" d="M581.32,163.437h13.249V133.977H583.627V126.74c6.715-1.033,10.209-2.239,14.046-4.54h8.586v41.237H617.4v9.425H581.32Z" transform="translate(-393.747 -82.77)" fill="#f7b359"/>
    <path id="Path_175" data-name="Path 175" d="M720.38,145.36c0-17.282,7.589-26.03,19.037-26.03s19.037,8.747,19.037,26.03c0,17.208-7.589,26.5-19.037,26.5S720.38,162.561,720.38,145.36Zm27.688,0c0-13.229-3.843-16.995-8.644-16.995s-8.644,3.766-8.644,16.995,3.84,17.463,8.644,17.463S748.068,158.589,748.068,145.36Z" transform="translate(-487.937 -80.826)" fill="#f7b359"/>
    <path id="Path_292" data-name="Path 292" d="M110.427,155h-.5A17.075,17.075,0,0,1,96,168.924v.5a17.075,17.075,0,0,1,13.924,13.924h.5a17.075,17.075,0,0,1,13.924-13.924v-.5A17.075,17.075,0,0,1,110.427,155Z" transform="translate(-67.072 -104.408)" fill="#f1c0ba"/>
    <path id="Path_293" data-name="Path 293" d="M966.427,155h-.5A17.075,17.075,0,0,1,952,168.924v.5a17.075,17.075,0,0,1,13.924,13.924h.5a17.075,17.075,0,0,1,13.924-13.924v-.5A17.075,17.075,0,0,1,966.427,155Z" transform="translate(-647.299 -104.408)" fill="#f1c0ba"/>
  </g>
</svg>
