<svg xmlns="http://www.w3.org/2000/svg" width="361" height="125" viewBox="0 0 361 125">
  <g id="Layer_2" data-name="Layer 2" transform="translate(0.067)">
    <g id="Layer_1" data-name="Layer 1" transform="translate(0)">
      <rect id="Rectangle_3" data-name="Rectangle 3" width="361" height="125" transform="translate(-0.067)" fill="#f7b359"/>
      <path id="Path_13" data-name="Path 13" d="M285.868,164c14.026-11.74,23.447-20.27,23.447-27.423,0-5.293-2.939-8.161-7.988-8.161-3.883,0-7.031,2.4-9.8,4.966l-6.231-6.273c5.139-5.21,10.069-7.8,17.621-7.8,10.374,0,17.447,6.562,17.447,16.612,0,8.351-8.412,17.344-17.823,25.538,2.785-.292,6.389-.562,8.919-.562H322.9v9.771H285.868Z" transform="translate(-194.134 -80.989)" fill="#ec4247"/>
      <path id="Path_14" data-name="Path 14" d="M431.19,145.24c0-17.2,7.551-25.91,18.95-25.91s18.95,8.707,18.95,25.91c0,17.129-7.554,26.376-18.95,26.376S431.19,162.363,431.19,145.24Zm27.558,0c0-13.169-3.822-16.917-8.6-16.917s-8.6,3.748-8.6,16.917,3.822,17.383,8.6,17.383,8.608-4.214,8.608-17.383Z" transform="translate(-293.166 -81.002)" fill="#ec4247"/>
      <path id="Path_15" data-name="Path 15" d="M581.32,163.248h13.188V133.924H583.617v-7.2c6.684-1.028,10.162-2.229,13.981-4.519h8.547v41.048h11.091v9.382H581.32Z" transform="translate(-395.076 -82.95)" fill="#ec4247"/>
      <path id="Path_16" data-name="Path 16" d="M717,164.63l5.358-7.342a18.557,18.557,0,0,0,11.884,4.927c5.271,0,9.073-2.117,9.073-6.048,0-4.458-3.257-7.137-14.659-7.137v-8.213c9.52,0,13.073-2.775,13.073-6.787,0-3.607-2.756-5.611-7.134-5.611-3.825,0-6.97,1.564-10.339,4.272l-5.865-7.089a26.138,26.138,0,0,1,16.728-6.292c10.811,0,18.266,4.937,18.266,13.847,0,5.2-3.475,8.968-9.356,11.2v.321c6.17,1.648,10.94,5.781,10.94,12.282,0,9.408-9.16,14.653-19.593,14.653C726.992,171.6,720.816,168.793,717,164.63Z" transform="translate(-487.176 -80.989)" fill="#ec4247"/>
      <circle id="Ellipse_5" data-name="Ellipse 5" cx="6.877" cy="6.877" r="6.877" transform="translate(310.122 59.571)" fill="#efdcda"/>
      <circle id="Ellipse_6" data-name="Ellipse 6" cx="6.877" cy="6.877" r="6.877" transform="translate(39.807 58.868)" fill="#efdcda"/>
    </g>
  </g>
</svg>
