<svg xmlns="http://www.w3.org/2000/svg" width="325.568" height="9.12" viewBox="0 0 325.568 9.12">
  <g id="Group_1" data-name="Group 1" transform="translate(-17.44 -16.979)">
    <circle id="Ellipse_79" data-name="Ellipse 79" cx="4.56" cy="4.56" r="4.56" transform="translate(44.16 16.979)" fill="#fff"/>
    <circle id="Ellipse_80" data-name="Ellipse 80" cx="4.56" cy="4.56" r="4.56" transform="translate(70.416 16.979)" fill="#fff"/>
    <circle id="Ellipse_81" data-name="Ellipse 81" cx="4.56" cy="4.56" r="4.56" transform="translate(96.672 16.979)" fill="#fff"/>
    <circle id="Ellipse_82" data-name="Ellipse 82" cx="4.56" cy="4.56" r="4.56" transform="translate(122.928 16.979)" fill="#fff"/>
    <circle id="Ellipse_83" data-name="Ellipse 83" cx="4.56" cy="4.56" r="4.56" transform="translate(149.184 16.979)" fill="#fff"/>
    <circle id="Ellipse_84" data-name="Ellipse 84" cx="4.56" cy="4.56" r="4.56" transform="translate(175.44 16.979)" fill="#fff"/>
    <circle id="Ellipse_85" data-name="Ellipse 85" cx="4.56" cy="4.56" r="4.56" transform="translate(201.696 16.979)" fill="#fff"/>
    <circle id="Ellipse_86" data-name="Ellipse 86" cx="4.56" cy="4.56" r="4.56" transform="translate(227.952 16.979)" fill="#fff"/>
    <circle id="Ellipse_87" data-name="Ellipse 87" cx="4.56" cy="4.56" r="4.56" transform="translate(254.208 16.979)" fill="#fff"/>
    <circle id="Ellipse_88" data-name="Ellipse 88" cx="4.56" cy="4.56" r="4.56" transform="translate(280.464 16.979)" fill="#fff"/>
    <circle id="Ellipse_89" data-name="Ellipse 89" cx="4.56" cy="4.56" r="4.56" transform="translate(306.72 16.979)" fill="#fff"/>
    <circle id="Ellipse_90" data-name="Ellipse 90" cx="4.56" cy="4.56" r="4.56" transform="translate(333.888 16.979)" fill="#fff"/>
    <circle id="Ellipse_91" data-name="Ellipse 91" cx="4.56" cy="4.56" r="4.56" transform="translate(17.44 16.979)" fill="#fff"/>
  </g>
</svg>
